<?xml version="1.0" encoding="UTF-8" standalone="no"?>
<!DOCTYPE svg PUBLIC "-//W3C//DTD SVG 1.1//EN"
 "http://www.w3.org/Graphics/SVG/1.1/DTD/svg11.dtd">
<!-- Generated by graphviz version 14.1.3 (20260303.0454)
 -->
<!-- Title: argument Pages: 1 -->
<svg width="2462pt" height="1092pt"
 viewBox="0.00 0.00 2462.00 1092.00" xmlns="http://www.w3.org/2000/svg" xmlns:xlink="http://www.w3.org/1999/xlink">
<g id="graph0" class="graph" transform="scale(1 1) rotate(0) translate(4 1087.75)">
<title>argument</title>
<polygon fill="white" stroke="none" points="-4,4 -4,-1087.75 2457.5,-1087.75 2457.5,4 -4,4"/>
<text xml:space="preserve" text-anchor="middle" x="1226.75" y="-1064.55" font-family="Times,serif" font-size="16.00">Obergefell majority constitutional holding</text>
<text xml:space="preserve" text-anchor="middle" x="1226.75" y="-1045.8" font-family="Times,serif" font-size="16.00">admissible: true | counterexample: unknown | preserves truth: unknown</text>
<g id="clust1" class="cluster">
<title>cluster_55e04b2a</title>
<polygon fill="none" stroke="#b3b3b3" stroke-width="2" points="8,-344.5 8,-954.75 797,-954.75 797,-344.5 8,-344.5"/>
<text xml:space="preserve" text-anchor="middle" x="402.5" y="-935.55" font-family="Times,serif" font-size="16.00">Fundamental&#45;right reasoning extends to same&#45;sex co</text>
<text xml:space="preserve" text-anchor="middle" x="402.5" y="-916.8" font-family="Times,serif" font-size="16.00">(((((Marriage_Fundamental ∧ Reasons_Apply_Equally)) ∧ Exclusion_Burdens_Rights)) → SS_Couples_May_Marry)</text>
</g>
<g id="clust2" class="cluster">
<title>cluster_5c5a9c0d</title>
<polygon fill="none" stroke="#b3b3b3" stroke-width="2" points="1538,-344.5 1538,-740.25 2198,-740.25 2198,-344.5 1538,-344.5"/>
<text xml:space="preserve" text-anchor="middle" x="1868" y="-721.05" font-family="Times,serif" font-size="16.00">States must license and recognize same&#45;sex marriag</text>
<text xml:space="preserve" text-anchor="middle" x="1868" y="-702.3" font-family="Times,serif" font-size="16.00">(((SS_Couples_May_Marry ∧ No_Basis_Deny_Recognition)) → States_Must_License_Recognize)</text>
</g>
<g id="clust3" class="cluster">
<title>cluster_b2df5124</title>
<polygon fill="none" stroke="#b3b3b3" stroke-width="2" points="1125,-344.5 1125,-525.75 1530,-525.75 1530,-344.5 1125,-344.5"/>
<text xml:space="preserve" text-anchor="middle" x="1327.5" y="-506.55" font-family="Times,serif" font-size="16.00">Marriage right defeats recognition bans</text>
<text xml:space="preserve" text-anchor="middle" x="1327.5" y="-487.8" font-family="Times,serif" font-size="16.00">(SS_Couples_May_Marry → No_Basis_Deny_Recognition)</text>
</g>
<g id="clust4" class="cluster">
<title>cluster_claims</title>
</g>
<!-- 1492ed96 -->
<g id="node1" class="node">
<title>1492ed96</title>
<polygon fill="#d4edda" stroke="black" points="567,-472.25 523.33,-454.25 567,-436.25 610.67,-454.25 567,-472.25"/>
<text xml:space="preserve" text-anchor="middle" x="567" y="-449.2" font-family="Times,serif" font-size="14.00">AND</text>
</g>
<!-- 711407c3 -->
<g id="node5" class="node">
<title>711407c3</title>
<polygon fill="#d4edda" stroke="black" points="642.12,-388.5 491.88,-388.5 491.88,-352.5 642.12,-352.5 642.12,-388.5"/>
<text xml:space="preserve" text-anchor="middle" x="567" y="-365.45" font-family="Times,serif" font-size="14.00">Reasons_Apply_Equally</text>
</g>
<!-- 1492ed96&#45;&gt;711407c3 -->
<g id="edge8" class="edge">
<title>1492ed96&#45;&gt;711407c3</title>
<path fill="none" stroke="black" d="M567,-435.91C567,-425.51 567,-412.02 567,-400.07"/>
<polygon fill="black" stroke="black" points="570.5,-400.33 567,-390.33 563.5,-400.33 570.5,-400.33"/>
</g>
<!-- eae25b34 -->
<g id="node9" class="node">
<title>eae25b34</title>
<polygon fill="#d4edda" stroke="black" points="452.12,-388.5 307.88,-388.5 307.88,-352.5 452.12,-352.5 452.12,-388.5"/>
<text xml:space="preserve" text-anchor="middle" x="380" y="-365.45" font-family="Times,serif" font-size="14.00">Marriage_Fundamental</text>
</g>
<!-- 1492ed96&#45;&gt;eae25b34 -->
<g id="edge5" class="edge">
<title>1492ed96&#45;&gt;eae25b34</title>
<path fill="none" stroke="black" d="M546.63,-444.35C518.94,-432.24 468.51,-410.19 430.35,-393.51"/>
<polygon fill="black" stroke="black" points="431.9,-390.37 421.33,-389.57 429.09,-396.78 431.9,-390.37"/>
</g>
<!-- 2e9a346b -->
<g id="node2" class="node">
<title>2e9a346b</title>
<polygon fill="#e2e3e5" stroke="black" points="788.75,-821.25 633.25,-821.25 633.25,-785.25 788.75,-785.25 788.75,-821.25"/>
<text xml:space="preserve" text-anchor="middle" x="711" y="-798.2" font-family="Times,serif" font-size="14.00">SS_Couples_May_Marry</text>
</g>
<!-- var_67ca1f55 -->
<g id="node24" class="node">
<title>var_67ca1f55</title>
<polygon fill="#e2e3e5" stroke="black" points="1405.25,-315.5 1132.75,-315.5 1132.75,-258 1405.25,-258 1405.25,-315.5"/>
<text xml:space="preserve" text-anchor="middle" x="1269" y="-298.2" font-family="Times,serif" font-size="14.00">SS_Couples_May_Marry</text>
<text xml:space="preserve" text-anchor="middle" x="1269" y="-281.7" font-family="Times,serif" font-size="14.00">(claim: Same&#45;sex couples have marriage right)</text>
<text xml:space="preserve" text-anchor="middle" x="1269" y="-265.2" font-family="Times,serif" font-size="14.00">= unknown</text>
</g>
<!-- 2e9a346b&#45;&gt;var_67ca1f55 -->
<g id="edge16" class="edge">
<title>2e9a346b&#45;&gt;var_67ca1f55</title>
<path fill="none" stroke="black" stroke-dasharray="1,5" d="M789.24,-791.42C904.64,-773.22 1107,-731.81 1107,-665.25 1107,-665.25 1107,-665.25 1107,-369.5 1107,-345.09 1121.85,-327.96 1142.55,-315.95"/>
</g>
<!-- 4814698b -->
<g id="node3" class="node">
<title>4814698b</title>
<polygon fill="#e2e3e5" stroke="black" points="631,-896.75 564.17,-878.75 631,-860.75 697.83,-878.75 631,-896.75"/>
<text xml:space="preserve" text-anchor="middle" x="631" y="-873.7" font-family="Times,serif" font-size="14.00">IMPLIES</text>
</g>
<!-- 4814698b&#45;&gt;2e9a346b -->
<g id="edge6" class="edge">
<title>4814698b&#45;&gt;2e9a346b</title>
<path fill="none" stroke="black" d="M645.67,-864.27C656.3,-854.5 670.98,-841.02 683.74,-829.3"/>
<polygon fill="black" stroke="black" points="686.07,-831.9 691.07,-822.56 681.34,-826.75 686.07,-831.9"/>
</g>
<!-- 9744468f -->
<g id="node7" class="node">
<title>9744468f</title>
<ellipse fill="#d4edda" stroke="black" cx="588" cy="-803.25" rx="27" ry="18"/>
<text xml:space="preserve" text-anchor="middle" x="588" y="-797.45" font-family="Times,serif" font-size="14.00">ⓕ</text>
</g>
<!-- 4814698b&#45;&gt;9744468f -->
<g id="edge3" class="edge">
<title>4814698b&#45;&gt;9744468f</title>
<path fill="none" stroke="black" d="M622.3,-862.88C616.83,-853.53 609.63,-841.22 603.23,-830.29"/>
<polygon fill="black" stroke="black" points="606.27,-828.55 598.2,-821.68 600.23,-832.08 606.27,-828.55"/>
</g>
<!-- 5ac4e976 -->
<g id="node4" class="node">
<title>5ac4e976</title>
<polygon fill="#d4edda" stroke="black" points="781.88,-606.75 618.12,-606.75 618.12,-570.75 781.88,-570.75 781.88,-606.75"/>
<text xml:space="preserve" text-anchor="middle" x="700" y="-583.7" font-family="Times,serif" font-size="14.00">Exclusion_Burdens_Rights</text>
</g>
<!-- var_ab418381 -->
<g id="node28" class="node">
<title>var_ab418381</title>
<polygon fill="#d4edda" stroke="black" points="1078.62,-483 805.38,-483 805.38,-425.5 1078.62,-425.5 1078.62,-483"/>
<text xml:space="preserve" text-anchor="middle" x="942" y="-465.7" font-family="Times,serif" font-size="14.00">Exclusion_Burdens_Rights</text>
<text xml:space="preserve" text-anchor="middle" x="942" y="-449.2" font-family="Times,serif" font-size="14.00">(claim: Exclusion burdens liberty and equality)</text>
<text xml:space="preserve" text-anchor="middle" x="942" y="-432.7" font-family="Times,serif" font-size="14.00">= true</text>
</g>
<!-- 5ac4e976&#45;&gt;var_ab418381 -->
<g id="edge17" class="edge">
<title>5ac4e976&#45;&gt;var_ab418381</title>
<path fill="none" stroke="black" stroke-dasharray="1,5" d="M731.89,-570.29C772.32,-548.16 842.53,-509.71 890.57,-483.41"/>
</g>
<!-- var_d9520490 -->
<g id="node29" class="node">
<title>var_d9520490</title>
<polygon fill="#d4edda" stroke="black" points="659.75,-315.5 474.25,-315.5 474.25,-258 659.75,-258 659.75,-315.5"/>
<text xml:space="preserve" text-anchor="middle" x="567" y="-298.2" font-family="Times,serif" font-size="14.00">Reasons_Apply_Equally</text>
<text xml:space="preserve" text-anchor="middle" x="567" y="-281.7" font-family="Times,serif" font-size="14.00">(claim: Reasons apply equally)</text>
<text xml:space="preserve" text-anchor="middle" x="567" y="-265.2" font-family="Times,serif" font-size="14.00">= true</text>
</g>
<!-- 711407c3&#45;&gt;var_d9520490 -->
<g id="edge18" class="edge">
<title>711407c3&#45;&gt;var_d9520490</title>
<path fill="none" stroke="black" stroke-dasharray="1,5" d="M567,-352.16C567,-341.66 567,-328.02 567,-316"/>
</g>
<!-- 8197dfd2 -->
<g id="node6" class="node">
<title>8197dfd2</title>
<polygon fill="#d4edda" stroke="black" points="588,-682.25 544.33,-664.25 588,-646.25 631.67,-664.25 588,-682.25"/>
<text xml:space="preserve" text-anchor="middle" x="588" y="-659.2" font-family="Times,serif" font-size="14.00">AND</text>
</g>
<!-- 8197dfd2&#45;&gt;5ac4e976 -->
<g id="edge7" class="edge">
<title>8197dfd2&#45;&gt;5ac4e976</title>
<path fill="none" stroke="black" d="M604.05,-652.72C619.64,-642.49 643.86,-626.59 664.06,-613.33"/>
<polygon fill="black" stroke="black" points="665.9,-616.32 672.34,-607.9 662.06,-610.46 665.9,-616.32"/>
</g>
<!-- bd5889da -->
<g id="node8" class="node">
<title>bd5889da</title>
<ellipse fill="#d4edda" stroke="black" cx="569" cy="-588.75" rx="27" ry="18"/>
<text xml:space="preserve" text-anchor="middle" x="569" y="-582.95" font-family="Times,serif" font-size="14.00">ⓕ</text>
</g>
<!-- 8197dfd2&#45;&gt;bd5889da -->
<g id="edge4" class="edge">
<title>8197dfd2&#45;&gt;bd5889da</title>
<path fill="none" stroke="black" d="M583.97,-647.66C581.72,-638.97 578.86,-627.87 576.23,-617.73"/>
<polygon fill="black" stroke="black" points="579.69,-617.13 573.8,-608.32 572.91,-618.88 579.69,-617.13"/>
</g>
<!-- 9744468f&#45;&gt;8197dfd2 -->
<g id="edge2" class="edge">
<title>9744468f&#45;&gt;8197dfd2</title>
<path fill="none" stroke="black" d="M588,-784.9C588,-761.94 588,-721.18 588,-693.69"/>
<polygon fill="black" stroke="black" points="591.5,-693.97 588,-683.97 584.5,-693.97 591.5,-693.97"/>
</g>
<!-- bd5889da&#45;&gt;1492ed96 -->
<g id="edge1" class="edge">
<title>bd5889da&#45;&gt;1492ed96</title>
<path fill="none" stroke="black" d="M568.74,-570.43C568.41,-548.41 567.83,-510.09 567.43,-483.74"/>
<polygon fill="black" stroke="black" points="570.94,-484.04 567.28,-474.09 563.94,-484.14 570.94,-484.04"/>
</g>
<!-- var_9e33915f -->
<g id="node27" class="node">
<title>var_9e33915f</title>
<polygon fill="#d4edda" stroke="black" points="415.12,-315.5 216.88,-315.5 216.88,-258 415.12,-258 415.12,-315.5"/>
<text xml:space="preserve" text-anchor="middle" x="316" y="-298.2" font-family="Times,serif" font-size="14.00">Marriage_Fundamental</text>
<text xml:space="preserve" text-anchor="middle" x="316" y="-281.7" font-family="Times,serif" font-size="14.00">(claim: Marriage is fundamental)</text>
<text xml:space="preserve" text-anchor="middle" x="316" y="-265.2" font-family="Times,serif" font-size="14.00">= true</text>
</g>
<!-- eae25b34&#45;&gt;var_9e33915f -->
<g id="edge19" class="edge">
<title>eae25b34&#45;&gt;var_9e33915f</title>
<path fill="none" stroke="black" stroke-dasharray="1,5" d="M366.43,-352.16C358.21,-341.66 347.53,-328.02 338.11,-316"/>
</g>
<!-- 55e04b2a_anchor -->
<!-- 01f553c9 -->
<g id="node11" class="node">
<title>01f553c9</title>
<ellipse fill="#e2e3e5" stroke="black" cx="1861" cy="-588.75" rx="27" ry="18"/>
<text xml:space="preserve" text-anchor="middle" x="1861" y="-582.95" font-family="Times,serif" font-size="14.00">ⓕ</text>
</g>
<!-- 2fece549 -->
<g id="node12" class="node">
<title>2fece549</title>
<polygon fill="#e2e3e5" stroke="black" points="1808,-472.25 1764.33,-454.25 1808,-436.25 1851.67,-454.25 1808,-472.25"/>
<text xml:space="preserve" text-anchor="middle" x="1808" y="-449.2" font-family="Times,serif" font-size="14.00">AND</text>
</g>
<!-- 01f553c9&#45;&gt;2fece549 -->
<g id="edge10" class="edge">
<title>01f553c9&#45;&gt;2fece549</title>
<path fill="none" stroke="black" d="M1854.29,-570.97C1845.17,-548.18 1828.8,-507.25 1818.17,-480.68"/>
<polygon fill="black" stroke="black" points="1821.53,-479.65 1814.57,-471.67 1815.03,-482.25 1821.53,-479.65"/>
</g>
<!-- 35d1774b -->
<g id="node13" class="node">
<title>35d1774b</title>
<polygon fill="#e2e3e5" stroke="black" points="1896.62,-388.5 1719.38,-388.5 1719.38,-352.5 1896.62,-352.5 1896.62,-388.5"/>
<text xml:space="preserve" text-anchor="middle" x="1808" y="-365.45" font-family="Times,serif" font-size="14.00">No_Basis_Deny_Recognition</text>
</g>
<!-- 2fece549&#45;&gt;35d1774b -->
<g id="edge12" class="edge">
<title>2fece549&#45;&gt;35d1774b</title>
<path fill="none" stroke="black" d="M1808,-435.91C1808,-425.51 1808,-412.02 1808,-400.07"/>
<polygon fill="black" stroke="black" points="1811.5,-400.33 1808,-390.33 1804.5,-400.33 1811.5,-400.33"/>
</g>
<!-- 6a458c37 -->
<g id="node15" class="node">
<title>6a458c37</title>
<polygon fill="#e2e3e5" stroke="black" points="1701.75,-388.5 1546.25,-388.5 1546.25,-352.5 1701.75,-352.5 1701.75,-388.5"/>
<text xml:space="preserve" text-anchor="middle" x="1624" y="-365.45" font-family="Times,serif" font-size="14.00">SS_Couples_May_Marry</text>
</g>
<!-- 2fece549&#45;&gt;6a458c37 -->
<g id="edge11" class="edge">
<title>2fece549&#45;&gt;6a458c37</title>
<path fill="none" stroke="black" d="M1787.61,-444.19C1760.24,-432.03 1710.74,-410.04 1673.34,-393.42"/>
<polygon fill="black" stroke="black" points="1675.08,-390.36 1664.52,-389.5 1672.23,-396.76 1675.08,-390.36"/>
</g>
<!-- var_ebc3249b -->
<g id="node30" class="node">
<title>var_ebc3249b</title>
<polygon fill="#e2e3e5" stroke="black" points="1822.88,-315.5 1593.12,-315.5 1593.12,-258 1822.88,-258 1822.88,-315.5"/>
<text xml:space="preserve" text-anchor="middle" x="1708" y="-298.2" font-family="Times,serif" font-size="14.00">No_Basis_Deny_Recognition</text>
<text xml:space="preserve" text-anchor="middle" x="1708" y="-281.7" font-family="Times,serif" font-size="14.00">(claim: Recognition lacks lawful basis)</text>
<text xml:space="preserve" text-anchor="middle" x="1708" y="-265.2" font-family="Times,serif" font-size="14.00">= unknown</text>
</g>
<!-- 35d1774b&#45;&gt;var_ebc3249b -->
<g id="edge20" class="edge">
<title>35d1774b&#45;&gt;var_ebc3249b</title>
<path fill="none" stroke="black" stroke-dasharray="1,5" d="M1786.79,-352.16C1773.95,-341.66 1757.26,-328.02 1742.55,-316"/>
</g>
<!-- 4c2a15fe -->
<g id="node14" class="node">
<title>4c2a15fe</title>
<polygon fill="#e2e3e5" stroke="black" points="1933,-682.25 1866.17,-664.25 1933,-646.25 1999.83,-664.25 1933,-682.25"/>
<text xml:space="preserve" text-anchor="middle" x="1933" y="-659.2" font-family="Times,serif" font-size="14.00">IMPLIES</text>
</g>
<!-- 4c2a15fe&#45;&gt;01f553c9 -->
<g id="edge9" class="edge">
<title>4c2a15fe&#45;&gt;01f553c9</title>
<path fill="none" stroke="black" d="M1919.46,-649.43C1909.2,-638.95 1894.88,-624.34 1882.99,-612.2"/>
<polygon fill="black" stroke="black" points="1885.78,-610.04 1876.28,-605.35 1880.78,-614.94 1885.78,-610.04"/>
</g>
<!-- b28fad68 -->
<g id="node16" class="node">
<title>b28fad68</title>
<polygon fill="#e2e3e5" stroke="black" points="2172,-606.75 1976,-606.75 1976,-570.75 2172,-570.75 2172,-606.75"/>
<text xml:space="preserve" text-anchor="middle" x="2074" y="-583.7" font-family="Times,serif" font-size="14.00">States_Must_License_Recognize</text>
</g>
<!-- 4c2a15fe&#45;&gt;b28fad68 -->
<g id="edge13" class="edge">
<title>4c2a15fe&#45;&gt;b28fad68</title>
<path fill="none" stroke="black" d="M1955.03,-651.77C1975.18,-641.26 2005.57,-625.42 2030.59,-612.38"/>
<polygon fill="black" stroke="black" points="2031.99,-615.59 2039.24,-607.87 2028.76,-609.39 2031.99,-615.59"/>
</g>
<!-- 6a458c37&#45;&gt;var_67ca1f55 -->
<g id="edge21" class="edge">
<title>6a458c37&#45;&gt;var_67ca1f55</title>
<path fill="none" stroke="black" stroke-dasharray="1,5" d="M1563.13,-352.06C1553.41,-349.43 1543.45,-346.82 1534,-344.5 1492.42,-334.28 1446.92,-324.16 1405.53,-315.35"/>
</g>
<!-- var_9138c85e -->
<g id="node26" class="node">
<title>var_9138c85e</title>
<polygon fill="#e2e3e5" stroke="black" points="2453.5,-483 2206.5,-483 2206.5,-425.5 2453.5,-425.5 2453.5,-483"/>
<text xml:space="preserve" text-anchor="middle" x="2330" y="-465.7" font-family="Times,serif" font-size="14.00">States_Must_License_Recognize</text>
<text xml:space="preserve" text-anchor="middle" x="2330" y="-449.2" font-family="Times,serif" font-size="14.00">(claim: States must license and recognize)</text>
<text xml:space="preserve" text-anchor="middle" x="2330" y="-432.7" font-family="Times,serif" font-size="14.00">= unknown</text>
</g>
<!-- b28fad68&#45;&gt;var_9138c85e -->
<g id="edge22" class="edge">
<title>b28fad68&#45;&gt;var_9138c85e</title>
<path fill="none" stroke="black" stroke-dasharray="1,5" d="M2111.22,-570.35C2136.9,-558.2 2171.73,-541.4 2202,-525.75 2228.03,-512.29 2256.62,-496.63 2280.17,-483.48"/>
</g>
<!-- 5c5a9c0d_anchor -->
<!-- 0dd0baa8 -->
<g id="node18" class="node">
<title>0dd0baa8</title>
<polygon fill="#e2e3e5" stroke="black" points="1521.62,-388.5 1344.38,-388.5 1344.38,-352.5 1521.62,-352.5 1521.62,-388.5"/>
<text xml:space="preserve" text-anchor="middle" x="1433" y="-365.45" font-family="Times,serif" font-size="14.00">No_Basis_Deny_Recognition</text>
</g>
<!-- 0dd0baa8&#45;&gt;var_ebc3249b -->
<g id="edge23" class="edge">
<title>0dd0baa8&#45;&gt;var_ebc3249b</title>
<path fill="none" stroke="black" stroke-dasharray="1,5" d="M1491.66,-352.06C1526.99,-341.56 1572.82,-327.94 1613.19,-315.93"/>
</g>
<!-- 657c46af -->
<g id="node19" class="node">
<title>657c46af</title>
<polygon fill="#e2e3e5" stroke="black" points="1326.75,-388.5 1171.25,-388.5 1171.25,-352.5 1326.75,-352.5 1326.75,-388.5"/>
<text xml:space="preserve" text-anchor="middle" x="1249" y="-365.45" font-family="Times,serif" font-size="14.00">SS_Couples_May_Marry</text>
</g>
<!-- 657c46af&#45;&gt;var_67ca1f55 -->
<g id="edge24" class="edge">
<title>657c46af&#45;&gt;var_67ca1f55</title>
<path fill="none" stroke="black" stroke-dasharray="1,5" d="M1253.24,-352.16C1255.81,-341.66 1259.15,-328.02 1262.09,-316"/>
</g>
<!-- 720e4235 -->
<g id="node20" class="node">
<title>720e4235</title>
<polygon fill="#e2e3e5" stroke="black" points="1303,-472.25 1236.17,-454.25 1303,-436.25 1369.83,-454.25 1303,-472.25"/>
<text xml:space="preserve" text-anchor="middle" x="1303" y="-449.2" font-family="Times,serif" font-size="14.00">IMPLIES</text>
</g>
<!-- 720e4235&#45;&gt;0dd0baa8 -->
<g id="edge15" class="edge">
<title>720e4235&#45;&gt;0dd0baa8</title>
<path fill="none" stroke="black" d="M1322.46,-441.01C1341.76,-428.88 1371.82,-409.97 1395.73,-394.94"/>
<polygon fill="black" stroke="black" points="1397.33,-398.07 1403.93,-389.78 1393.6,-392.14 1397.33,-398.07"/>
</g>
<!-- 720e4235&#45;&gt;657c46af -->
<g id="edge14" class="edge">
<title>720e4235&#45;&gt;657c46af</title>
<path fill="none" stroke="black" d="M1293.35,-438.63C1285.92,-427.4 1275.47,-411.58 1266.58,-398.11"/>
<polygon fill="black" stroke="black" points="1269.71,-396.5 1261.28,-390.09 1263.87,-400.36 1269.71,-396.5"/>
</g>
<!-- b2df5124_anchor -->
<!-- var_21c0740d -->
<g id="node22" class="node">
<title>var_21c0740d</title>
<polygon fill="lightblue" stroke="black" points="2219.38,-823.75 2112.62,-823.75 2112.62,-782.75 2219.38,-782.75 2219.38,-823.75"/>
<text xml:space="preserve" text-anchor="middle" x="2166" y="-806.45" font-family="Times,serif" font-size="14.00">P2</text>
<text xml:space="preserve" text-anchor="middle" x="2166" y="-789.95" font-family="Times,serif" font-size="14.00">(premise&#45;bound)</text>
</g>
<!-- var_21c0740d&#45;&gt;5c5a9c0d_anchor -->
<g id="edge25" class="edge">
<title>var_21c0740d&#45;&gt;5c5a9c0d_anchor</title>
<path fill="none" stroke="blue" stroke-width="2" d="M2166,-782.33C2166,-773.68 2166,-762.91 2166,-751.43"/>
<polygon fill="blue" stroke="blue" stroke-width="2" points="2169.5,-753.27 2166,-743.27 2162.5,-753.27 2169.5,-753.27"/>
<text xml:space="preserve" text-anchor="middle" x="2173.12" y="-751.45" font-family="Times,serif" font-size="14.00">P2</text>
</g>
<!-- var_65be93c1 -->
<g id="node23" class="node">
<title>var_65be93c1</title>
<polygon fill="lightblue" stroke="black" points="1512.38,-609.25 1405.62,-609.25 1405.62,-568.25 1512.38,-568.25 1512.38,-609.25"/>
<text xml:space="preserve" text-anchor="middle" x="1459" y="-591.95" font-family="Times,serif" font-size="14.00">P1</text>
<text xml:space="preserve" text-anchor="middle" x="1459" y="-575.45" font-family="Times,serif" font-size="14.00">(premise&#45;bound)</text>
</g>
<!-- var_65be93c1&#45;&gt;b2df5124_anchor -->
<g id="edge26" class="edge">
<title>var_65be93c1&#45;&gt;b2df5124_anchor</title>
<path fill="none" stroke="blue" stroke-width="2" d="M1459,-567.91C1459,-559.22 1459,-548.39 1459,-536.91"/>
<polygon fill="blue" stroke="blue" stroke-width="2" points="1462.5,-538.78 1459,-528.78 1455.5,-538.78 1462.5,-538.78"/>
<text xml:space="preserve" text-anchor="middle" x="1466.12" y="-536.95" font-family="Times,serif" font-size="14.00">P1</text>
</g>
<!-- claim_67ca1f55 -->
<g id="node31" class="node">
<title>claim_67ca1f55</title>
<polygon fill="lightyellow" stroke="none" points="1146.75,-44.75 1146.75,-148.75 1507.25,-148.75 1507.25,-44.75 1146.75,-44.75"/>
<text xml:space="preserve" text-anchor="start" x="1253.12" y="-129.45" font-family="Times,serif" font-weight="bold" font-size="14.00">SS_Couples_May_Marry</text>
<text xml:space="preserve" text-anchor="start" x="1222.38" y="-100.95" font-family="Times,serif" font-style="italic" font-size="14.00">Same&#45;sex couples have marriage right</text>
<text xml:space="preserve" text-anchor="start" x="1153.75" y="-72" font-family="Times,serif" font-size="14.00">Same&#45;sex couples may exercise the fundamental right to marry</text>
<text xml:space="preserve" text-anchor="start" x="1153.75" y="-55.5" font-family="Times,serif" font-size="14.00">under the Fourteenth Amendment.</text>
<polygon fill="none" stroke="black" points="1146.75,-44.75 1146.75,-148.75 1507.25,-148.75 1507.25,-44.75 1146.75,-44.75"/>
</g>
<!-- var_67ca1f55&#45;&gt;claim_67ca1f55 -->
<!-- var_773f95c3 -->
<g id="node25" class="node">
<title>var_773f95c3</title>
<polygon fill="lightblue" stroke="black" points="827.38,-1038.25 720.62,-1038.25 720.62,-997.25 827.38,-997.25 827.38,-1038.25"/>
<text xml:space="preserve" text-anchor="middle" x="774" y="-1020.95" font-family="Times,serif" font-size="14.00">P0</text>
<text xml:space="preserve" text-anchor="middle" x="774" y="-1004.45" font-family="Times,serif" font-size="14.00">(premise&#45;bound)</text>
</g>
<!-- var_773f95c3&#45;&gt;55e04b2a_anchor -->
<g id="edge27" class="edge">
<title>var_773f95c3&#45;&gt;55e04b2a_anchor</title>
<path fill="none" stroke="blue" stroke-width="2" d="M774,-996.83C774,-988.18 774,-977.41 774,-965.93"/>
<polygon fill="blue" stroke="blue" stroke-width="2" points="777.5,-967.77 774,-957.77 770.5,-967.77 777.5,-967.77"/>
<text xml:space="preserve" text-anchor="middle" x="781.12" y="-965.95" font-family="Times,serif" font-size="14.00">P0</text>
</g>
<!-- claim_9138c85e -->
<g id="node32" class="node">
<title>claim_9138c85e</title>
<polygon fill="lightyellow" stroke="none" points="1909,-36.5 1909,-157 2265,-157 2265,-36.5 1909,-36.5"/>
<text xml:space="preserve" text-anchor="start" x="1993.25" y="-137.7" font-family="Times,serif" font-weight="bold" font-size="14.00">States_Must_License_Recognize</text>
<text xml:space="preserve" text-anchor="start" x="1995.5" y="-109.2" font-family="Times,serif" font-style="italic" font-size="14.00">States must license and recognize</text>
<text xml:space="preserve" text-anchor="start" x="1916" y="-80.25" font-family="Times,serif" font-size="14.00">States must license marriages between two people of the same</text>
<text xml:space="preserve" text-anchor="start" x="1916" y="-63.75" font-family="Times,serif" font-size="14.00">sex and must recognize lawful same&#45;sex marriages performed</text>
<text xml:space="preserve" text-anchor="start" x="1916" y="-47.25" font-family="Times,serif" font-size="14.00">in another State.</text>
<polygon fill="none" stroke="black" points="1909,-36.5 1909,-157 2265,-157 2265,-36.5 1909,-36.5"/>
</g>
<!-- var_9138c85e&#45;&gt;claim_9138c85e -->
<!-- claim_9e33915f -->
<g id="node33" class="node">
<title>claim_9e33915f</title>
<polygon fill="lightyellow" stroke="none" points="27.75,-44.75 27.75,-148.75 358.25,-148.75 358.25,-44.75 27.75,-44.75"/>
<text xml:space="preserve" text-anchor="start" x="122.88" y="-129.45" font-family="Times,serif" font-weight="bold" font-size="14.00">Marriage_Fundamental</text>
<text xml:space="preserve" text-anchor="start" x="124.75" y="-100.95" font-family="Times,serif" font-style="italic" font-size="14.00">Marriage is fundamental</text>
<text xml:space="preserve" text-anchor="start" x="34.75" y="-72" font-family="Times,serif" font-size="14.00">The right to marry is a fundamental right protected by the</text>
<text xml:space="preserve" text-anchor="start" x="34.75" y="-55.5" font-family="Times,serif" font-size="14.00">Constitution under the Fourteenth Amendment.</text>
<polygon fill="none" stroke="black" points="27.75,-44.75 27.75,-148.75 358.25,-148.75 358.25,-44.75 27.75,-44.75"/>
</g>
<!-- var_9e33915f&#45;&gt;claim_9e33915f -->
<!-- claim_ab418381 -->
<g id="node34" class="node">
<title>claim_ab418381</title>
<polygon fill="lightyellow" stroke="none" points="775.38,-36.5 775.38,-157 1112.62,-157 1112.62,-36.5 775.38,-36.5"/>
<text xml:space="preserve" text-anchor="start" x="866" y="-137.7" font-family="Times,serif" font-weight="bold" font-size="14.00">Exclusion_Burdens_Rights</text>
<text xml:space="preserve" text-anchor="start" x="838.62" y="-109.2" font-family="Times,serif" font-style="italic" font-size="14.00">Exclusion burdens liberty and equality</text>
<text xml:space="preserve" text-anchor="start" x="782.38" y="-80.25" font-family="Times,serif" font-size="14.00">State laws excluding same&#45;sex couples from civil marriage</text>
<text xml:space="preserve" text-anchor="start" x="782.38" y="-63.75" font-family="Times,serif" font-size="14.00">burden their liberty and abridge central precepts of</text>
<text xml:space="preserve" text-anchor="start" x="782.38" y="-47.25" font-family="Times,serif" font-size="14.00">equality.</text>
<polygon fill="none" stroke="black" points="775.38,-36.5 775.38,-157 1112.62,-157 1112.62,-36.5 775.38,-36.5"/>
</g>
<!-- var_ab418381&#45;&gt;claim_ab418381 -->
<!-- claim_d9520490 -->
<g id="node35" class="node">
<title>claim_d9520490</title>
<polygon fill="lightyellow" stroke="none" points="392.75,-44.75 392.75,-148.75 741.25,-148.75 741.25,-44.75 392.75,-44.75"/>
<text xml:space="preserve" text-anchor="start" x="496.5" y="-129.45" font-family="Times,serif" font-weight="bold" font-size="14.00">Reasons_Apply_Equally</text>
<text xml:space="preserve" text-anchor="start" x="505.88" y="-100.95" font-family="Times,serif" font-style="italic" font-size="14.00">Reasons apply equally</text>
<text xml:space="preserve" text-anchor="start" x="399.75" y="-72" font-family="Times,serif" font-size="14.00">The constitutional reasons that make marriage a fundamental</text>
<text xml:space="preserve" text-anchor="start" x="399.75" y="-55.5" font-family="Times,serif" font-size="14.00">right apply with equal force to same&#45;sex couples.</text>
<polygon fill="none" stroke="black" points="392.75,-44.75 392.75,-148.75 741.25,-148.75 741.25,-44.75 392.75,-44.75"/>
</g>
<!-- var_d9520490&#45;&gt;claim_d9520490 -->
<!-- claim_ebc3249b -->
<g id="node36" class="node">
<title>claim_ebc3249b</title>
<polygon fill="lightyellow" stroke="none" points="1540.88,-20 1540.88,-173.5 1875.12,-173.5 1875.12,-20 1540.88,-20"/>
<text xml:space="preserve" text-anchor="start" x="1625.12" y="-154.2" font-family="Times,serif" font-weight="bold" font-size="14.00">No_Basis_Deny_Recognition</text>
<text xml:space="preserve" text-anchor="start" x="1625.12" y="-125.7" font-family="Times,serif" font-style="italic" font-size="14.00">Recognition lacks lawful basis</text>
<text xml:space="preserve" text-anchor="start" x="1547.88" y="-96.75" font-family="Times,serif" font-size="14.00">If same&#45;sex couples may exercise the fundamental right to</text>
<text xml:space="preserve" text-anchor="start" x="1547.88" y="-80.25" font-family="Times,serif" font-size="14.00">marry in all States, then no lawful basis exists for a State</text>
<text xml:space="preserve" text-anchor="start" x="1547.88" y="-63.75" font-family="Times,serif" font-size="14.00">to refuse recognition to a lawful same&#45;sex marriage</text>
<text xml:space="preserve" text-anchor="start" x="1547.88" y="-47.25" font-family="Times,serif" font-size="14.00">performed in another State because of its same&#45;sex</text>
<text xml:space="preserve" text-anchor="start" x="1547.88" y="-30.75" font-family="Times,serif" font-size="14.00">character.</text>
<polygon fill="none" stroke="black" points="1540.88,-20 1540.88,-173.5 1875.12,-173.5 1875.12,-20 1540.88,-20"/>
</g>
<!-- var_ebc3249b&#45;&gt;claim_ebc3249b -->
</g>
</svg>
