<?xml version="1.0" encoding="UTF-8" standalone="no"?>
<!DOCTYPE svg PUBLIC "-//W3C//DTD SVG 1.1//EN"
 "http://www.w3.org/Graphics/SVG/1.1/DTD/svg11.dtd">
<!-- Generated by graphviz version 14.1.3 (20260303.0454)
 -->
<!-- Title: argument Pages: 1 -->
<svg width="3192pt" height="841pt"
 viewBox="0.00 0.00 3192.00 841.00" xmlns="http://www.w3.org/2000/svg" xmlns:xlink="http://www.w3.org/1999/xlink">
<g id="graph0" class="graph" transform="scale(1 1) rotate(0) translate(4 837)">
<title>argument</title>
<polygon fill="white" stroke="none" points="-4,4 -4,-837 3188,-837 3188,4 -4,4"/>
<text xml:space="preserve" text-anchor="middle" x="1592" y="-813.8" font-family="Times,serif" font-size="16.00">Socrates argues against escape</text>
<g id="clust1" class="cluster">
<title>cluster_17d15d47</title>
<polygon fill="none" stroke="#666666" stroke-dasharray="5,2" points="2944,-276.25 2944,-373.75 3136,-373.75 3136,-276.25 2944,-276.25"/>
<text xml:space="preserve" text-anchor="middle" x="3040" y="-354.55" font-family="Times,serif" font-size="16.00">Wrong is never permissible</text>
<text xml:space="preserve" text-anchor="middle" x="3040" y="-335.8" font-family="Times,serif" font-size="16.00">No_Wrongdoing</text>
</g>
<g id="clust2" class="cluster">
<title>cluster_47c97752</title>
<polygon fill="none" stroke="red" stroke-width="2" points="243,-276.25 243,-508.25 660,-508.25 660,-276.25 243,-276.25"/>
<text xml:space="preserve" text-anchor="middle" x="451.5" y="-489.05" font-family="Times,serif" font-size="16.00">Wrongful escape should not be done</text>
<text xml:space="preserve" text-anchor="middle" x="451.5" y="-470.3" font-family="Times,serif" font-size="16.00">(Escape_Is_Wrong → Should_Not_Escape) &#160;[CONCLUSION]</text>
</g>
<g id="clust3" class="cluster">
<title>cluster_9b064e51</title>
<polygon fill="none" stroke="#666666" stroke-dasharray="5,2" points="2627,-276.25 2627,-373.75 2812,-373.75 2812,-276.25 2627,-276.25"/>
<text xml:space="preserve" text-anchor="middle" x="2719.5" y="-354.55" font-family="Times,serif" font-size="16.00">Retaliation remains wrong</text>
<text xml:space="preserve" text-anchor="middle" x="2719.5" y="-335.8" font-family="Times,serif" font-size="16.00">No_Retaliation</text>
</g>
<g id="clust4" class="cluster">
<title>cluster_b144c5ad</title>
<polygon fill="none" stroke="#666666" stroke-dasharray="5,2" points="679,-276.25 679,-722.75 1183,-722.75 1183,-276.25 679,-276.25"/>
<text xml:space="preserve" text-anchor="middle" x="931" y="-703.55" font-family="Times,serif" font-size="16.00">Breaking the lawful agreement is wrong</text>
<text xml:space="preserve" text-anchor="middle" x="931" y="-684.8" font-family="Times,serif" font-size="16.00">(((Socrates_Agreed_Laws ∧ Escape_Breaks_Agree)) → Escape_Is_Wrong)</text>
</g>
<g id="clust5" class="cluster">
<title>cluster_e3ebb369</title>
<polygon fill="none" stroke="#666666" stroke-dasharray="5,2" points="1380,-276.25 1380,-722.75 1917,-722.75 1917,-276.25 1380,-276.25"/>
<text xml:space="preserve" text-anchor="middle" x="1648.5" y="-703.55" font-family="Times,serif" font-size="16.00">Socrates consented by remaining</text>
<text xml:space="preserve" text-anchor="middle" x="1648.5" y="-684.8" font-family="Times,serif" font-size="16.00">(((Remain_Implies_Consent ∧ Socrates_Remained)) → Socrates_Agreed_Laws)</text>
</g>
<g id="clust6" class="cluster">
<title>cluster_eab0ac04</title>
<polygon fill="none" stroke="#666666" stroke-dasharray="5,2" points="2255,-276.25 2255,-373.75 2450,-373.75 2450,-276.25 2255,-276.25"/>
<text xml:space="preserve" text-anchor="middle" x="2352.5" y="-354.55" font-family="Times,serif" font-size="16.00">One must honor what is just</text>
<text xml:space="preserve" text-anchor="middle" x="2352.5" y="-335.8" font-family="Times,serif" font-size="16.00">Honor_JustCommit</text>
</g>
<g id="clust7" class="cluster">
<title>cluster_claims</title>
</g>
<!-- d055c753 -->
<g id="node1" class="node">
<title>d055c753</title>
<polygon fill="none" stroke="black" points="3084.75,-320.25 2977.25,-320.25 2977.25,-284.25 3084.75,-284.25 3084.75,-320.25"/>
<text xml:space="preserve" text-anchor="middle" x="3031" y="-297.2" font-family="Times,serif" font-size="14.00">No_Wrongdoing</text>
</g>
<!-- var_162a0574 -->
<g id="node27" class="node">
<title>var_162a0574</title>
<polygon fill="lightyellow" stroke="black" points="3134.25,-247.25 2927.75,-247.25 2927.75,-206.25 3134.25,-206.25 3134.25,-247.25"/>
<text xml:space="preserve" text-anchor="middle" x="3031" y="-229.95" font-family="Times,serif" font-size="14.00">No_Wrongdoing</text>
<text xml:space="preserve" text-anchor="middle" x="3031" y="-213.45" font-family="Times,serif" font-size="14.00">(claim: Wrongdoing is never right)</text>
</g>
<!-- d055c753&#45;&gt;var_162a0574 -->
<g id="edge13" class="edge">
<title>d055c753&#45;&gt;var_162a0574</title>
<path fill="none" stroke="black" stroke-dasharray="1,5" d="M3031,-283.83C3031,-272.96 3031,-258.94 3031,-247.64"/>
</g>
<!-- 17d15d47_anchor -->
<!-- 59a9a3e3 -->
<g id="node3" class="node">
<title>59a9a3e3</title>
<polygon fill="none" stroke="black" points="556.5,-320.25 441.5,-320.25 441.5,-284.25 556.5,-284.25 556.5,-320.25"/>
<text xml:space="preserve" text-anchor="middle" x="499" y="-297.2" font-family="Times,serif" font-size="14.00">Escape_Is_Wrong</text>
</g>
<!-- var_502995d0 -->
<g id="node29" class="node">
<title>var_502995d0</title>
<polygon fill="lightyellow" stroke="black" points="617.88,-247.25 454.12,-247.25 454.12,-206.25 617.88,-206.25 617.88,-247.25"/>
<text xml:space="preserve" text-anchor="middle" x="536" y="-229.95" font-family="Times,serif" font-size="14.00">Escape_Is_Wrong</text>
<text xml:space="preserve" text-anchor="middle" x="536" y="-213.45" font-family="Times,serif" font-size="14.00">(claim: Escaping is wrong)</text>
</g>
<!-- 59a9a3e3&#45;&gt;var_502995d0 -->
<g id="edge14" class="edge">
<title>59a9a3e3&#45;&gt;var_502995d0</title>
<path fill="none" stroke="black" stroke-dasharray="1,5" d="M507.77,-283.83C513.24,-272.96 520.3,-258.94 525.99,-247.64"/>
</g>
<!-- 776b139b -->
<g id="node4" class="node">
<title>776b139b</title>
<polygon fill="none" stroke="black" points="378,-454.75 311.17,-436.75 378,-418.75 444.83,-436.75 378,-454.75"/>
<text xml:space="preserve" text-anchor="middle" x="378" y="-431.7" font-family="Times,serif" font-size="14.00">IMPLIES</text>
</g>
<!-- 776b139b&#45;&gt;59a9a3e3 -->
<g id="edge1" class="edge">
<title>776b139b&#45;&gt;59a9a3e3</title>
<path fill="none" stroke="black" d="M390.49,-422.07C410.54,-400.11 450.23,-356.66 475.64,-328.83"/>
<polygon fill="black" stroke="black" points="478.17,-331.25 482.33,-321.5 473,-326.53 478.17,-331.25"/>
</g>
<!-- 9a3a38e9 -->
<g id="node5" class="node">
<title>9a3a38e9</title>
<polygon fill="none" stroke="black" points="393.12,-320.25 266.88,-320.25 266.88,-284.25 393.12,-284.25 393.12,-320.25"/>
<text xml:space="preserve" text-anchor="middle" x="330" y="-297.2" font-family="Times,serif" font-size="14.00">Should_Not_Escape</text>
</g>
<!-- 776b139b&#45;&gt;9a3a38e9 -->
<g id="edge2" class="edge">
<title>776b139b&#45;&gt;9a3a38e9</title>
<path fill="none" stroke="black" d="M372.31,-420.03C364.4,-398.2 349.96,-358.34 340.17,-331.33"/>
<polygon fill="black" stroke="black" points="343.51,-330.26 336.81,-322.05 336.93,-332.64 343.51,-330.26"/>
</g>
<!-- var_f0ff78e1 -->
<g id="node39" class="node">
<title>var_f0ff78e1</title>
<polygon fill="lightyellow" stroke="black" points="401.75,-247.25 192.25,-247.25 192.25,-206.25 401.75,-206.25 401.75,-247.25"/>
<text xml:space="preserve" text-anchor="middle" x="297" y="-229.95" font-family="Times,serif" font-size="14.00">Should_Not_Escape</text>
<text xml:space="preserve" text-anchor="middle" x="297" y="-213.45" font-family="Times,serif" font-size="14.00">(claim: Socrates should not escape)</text>
</g>
<!-- 9a3a38e9&#45;&gt;var_f0ff78e1 -->
<g id="edge15" class="edge">
<title>9a3a38e9&#45;&gt;var_f0ff78e1</title>
<path fill="none" stroke="black" stroke-dasharray="1,5" d="M322.18,-283.83C317.3,-272.96 311.01,-258.94 305.93,-247.64"/>
</g>
<!-- 47c97752_anchor -->
<!-- b9a256d0 -->
<g id="node7" class="node">
<title>b9a256d0</title>
<polygon fill="none" stroke="black" points="2759.25,-320.25 2660.75,-320.25 2660.75,-284.25 2759.25,-284.25 2759.25,-320.25"/>
<text xml:space="preserve" text-anchor="middle" x="2710" y="-297.2" font-family="Times,serif" font-size="14.00">No_Retaliation</text>
</g>
<!-- var_52cbb7f8 -->
<g id="node30" class="node">
<title>var_52cbb7f8</title>
<polygon fill="lightyellow" stroke="black" points="2796.75,-247.25 2623.25,-247.25 2623.25,-206.25 2796.75,-206.25 2796.75,-247.25"/>
<text xml:space="preserve" text-anchor="middle" x="2710" y="-229.95" font-family="Times,serif" font-size="14.00">No_Retaliation</text>
<text xml:space="preserve" text-anchor="middle" x="2710" y="-213.45" font-family="Times,serif" font-size="14.00">(claim: Retaliation is wrong)</text>
</g>
<!-- b9a256d0&#45;&gt;var_52cbb7f8 -->
<g id="edge16" class="edge">
<title>b9a256d0&#45;&gt;var_52cbb7f8</title>
<path fill="none" stroke="black" stroke-dasharray="1,5" d="M2710,-283.83C2710,-272.96 2710,-258.94 2710,-247.64"/>
</g>
<!-- 9b064e51_anchor -->
<!-- 210e284e -->
<g id="node9" class="node">
<title>210e284e</title>
<polygon fill="none" stroke="black" points="876,-454.75 832.33,-436.75 876,-418.75 919.67,-436.75 876,-454.75"/>
<text xml:space="preserve" text-anchor="middle" x="876" y="-431.7" font-family="Times,serif" font-size="14.00">AND</text>
</g>
<!-- 3c8e611e -->
<g id="node10" class="node">
<title>3c8e611e</title>
<polygon fill="none" stroke="black" points="945.12,-320.25 806.88,-320.25 806.88,-284.25 945.12,-284.25 945.12,-320.25"/>
<text xml:space="preserve" text-anchor="middle" x="876" y="-297.2" font-family="Times,serif" font-size="14.00">Escape_Breaks_Agree</text>
</g>
<!-- 210e284e&#45;&gt;3c8e611e -->
<g id="edge6" class="edge">
<title>210e284e&#45;&gt;3c8e611e</title>
<path fill="none" stroke="black" d="M876,-418.43C876,-396.41 876,-358.09 876,-331.74"/>
<polygon fill="black" stroke="black" points="879.5,-332.09 876,-322.09 872.5,-332.09 879.5,-332.09"/>
</g>
<!-- a1649664 -->
<g id="node12" class="node">
<title>a1649664</title>
<polygon fill="none" stroke="black" points="1155.12,-320.25 1010.88,-320.25 1010.88,-284.25 1155.12,-284.25 1155.12,-320.25"/>
<text xml:space="preserve" text-anchor="middle" x="1083" y="-297.2" font-family="Times,serif" font-size="14.00">Socrates_Agreed_Laws</text>
</g>
<!-- 210e284e&#45;&gt;a1649664 -->
<g id="edge4" class="edge">
<title>210e284e&#45;&gt;a1649664</title>
<path fill="none" stroke="black" d="M892.59,-425.13C925.75,-403.91 1000.91,-355.79 1046.26,-326.77"/>
<polygon fill="black" stroke="black" points="1047.92,-329.86 1054.45,-321.52 1044.15,-323.96 1047.92,-329.86"/>
</g>
<!-- var_838eb134 -->
<g id="node33" class="node">
<title>var_838eb134</title>
<polygon fill="lightyellow" stroke="black" points="992.38,-247.25 759.62,-247.25 759.62,-206.25 992.38,-206.25 992.38,-247.25"/>
<text xml:space="preserve" text-anchor="middle" x="876" y="-229.95" font-family="Times,serif" font-size="14.00">Escape_Breaks_Agree</text>
<text xml:space="preserve" text-anchor="middle" x="876" y="-213.45" font-family="Times,serif" font-size="14.00">(claim: Escaping breaks the agreement)</text>
</g>
<!-- 3c8e611e&#45;&gt;var_838eb134 -->
<g id="edge17" class="edge">
<title>3c8e611e&#45;&gt;var_838eb134</title>
<path fill="none" stroke="black" stroke-dasharray="1,5" d="M876,-283.83C876,-272.96 876,-258.94 876,-247.64"/>
</g>
<!-- 515b85fa -->
<g id="node11" class="node">
<title>515b85fa</title>
<polygon fill="none" stroke="black" points="803.5,-589.25 688.5,-589.25 688.5,-553.25 803.5,-553.25 803.5,-589.25"/>
<text xml:space="preserve" text-anchor="middle" x="746" y="-566.2" font-family="Times,serif" font-size="14.00">Escape_Is_Wrong</text>
</g>
<!-- 515b85fa&#45;&gt;var_502995d0 -->
<g id="edge18" class="edge">
<title>515b85fa&#45;&gt;var_502995d0</title>
<path fill="none" stroke="black" stroke-dasharray="1,5" d="M746.28,-552.79C746.12,-502.92 738.88,-358.21 664,-276.25 651.66,-262.74 635.16,-252.97 618.12,-245.91"/>
</g>
<!-- var_1151e043 -->
<g id="node25" class="node">
<title>var_1151e043</title>
<polygon fill="lightyellow" stroke="black" points="1378,-247.25 1104,-247.25 1104,-206.25 1378,-206.25 1378,-247.25"/>
<text xml:space="preserve" text-anchor="middle" x="1241" y="-229.95" font-family="Times,serif" font-size="14.00">Socrates_Agreed_Laws</text>
<text xml:space="preserve" text-anchor="middle" x="1241" y="-213.45" font-family="Times,serif" font-size="14.00">(claim: Socrates agreed to obey Athenian laws)</text>
</g>
<!-- a1649664&#45;&gt;var_1151e043 -->
<g id="edge19" class="edge">
<title>a1649664&#45;&gt;var_1151e043</title>
<path fill="none" stroke="black" stroke-dasharray="1,5" d="M1120.44,-283.83C1143.81,-272.96 1173.94,-258.94 1198.24,-247.64"/>
</g>
<!-- e533ae02 -->
<g id="node13" class="node">
<title>e533ae02</title>
<ellipse fill="none" stroke="black" cx="854" cy="-571.25" rx="27" ry="18"/>
<text xml:space="preserve" text-anchor="middle" x="854" y="-565.45" font-family="Times,serif" font-size="14.00">ⓕ</text>
</g>
<!-- e533ae02&#45;&gt;210e284e -->
<g id="edge3" class="edge">
<title>e533ae02&#45;&gt;210e284e</title>
<path fill="none" stroke="black" d="M856.88,-552.93C860.59,-530.54 867.11,-491.32 871.49,-464.94"/>
<polygon fill="black" stroke="black" points="874.9,-465.76 873.08,-455.32 867.99,-464.62 874.9,-465.76"/>
</g>
<!-- fe88459f -->
<g id="node14" class="node">
<title>fe88459f</title>
<polygon fill="none" stroke="black" points="790,-664.75 723.17,-646.75 790,-628.75 856.83,-646.75 790,-664.75"/>
<text xml:space="preserve" text-anchor="middle" x="790" y="-641.7" font-family="Times,serif" font-size="14.00">IMPLIES</text>
</g>
<!-- fe88459f&#45;&gt;515b85fa -->
<g id="edge7" class="edge">
<title>fe88459f&#45;&gt;515b85fa</title>
<path fill="none" stroke="black" d="M781.1,-630.88C775.69,-621.85 768.63,-610.05 762.26,-599.41"/>
<polygon fill="black" stroke="black" points="765.35,-597.77 757.22,-590.98 759.35,-601.36 765.35,-597.77"/>
</g>
<!-- fe88459f&#45;&gt;e533ae02 -->
<g id="edge5" class="edge">
<title>fe88459f&#45;&gt;e533ae02</title>
<path fill="none" stroke="black" d="M802.34,-631.58C811.14,-621.47 823.18,-607.65 833.42,-595.89"/>
<polygon fill="black" stroke="black" points="835.9,-598.37 839.82,-588.53 830.62,-593.77 835.9,-598.37"/>
</g>
<!-- b144c5ad_anchor -->
<!-- 01180692 -->
<g id="node16" class="node">
<title>01180692</title>
<ellipse fill="none" stroke="black" cx="1595" cy="-571.25" rx="27" ry="18"/>
<text xml:space="preserve" text-anchor="middle" x="1595" y="-565.45" font-family="Times,serif" font-size="14.00">ⓕ</text>
</g>
<!-- 7b48474e -->
<g id="node17" class="node">
<title>7b48474e</title>
<polygon fill="none" stroke="black" points="1601,-454.75 1557.33,-436.75 1601,-418.75 1644.67,-436.75 1601,-454.75"/>
<text xml:space="preserve" text-anchor="middle" x="1601" y="-431.7" font-family="Times,serif" font-size="14.00">AND</text>
</g>
<!-- 01180692&#45;&gt;7b48474e -->
<g id="edge9" class="edge">
<title>01180692&#45;&gt;7b48474e</title>
<path fill="none" stroke="black" d="M1595.78,-552.93C1596.79,-530.79 1598.54,-492.17 1599.73,-465.8"/>
<polygon fill="black" stroke="black" points="1603.21,-466.32 1600.17,-456.17 1596.22,-466 1603.21,-466.32"/>
</g>
<!-- ab79fe51 -->
<g id="node19" class="node">
<title>ab79fe51</title>
<polygon fill="none" stroke="black" points="1861.88,-320.25 1704.12,-320.25 1704.12,-284.25 1861.88,-284.25 1861.88,-320.25"/>
<text xml:space="preserve" text-anchor="middle" x="1783" y="-297.2" font-family="Times,serif" font-size="14.00">Remain_Implies_Consent</text>
</g>
<!-- 7b48474e&#45;&gt;ab79fe51 -->
<g id="edge10" class="edge">
<title>7b48474e&#45;&gt;ab79fe51</title>
<path fill="none" stroke="black" d="M1616.2,-424.68C1645.49,-403.36 1710.31,-356.17 1749.97,-327.3"/>
<polygon fill="black" stroke="black" points="1751.98,-330.16 1758.01,-321.45 1747.86,-324.5 1751.98,-330.16"/>
</g>
<!-- f4daf7a0 -->
<g id="node21" class="node">
<title>f4daf7a0</title>
<polygon fill="none" stroke="black" points="1663,-320.25 1539,-320.25 1539,-284.25 1663,-284.25 1663,-320.25"/>
<text xml:space="preserve" text-anchor="middle" x="1601" y="-297.2" font-family="Times,serif" font-size="14.00">Socrates_Remained</text>
</g>
<!-- 7b48474e&#45;&gt;f4daf7a0 -->
<g id="edge12" class="edge">
<title>7b48474e&#45;&gt;f4daf7a0</title>
<path fill="none" stroke="black" d="M1601,-418.43C1601,-396.41 1601,-358.09 1601,-331.74"/>
<polygon fill="black" stroke="black" points="1604.5,-332.09 1601,-322.09 1597.5,-332.09 1604.5,-332.09"/>
</g>
<!-- a5964e20 -->
<g id="node18" class="node">
<title>a5964e20</title>
<polygon fill="none" stroke="black" points="1544.12,-589.25 1399.88,-589.25 1399.88,-553.25 1544.12,-553.25 1544.12,-589.25"/>
<text xml:space="preserve" text-anchor="middle" x="1472" y="-566.2" font-family="Times,serif" font-size="14.00">Socrates_Agreed_Laws</text>
</g>
<!-- a5964e20&#45;&gt;var_1151e043 -->
<g id="edge20" class="edge">
<title>a5964e20&#45;&gt;var_1151e043</title>
<path fill="none" stroke="black" stroke-dasharray="1,5" d="M1460.23,-552.79C1421.15,-494.86 1295.89,-309.14 1254.45,-247.7"/>
</g>
<!-- var_e628e9f1 -->
<g id="node37" class="node">
<title>var_e628e9f1</title>
<polygon fill="lightyellow" stroke="black" points="2011.62,-247.25 1756.38,-247.25 1756.38,-206.25 2011.62,-206.25 2011.62,-247.25"/>
<text xml:space="preserve" text-anchor="middle" x="1884" y="-229.95" font-family="Times,serif" font-size="14.00">Remain_Implies_Consent</text>
<text xml:space="preserve" text-anchor="middle" x="1884" y="-213.45" font-family="Times,serif" font-size="14.00">(claim: Remaining implies consent to laws)</text>
</g>
<!-- ab79fe51&#45;&gt;var_e628e9f1 -->
<g id="edge21" class="edge">
<title>ab79fe51&#45;&gt;var_e628e9f1</title>
<path fill="none" stroke="black" stroke-dasharray="1,5" d="M1806.94,-283.83C1821.87,-272.96 1841.14,-258.94 1856.67,-247.64"/>
</g>
<!-- d18fc07d -->
<g id="node20" class="node">
<title>d18fc07d</title>
<polygon fill="none" stroke="black" points="1533,-664.75 1466.17,-646.75 1533,-628.75 1599.83,-646.75 1533,-664.75"/>
<text xml:space="preserve" text-anchor="middle" x="1533" y="-641.7" font-family="Times,serif" font-size="14.00">IMPLIES</text>
</g>
<!-- d18fc07d&#45;&gt;01180692 -->
<g id="edge8" class="edge">
<title>d18fc07d&#45;&gt;01180692</title>
<path fill="none" stroke="black" d="M1544.95,-631.58C1553.48,-621.47 1565.14,-607.65 1575.06,-595.89"/>
<polygon fill="black" stroke="black" points="1577.48,-598.45 1581.25,-588.55 1572.13,-593.93 1577.48,-598.45"/>
</g>
<!-- d18fc07d&#45;&gt;a5964e20 -->
<g id="edge11" class="edge">
<title>d18fc07d&#45;&gt;a5964e20</title>
<path fill="none" stroke="black" d="M1521.24,-631.58C1513.37,-622.1 1502.79,-609.35 1493.45,-598.09"/>
<polygon fill="black" stroke="black" points="1496.35,-596.11 1487.27,-590.65 1490.96,-600.58 1496.35,-596.11"/>
</g>
<!-- var_bad7377d -->
<g id="node35" class="node">
<title>var_bad7377d</title>
<polygon fill="lightyellow" stroke="black" points="1710.62,-247.25 1491.38,-247.25 1491.38,-206.25 1710.62,-206.25 1710.62,-247.25"/>
<text xml:space="preserve" text-anchor="middle" x="1601" y="-229.95" font-family="Times,serif" font-size="14.00">Socrates_Remained</text>
<text xml:space="preserve" text-anchor="middle" x="1601" y="-213.45" font-family="Times,serif" font-size="14.00">(claim: Socrates remained in Athens)</text>
</g>
<!-- f4daf7a0&#45;&gt;var_bad7377d -->
<g id="edge22" class="edge">
<title>f4daf7a0&#45;&gt;var_bad7377d</title>
<path fill="none" stroke="black" stroke-dasharray="1,5" d="M1601,-283.83C1601,-272.96 1601,-258.94 1601,-247.64"/>
</g>
<!-- e3ebb369_anchor -->
<!-- ddc40e50 -->
<g id="node23" class="node">
<title>ddc40e50</title>
<polygon fill="none" stroke="black" points="2405,-320.25 2281,-320.25 2281,-284.25 2405,-284.25 2405,-320.25"/>
<text xml:space="preserve" text-anchor="middle" x="2343" y="-297.2" font-family="Times,serif" font-size="14.00">Honor_JustCommit</text>
</g>
<!-- var_4ec504f1 -->
<g id="node28" class="node">
<title>var_4ec504f1</title>
<polygon fill="lightyellow" stroke="black" points="2470.25,-247.25 2215.75,-247.25 2215.75,-206.25 2470.25,-206.25 2470.25,-247.25"/>
<text xml:space="preserve" text-anchor="middle" x="2343" y="-229.95" font-family="Times,serif" font-size="14.00">Honor_JustCommit</text>
<text xml:space="preserve" text-anchor="middle" x="2343" y="-213.45" font-family="Times,serif" font-size="14.00">(claim: One must honor just commitments)</text>
</g>
<!-- ddc40e50&#45;&gt;var_4ec504f1 -->
<g id="edge23" class="edge">
<title>ddc40e50&#45;&gt;var_4ec504f1</title>
<path fill="none" stroke="black" stroke-dasharray="1,5" d="M2343,-283.83C2343,-272.96 2343,-258.94 2343,-247.64"/>
</g>
<!-- eab0ac04_anchor -->
<!-- claim_1151e043 -->
<g id="node40" class="node">
<title>claim_1151e043</title>
<polygon fill="lightyellow" stroke="none" points="1077.62,-28.25 1077.62,-132.25 1404.38,-132.25 1404.38,-28.25 1077.62,-28.25"/>
<text xml:space="preserve" text-anchor="start" x="1173.5" y="-112.95" font-family="Times,serif" font-weight="bold" font-size="14.00">Socrates_Agreed_Laws</text>
<text xml:space="preserve" text-anchor="start" x="1135.25" y="-84.45" font-family="Times,serif" font-style="italic" font-size="14.00">Socrates agreed to obey Athenian laws</text>
<text xml:space="preserve" text-anchor="start" x="1084.62" y="-55.5" font-family="Times,serif" font-size="14.00">Socrates enters an implied agreement to obey the laws of</text>
<text xml:space="preserve" text-anchor="start" x="1084.62" y="-39" font-family="Times,serif" font-size="14.00">Athens or persuade the city otherwise.</text>
<polygon fill="none" stroke="black" points="1077.62,-28.25 1077.62,-132.25 1404.38,-132.25 1404.38,-28.25 1077.62,-28.25"/>
</g>
<!-- var_1151e043&#45;&gt;claim_1151e043 -->
<!-- var_1320064f -->
<g id="node26" class="node">
<title>var_1320064f</title>
<polygon fill="lightblue" stroke="black" points="1084.38,-806.25 977.62,-806.25 977.62,-765.25 1084.38,-765.25 1084.38,-806.25"/>
<text xml:space="preserve" text-anchor="middle" x="1031" y="-788.95" font-family="Times,serif" font-size="14.00">P4</text>
<text xml:space="preserve" text-anchor="middle" x="1031" y="-772.45" font-family="Times,serif" font-size="14.00">(premise&#45;bound)</text>
</g>
<!-- var_1320064f&#45;&gt;b144c5ad_anchor -->
<g id="edge24" class="edge">
<title>var_1320064f&#45;&gt;b144c5ad_anchor</title>
<path fill="none" stroke="blue" stroke-width="2" d="M1031,-764.83C1031,-756.18 1031,-745.41 1031,-733.93"/>
<polygon fill="blue" stroke="blue" stroke-width="2" points="1034.5,-735.77 1031,-725.77 1027.5,-735.77 1034.5,-735.77"/>
<text xml:space="preserve" text-anchor="middle" x="1038.12" y="-733.95" font-family="Times,serif" font-size="14.00">P4</text>
</g>
<!-- claim_162a0574 -->
<g id="node41" class="node">
<title>claim_162a0574</title>
<polygon fill="lightyellow" stroke="none" points="2901.75,-36.5 2901.75,-124 3160.25,-124 3160.25,-36.5 2901.75,-36.5"/>
<text xml:space="preserve" text-anchor="start" x="2983" y="-104.7" font-family="Times,serif" font-weight="bold" font-size="14.00">No_Wrongdoing</text>
<text xml:space="preserve" text-anchor="start" x="2959" y="-76.2" font-family="Times,serif" font-style="italic" font-size="14.00">Wrongdoing is never right</text>
<text xml:space="preserve" text-anchor="start" x="2908.75" y="-47.25" font-family="Times,serif" font-size="14.00">A person must never intentionally do wrong.</text>
<polygon fill="none" stroke="black" points="2901.75,-36.5 2901.75,-124 3160.25,-124 3160.25,-36.5 2901.75,-36.5"/>
</g>
<!-- var_162a0574&#45;&gt;claim_162a0574 -->
<!-- claim_4ec504f1 -->
<g id="node42" class="node">
<title>claim_4ec504f1</title>
<polygon fill="lightyellow" stroke="none" points="2167.62,-28.25 2167.62,-132.25 2518.38,-132.25 2518.38,-28.25 2167.62,-28.25"/>
<text xml:space="preserve" text-anchor="start" x="2284.12" y="-112.95" font-family="Times,serif" font-weight="bold" font-size="14.00">Honor_JustCommit</text>
<text xml:space="preserve" text-anchor="start" x="2250" y="-84.45" font-family="Times,serif" font-style="italic" font-size="14.00">One must honor just commitments</text>
<text xml:space="preserve" text-anchor="start" x="2174.62" y="-55.5" font-family="Times,serif" font-size="14.00">A person ought to do what he admits to be right and must not</text>
<text xml:space="preserve" text-anchor="start" x="2174.62" y="-39" font-family="Times,serif" font-size="14.00">betray what is just.</text>
<polygon fill="none" stroke="black" points="2167.62,-28.25 2167.62,-132.25 2518.38,-132.25 2518.38,-28.25 2167.62,-28.25"/>
</g>
<!-- var_4ec504f1&#45;&gt;claim_4ec504f1 -->
<!-- claim_502995d0 -->
<g id="node43" class="node">
<title>claim_502995d0</title>
<polygon fill="lightyellow" stroke="none" points="397.75,-36.5 397.75,-124 674.25,-124 674.25,-36.5 397.75,-36.5"/>
<text xml:space="preserve" text-anchor="start" x="483.5" y="-104.7" font-family="Times,serif" font-weight="bold" font-size="14.00">Escape_Is_Wrong</text>
<text xml:space="preserve" text-anchor="start" x="485.38" y="-76.2" font-family="Times,serif" font-style="italic" font-size="14.00">Escaping is wrong</text>
<text xml:space="preserve" text-anchor="start" x="404.75" y="-47.25" font-family="Times,serif" font-size="14.00">If Socrates escapes from prison, he does wrong.</text>
<polygon fill="none" stroke="black" points="397.75,-36.5 397.75,-124 674.25,-124 674.25,-36.5 397.75,-36.5"/>
</g>
<!-- var_502995d0&#45;&gt;claim_502995d0 -->
<!-- claim_52cbb7f8 -->
<g id="node44" class="node">
<title>claim_52cbb7f8</title>
<polygon fill="lightyellow" stroke="none" points="2552.62,-28.25 2552.62,-132.25 2867.38,-132.25 2867.38,-28.25 2552.62,-28.25"/>
<text xml:space="preserve" text-anchor="start" x="2666.5" y="-112.95" font-family="Times,serif" font-weight="bold" font-size="14.00">No_Retaliation</text>
<text xml:space="preserve" text-anchor="start" x="2654.5" y="-84.45" font-family="Times,serif" font-style="italic" font-size="14.00">Retaliation is wrong</text>
<text xml:space="preserve" text-anchor="start" x="2559.62" y="-55.5" font-family="Times,serif" font-size="14.00">A person must not injure another in return for injury or</text>
<text xml:space="preserve" text-anchor="start" x="2559.62" y="-39" font-family="Times,serif" font-size="14.00">render evil for evil.</text>
<polygon fill="none" stroke="black" points="2552.62,-28.25 2552.62,-132.25 2867.38,-132.25 2867.38,-28.25 2552.62,-28.25"/>
</g>
<!-- var_52cbb7f8&#45;&gt;claim_52cbb7f8 -->
<!-- var_6a28d53a -->
<g id="node31" class="node">
<title>var_6a28d53a</title>
<polygon fill="lightblue" stroke="black" points="565.38,-591.75 458.62,-591.75 458.62,-550.75 565.38,-550.75 565.38,-591.75"/>
<text xml:space="preserve" text-anchor="middle" x="512" y="-574.45" font-family="Times,serif" font-size="14.00">P5</text>
<text xml:space="preserve" text-anchor="middle" x="512" y="-557.95" font-family="Times,serif" font-size="14.00">(premise&#45;bound)</text>
</g>
<!-- var_6a28d53a&#45;&gt;47c97752_anchor -->
<g id="edge25" class="edge">
<title>var_6a28d53a&#45;&gt;47c97752_anchor</title>
<path fill="none" stroke="blue" stroke-width="2" d="M512,-550.41C512,-541.72 512,-530.89 512,-519.41"/>
<polygon fill="blue" stroke="blue" stroke-width="2" points="515.5,-521.28 512,-511.28 508.5,-521.28 515.5,-521.28"/>
<text xml:space="preserve" text-anchor="middle" x="519.12" y="-519.45" font-family="Times,serif" font-size="14.00">P5</text>
</g>
<!-- var_7b083c91 -->
<g id="node32" class="node">
<title>var_7b083c91</title>
<polygon fill="lightblue" stroke="black" points="2844.38,-457.25 2737.62,-457.25 2737.62,-416.25 2844.38,-416.25 2844.38,-457.25"/>
<text xml:space="preserve" text-anchor="middle" x="2791" y="-439.95" font-family="Times,serif" font-size="14.00">P1</text>
<text xml:space="preserve" text-anchor="middle" x="2791" y="-423.45" font-family="Times,serif" font-size="14.00">(premise&#45;bound)</text>
</g>
<!-- var_7b083c91&#45;&gt;9b064e51_anchor -->
<g id="edge26" class="edge">
<title>var_7b083c91&#45;&gt;9b064e51_anchor</title>
<path fill="none" stroke="blue" stroke-width="2" d="M2791,-415.91C2791,-407.22 2791,-396.39 2791,-384.91"/>
<polygon fill="blue" stroke="blue" stroke-width="2" points="2794.5,-386.78 2791,-376.78 2787.5,-386.78 2794.5,-386.78"/>
<text xml:space="preserve" text-anchor="middle" x="2798.12" y="-384.95" font-family="Times,serif" font-size="14.00">P1</text>
</g>
<!-- claim_838eb134 -->
<g id="node45" class="node">
<title>claim_838eb134</title>
<polygon fill="lightyellow" stroke="none" points="708.5,-20 708.5,-140.5 1043.5,-140.5 1043.5,-20 708.5,-20"/>
<text xml:space="preserve" text-anchor="start" x="811.5" y="-121.2" font-family="Times,serif" font-weight="bold" font-size="14.00">Escape_Breaks_Agree</text>
<text xml:space="preserve" text-anchor="start" x="790.5" y="-92.7" font-family="Times,serif" font-style="italic" font-size="14.00">Escaping breaks the agreement</text>
<text xml:space="preserve" text-anchor="start" x="715.5" y="-63.75" font-family="Times,serif" font-size="14.00">If Socrates escapes from prison against the will of Athens,</text>
<text xml:space="preserve" text-anchor="start" x="715.5" y="-47.25" font-family="Times,serif" font-size="14.00">he breaks his agreement with the laws and injures the laws</text>
<text xml:space="preserve" text-anchor="start" x="715.5" y="-30.75" font-family="Times,serif" font-size="14.00">and the city.</text>
<polygon fill="none" stroke="black" points="708.5,-20 708.5,-140.5 1043.5,-140.5 1043.5,-20 708.5,-20"/>
</g>
<!-- var_838eb134&#45;&gt;claim_838eb134 -->
<!-- var_96cc2ce4 -->
<g id="node34" class="node">
<title>var_96cc2ce4</title>
<polygon fill="lightblue" stroke="black" points="1853.38,-806.25 1746.62,-806.25 1746.62,-765.25 1853.38,-765.25 1853.38,-806.25"/>
<text xml:space="preserve" text-anchor="middle" x="1800" y="-788.95" font-family="Times,serif" font-size="14.00">P3</text>
<text xml:space="preserve" text-anchor="middle" x="1800" y="-772.45" font-family="Times,serif" font-size="14.00">(premise&#45;bound)</text>
</g>
<!-- var_96cc2ce4&#45;&gt;e3ebb369_anchor -->
<g id="edge27" class="edge">
<title>var_96cc2ce4&#45;&gt;e3ebb369_anchor</title>
<path fill="none" stroke="blue" stroke-width="2" d="M1800,-764.83C1800,-756.18 1800,-745.41 1800,-733.93"/>
<polygon fill="blue" stroke="blue" stroke-width="2" points="1803.5,-735.77 1800,-725.77 1796.5,-735.77 1803.5,-735.77"/>
<text xml:space="preserve" text-anchor="middle" x="1807.12" y="-733.95" font-family="Times,serif" font-size="14.00">P3</text>
</g>
<!-- claim_bad7377d -->
<g id="node46" class="node">
<title>claim_bad7377d</title>
<polygon fill="lightyellow" stroke="none" points="1438,-20 1438,-140.5 1764,-140.5 1764,-20 1438,-20"/>
<text xml:space="preserve" text-anchor="start" x="1543.62" y="-121.2" font-family="Times,serif" font-weight="bold" font-size="14.00">Socrates_Remained</text>
<text xml:space="preserve" text-anchor="start" x="1523.38" y="-92.7" font-family="Times,serif" font-style="italic" font-size="14.00">Socrates remained in Athens</text>
<text xml:space="preserve" text-anchor="start" x="1445" y="-63.75" font-family="Times,serif" font-size="14.00">Socrates remains in Athens throughout his life with</text>
<text xml:space="preserve" text-anchor="start" x="1445" y="-47.25" font-family="Times,serif" font-size="14.00">knowledge of its laws and institutions rather than leaving</text>
<text xml:space="preserve" text-anchor="start" x="1445" y="-30.75" font-family="Times,serif" font-size="14.00">for another city.</text>
<polygon fill="none" stroke="black" points="1438,-20 1438,-140.5 1764,-140.5 1764,-20 1438,-20"/>
</g>
<!-- var_bad7377d&#45;&gt;claim_bad7377d -->
<!-- var_e0a01fb5 -->
<g id="node36" class="node">
<title>var_e0a01fb5</title>
<polygon fill="lightblue" stroke="black" points="3168.38,-457.25 3061.62,-457.25 3061.62,-416.25 3168.38,-416.25 3168.38,-457.25"/>
<text xml:space="preserve" text-anchor="middle" x="3115" y="-439.95" font-family="Times,serif" font-size="14.00">P0</text>
<text xml:space="preserve" text-anchor="middle" x="3115" y="-423.45" font-family="Times,serif" font-size="14.00">(premise&#45;bound)</text>
</g>
<!-- var_e0a01fb5&#45;&gt;17d15d47_anchor -->
<g id="edge28" class="edge">
<title>var_e0a01fb5&#45;&gt;17d15d47_anchor</title>
<path fill="none" stroke="blue" stroke-width="2" d="M3115,-415.91C3115,-407.22 3115,-396.39 3115,-384.91"/>
<polygon fill="blue" stroke="blue" stroke-width="2" points="3118.5,-386.78 3115,-376.78 3111.5,-386.78 3118.5,-386.78"/>
<text xml:space="preserve" text-anchor="middle" x="3122.12" y="-384.95" font-family="Times,serif" font-size="14.00">P0</text>
</g>
<!-- claim_e628e9f1 -->
<g id="node47" class="node">
<title>claim_e628e9f1</title>
<polygon fill="lightyellow" stroke="none" points="1798.12,-20 1798.12,-140.5 2133.88,-140.5 2133.88,-20 1798.12,-20"/>
<text xml:space="preserve" text-anchor="start" x="1891" y="-121.2" font-family="Times,serif" font-weight="bold" font-size="14.00">Remain_Implies_Consent</text>
<text xml:space="preserve" text-anchor="start" x="1871.5" y="-92.7" font-family="Times,serif" font-style="italic" font-size="14.00">Remaining implies consent to laws</text>
<text xml:space="preserve" text-anchor="start" x="1805.12" y="-63.75" font-family="Times,serif" font-size="14.00">A citizen who remains in a city with knowledge of its laws</text>
<text xml:space="preserve" text-anchor="start" x="1805.12" y="-47.25" font-family="Times,serif" font-size="14.00">thereby enters an implied agreement to obey those laws or</text>
<text xml:space="preserve" text-anchor="start" x="1805.12" y="-30.75" font-family="Times,serif" font-size="14.00">persuade the city otherwise.</text>
<polygon fill="none" stroke="black" points="1798.12,-20 1798.12,-140.5 2133.88,-140.5 2133.88,-20 1798.12,-20"/>
</g>
<!-- var_e628e9f1&#45;&gt;claim_e628e9f1 -->
<!-- var_efe4c551 -->
<g id="node38" class="node">
<title>var_efe4c551</title>
<polygon fill="lightblue" stroke="black" points="2485.38,-457.25 2378.62,-457.25 2378.62,-416.25 2485.38,-416.25 2485.38,-457.25"/>
<text xml:space="preserve" text-anchor="middle" x="2432" y="-439.95" font-family="Times,serif" font-size="14.00">P2</text>
<text xml:space="preserve" text-anchor="middle" x="2432" y="-423.45" font-family="Times,serif" font-size="14.00">(premise&#45;bound)</text>
</g>
<!-- var_efe4c551&#45;&gt;eab0ac04_anchor -->
<g id="edge29" class="edge">
<title>var_efe4c551&#45;&gt;eab0ac04_anchor</title>
<path fill="none" stroke="blue" stroke-width="2" d="M2432,-415.91C2432,-407.22 2432,-396.39 2432,-384.91"/>
<polygon fill="blue" stroke="blue" stroke-width="2" points="2435.5,-386.78 2432,-376.78 2428.5,-386.78 2435.5,-386.78"/>
<text xml:space="preserve" text-anchor="middle" x="2439.12" y="-384.95" font-family="Times,serif" font-size="14.00">P2</text>
</g>
<!-- claim_f0ff78e1 -->
<g id="node48" class="node">
<title>claim_f0ff78e1</title>
<polygon fill="lightyellow" stroke="none" points="24.25,-28.25 24.25,-132.25 363.75,-132.25 363.75,-28.25 24.25,-28.25"/>
<text xml:space="preserve" text-anchor="start" x="136.25" y="-112.95" font-family="Times,serif" font-weight="bold" font-size="14.00">Should_Not_Escape</text>
<text xml:space="preserve" text-anchor="start" x="120.12" y="-84.45" font-family="Times,serif" font-style="italic" font-size="14.00">Socrates should not escape</text>
<text xml:space="preserve" text-anchor="start" x="31.25" y="-55.5" font-family="Times,serif" font-size="14.00">Socrates ought not to escape from prison against the will of</text>
<text xml:space="preserve" text-anchor="start" x="31.25" y="-39" font-family="Times,serif" font-size="14.00">Athens.</text>
<polygon fill="none" stroke="black" points="24.25,-28.25 24.25,-132.25 363.75,-132.25 363.75,-28.25 24.25,-28.25"/>
</g>
<!-- var_f0ff78e1&#45;&gt;claim_f0ff78e1 -->
</g>
</svg>
