<?xml version="1.0" encoding="UTF-8" standalone="no"?>
<!DOCTYPE svg PUBLIC "-//W3C//DTD SVG 1.1//EN"
 "http://www.w3.org/Graphics/SVG/1.1/DTD/svg11.dtd">
<!-- Generated by graphviz version 14.1.3 (20260303.0454)
 -->
<!-- Title: argument Pages: 1 -->
<svg width="3232pt" height="782pt"
 viewBox="0.00 0.00 3232.00 782.00" xmlns="http://www.w3.org/2000/svg" xmlns:xlink="http://www.w3.org/1999/xlink">
<g id="graph0" class="graph" transform="scale(1 1) rotate(0) translate(4 778)">
<title>argument</title>
<polygon fill="white" stroke="none" points="-4,4 -4,-778 3228,-778 3228,4 -4,4"/>
<text xml:space="preserve" text-anchor="middle" x="1612" y="-754.8" font-family="Times,serif" font-size="16.00">Mill on liberty of thought and discussion</text>
<g id="clust1" class="cluster">
<title>cluster_4662530a</title>
<polygon fill="none" stroke="#666666" stroke-dasharray="5,2" points="1862,-276.25 1862,-449.25 2264,-449.25 2264,-276.25 1862,-276.25"/>
<text xml:space="preserve" text-anchor="middle" x="2063" y="-430.05" font-family="Times,serif" font-size="16.00">Suppressing partial truth harms mankind</text>
<text xml:space="preserve" text-anchor="middle" x="2063" y="-411.3" font-family="Times,serif" font-size="16.00">(FalseOpinion_PartTruth → Suppression_Harms_Mankind)</text>
</g>
<g id="clust2" class="cluster">
<title>cluster_5cf8a70e</title>
<polygon fill="none" stroke="red" stroke-width="2" points="606,-276.25 606,-663.75 1408,-663.75 1408,-276.25 606,-276.25"/>
<text xml:space="preserve" text-anchor="middle" x="1007" y="-644.55" font-family="Times,serif" font-size="16.00">Illegitimate and harmful suppression should be rej</text>
<text xml:space="preserve" text-anchor="middle" x="1007" y="-625.8" font-family="Times,serif" font-size="16.00">(((Silencing_Assumes_Infallibility ∧ Suppression_Harms_Mankind)) → Freedom_Opinion_Required) &#160;[CONCLUSION]</text>
</g>
<g id="clust3" class="cluster">
<title>cluster_5dc3a2b3</title>
<polygon fill="none" stroke="#666666" stroke-dasharray="5,2" points="2272,-276.25 2272,-449.25 2749,-449.25 2749,-276.25 2272,-276.25"/>
<text xml:space="preserve" text-anchor="middle" x="2510.5" y="-430.05" font-family="Times,serif" font-size="16.00">Suppression damages human development</text>
<text xml:space="preserve" text-anchor="middle" x="2510.5" y="-411.3" font-family="Times,serif" font-size="16.00">(Suppression_Harms_Understanding → Suppression_Harms_Mankind)</text>
</g>
<g id="clust4" class="cluster">
<title>cluster_ae92cf27</title>
<polygon fill="none" stroke="#666666" stroke-dasharray="5,2" points="2757,-276.25 2757,-449.25 3216,-449.25 3216,-276.25 2757,-276.25"/>
<text xml:space="preserve" text-anchor="middle" x="2986.5" y="-430.05" font-family="Times,serif" font-size="16.00">Without contestation truth becomes dogma</text>
<text xml:space="preserve" text-anchor="middle" x="2986.5" y="-411.3" font-family="Times,serif" font-size="16.00">(Discussion_Needed_LivingTruth → Suppression_Harms_Mankind)</text>
</g>
<g id="clust5" class="cluster">
<title>cluster_dbecfef5</title>
<polygon fill="none" stroke="#666666" stroke-dasharray="5,2" points="8,-276.25 8,-449.25 370,-449.25 370,-276.25 8,-276.25"/>
<text xml:space="preserve" text-anchor="middle" x="189" y="-430.05" font-family="Times,serif" font-size="16.00">Fallibility makes suppression presumptuous</text>
<text xml:space="preserve" text-anchor="middle" x="189" y="-411.3" font-family="Times,serif" font-size="16.00">(Human_Fallible → Silencing_Assumes_Infallibility)</text>
</g>
<g id="clust6" class="cluster">
<title>cluster_ffe59cb8</title>
<polygon fill="none" stroke="#666666" stroke-dasharray="5,2" points="1416,-276.25 1416,-449.25 1854,-449.25 1854,-276.25 1416,-276.25"/>
<text xml:space="preserve" text-anchor="middle" x="1635" y="-430.05" font-family="Times,serif" font-size="16.00">Suppressing truth harms mankind</text>
<text xml:space="preserve" text-anchor="middle" x="1635" y="-411.3" font-family="Times,serif" font-size="16.00">(SilencedOpinion_MayBeTrue → Suppression_Harms_Mankind)</text>
</g>
<g id="clust7" class="cluster">
<title>cluster_claims</title>
</g>
<!-- 104fd51e -->
<g id="node1" class="node">
<title>104fd51e</title>
<polygon fill="none" stroke="black" points="2059.88,-320.25 1878.12,-320.25 1878.12,-284.25 2059.88,-284.25 2059.88,-320.25"/>
<text xml:space="preserve" text-anchor="middle" x="1969" y="-297.2" font-family="Times,serif" font-size="14.00">Suppression_Harms_Mankind</text>
</g>
<!-- var_3823cbad -->
<g id="node33" class="node">
<title>var_3823cbad</title>
<polygon fill="lightyellow" stroke="black" points="1984.25,-247.25 1765.75,-247.25 1765.75,-206.25 1984.25,-206.25 1984.25,-247.25"/>
<text xml:space="preserve" text-anchor="middle" x="1875" y="-229.95" font-family="Times,serif" font-size="14.00">Suppression_Harms_Mankind</text>
<text xml:space="preserve" text-anchor="middle" x="1875" y="-213.45" font-family="Times,serif" font-size="14.00">(claim: Suppression harms mankind)</text>
</g>
<!-- 104fd51e&#45;&gt;var_3823cbad -->
<g id="edge16" class="edge">
<title>104fd51e&#45;&gt;var_3823cbad</title>
<path fill="none" stroke="black" stroke-dasharray="1,5" d="M1946.72,-283.83C1932.82,-272.96 1914.89,-258.94 1900.44,-247.64"/>
</g>
<!-- d7ecfd27 -->
<g id="node2" class="node">
<title>d7ecfd27</title>
<polygon fill="none" stroke="black" points="2019,-395.75 1952.17,-377.75 2019,-359.75 2085.83,-377.75 2019,-395.75"/>
<text xml:space="preserve" text-anchor="middle" x="2019" y="-372.7" font-family="Times,serif" font-size="14.00">IMPLIES</text>
</g>
<!-- d7ecfd27&#45;&gt;104fd51e -->
<g id="edge2" class="edge">
<title>d7ecfd27&#45;&gt;104fd51e</title>
<path fill="none" stroke="black" d="M2009.12,-362.23C2002.89,-353.07 1994.65,-340.96 1987.26,-330.09"/>
<polygon fill="black" stroke="black" points="1990.16,-328.14 1981.64,-321.84 1984.38,-332.07 1990.16,-328.14"/>
</g>
<!-- e46ef5cf -->
<g id="node3" class="node">
<title>e46ef5cf</title>
<polygon fill="none" stroke="black" points="2229.62,-320.25 2082.38,-320.25 2082.38,-284.25 2229.62,-284.25 2229.62,-320.25"/>
<text xml:space="preserve" text-anchor="middle" x="2156" y="-297.2" font-family="Times,serif" font-size="14.00">FalseOpinion_PartTruth</text>
</g>
<!-- d7ecfd27&#45;&gt;e46ef5cf -->
<g id="edge1" class="edge">
<title>d7ecfd27&#45;&gt;e46ef5cf</title>
<path fill="none" stroke="black" d="M2040.71,-365.1C2060.18,-354.66 2089.33,-339.02 2113.44,-326.08"/>
<polygon fill="black" stroke="black" points="2114.93,-329.26 2122.09,-321.44 2111.62,-323.09 2114.93,-329.26"/>
</g>
<!-- var_6e883b2f -->
<g id="node35" class="node">
<title>var_6e883b2f</title>
<polygon fill="lightyellow" stroke="black" points="2274.75,-247.25 2041.25,-247.25 2041.25,-206.25 2274.75,-206.25 2274.75,-247.25"/>
<text xml:space="preserve" text-anchor="middle" x="2158" y="-229.95" font-family="Times,serif" font-size="14.00">FalseOpinion_PartTruth</text>
<text xml:space="preserve" text-anchor="middle" x="2158" y="-213.45" font-family="Times,serif" font-size="14.00">(claim: False dissent may contain truth)</text>
</g>
<!-- e46ef5cf&#45;&gt;var_6e883b2f -->
<g id="edge17" class="edge">
<title>e46ef5cf&#45;&gt;var_6e883b2f</title>
<path fill="none" stroke="black" stroke-dasharray="1,5" d="M2156.47,-283.83C2156.77,-272.96 2157.15,-258.94 2157.46,-247.64"/>
</g>
<!-- 4662530a_anchor -->
<!-- 61d54c68 -->
<g id="node5" class="node">
<title>61d54c68</title>
<polygon fill="none" stroke="black" points="831,-395.75 787.33,-377.75 831,-359.75 874.67,-377.75 831,-395.75"/>
<text xml:space="preserve" text-anchor="middle" x="831" y="-372.7" font-family="Times,serif" font-size="14.00">AND</text>
</g>
<!-- af997fe6 -->
<g id="node8" class="node">
<title>af997fe6</title>
<polygon fill="none" stroke="black" points="837.75,-320.25 646.25,-320.25 646.25,-284.25 837.75,-284.25 837.75,-320.25"/>
<text xml:space="preserve" text-anchor="middle" x="742" y="-297.2" font-family="Times,serif" font-size="14.00">Silencing_Assumes_Infallibility</text>
</g>
<!-- 61d54c68&#45;&gt;af997fe6 -->
<g id="edge5" class="edge">
<title>61d54c68&#45;&gt;af997fe6</title>
<path fill="none" stroke="black" d="M817.09,-365.27C805,-355.28 787.05,-340.46 771.74,-327.81"/>
<polygon fill="black" stroke="black" points="774.2,-325.3 764.26,-321.63 769.74,-330.7 774.2,-325.3"/>
</g>
<!-- fba63e9f -->
<g id="node10" class="node">
<title>fba63e9f</title>
<polygon fill="none" stroke="black" points="1281.88,-320.25 1100.12,-320.25 1100.12,-284.25 1281.88,-284.25 1281.88,-320.25"/>
<text xml:space="preserve" text-anchor="middle" x="1191" y="-297.2" font-family="Times,serif" font-size="14.00">Suppression_Harms_Mankind</text>
</g>
<!-- 61d54c68&#45;&gt;fba63e9f -->
<g id="edge7" class="edge">
<title>61d54c68&#45;&gt;fba63e9f</title>
<path fill="none" stroke="black" d="M859.25,-370.98C909.27,-360.77 1015.6,-339.06 1094.46,-322.96"/>
<polygon fill="black" stroke="black" points="1094.82,-326.46 1103.92,-321.03 1093.42,-319.6 1094.82,-326.46"/>
</g>
<!-- 69551955 -->
<g id="node6" class="node">
<title>69551955</title>
<ellipse fill="none" stroke="black" cx="831" cy="-512.25" rx="27" ry="18"/>
<text xml:space="preserve" text-anchor="middle" x="831" y="-506.45" font-family="Times,serif" font-size="14.00">ⓕ</text>
</g>
<!-- 69551955&#45;&gt;61d54c68 -->
<g id="edge3" class="edge">
<title>69551955&#45;&gt;61d54c68</title>
<path fill="none" stroke="black" d="M831,-493.93C831,-471.91 831,-433.59 831,-407.24"/>
<polygon fill="black" stroke="black" points="834.5,-407.59 831,-397.59 827.5,-407.59 834.5,-407.59"/>
</g>
<!-- 7e1cd694 -->
<g id="node7" class="node">
<title>7e1cd694</title>
<polygon fill="none" stroke="black" points="765,-605.75 698.17,-587.75 765,-569.75 831.83,-587.75 765,-605.75"/>
<text xml:space="preserve" text-anchor="middle" x="765" y="-582.7" font-family="Times,serif" font-size="14.00">IMPLIES</text>
</g>
<!-- 7e1cd694&#45;&gt;69551955 -->
<g id="edge4" class="edge">
<title>7e1cd694&#45;&gt;69551955</title>
<path fill="none" stroke="black" d="M777.41,-572.93C786.61,-562.69 799.35,-548.49 810.11,-536.52"/>
<polygon fill="black" stroke="black" points="812.42,-539.18 816.49,-529.4 807.21,-534.51 812.42,-539.18"/>
</g>
<!-- e81bf760 -->
<g id="node9" class="node">
<title>e81bf760</title>
<polygon fill="none" stroke="black" points="786,-530.25 614,-530.25 614,-494.25 786,-494.25 786,-530.25"/>
<text xml:space="preserve" text-anchor="middle" x="700" y="-507.2" font-family="Times,serif" font-size="14.00">Freedom_Opinion_Required</text>
</g>
<!-- 7e1cd694&#45;&gt;e81bf760 -->
<g id="edge6" class="edge">
<title>7e1cd694&#45;&gt;e81bf760</title>
<path fill="none" stroke="black" d="M752.77,-572.93C744.33,-563.38 732.86,-550.4 722.76,-538.99"/>
<polygon fill="black" stroke="black" points="725.63,-536.95 716.39,-531.78 720.39,-541.59 725.63,-536.95"/>
</g>
<!-- var_22cdead1 -->
<g id="node28" class="node">
<title>var_22cdead1</title>
<polygon fill="lightyellow" stroke="black" points="560.12,-247.25 331.88,-247.25 331.88,-206.25 560.12,-206.25 560.12,-247.25"/>
<text xml:space="preserve" text-anchor="middle" x="446" y="-229.95" font-family="Times,serif" font-size="14.00">Silencing_Assumes_Infallibility</text>
<text xml:space="preserve" text-anchor="middle" x="446" y="-213.45" font-family="Times,serif" font-size="14.00">(claim: Silencing assumes infallibility)</text>
</g>
<!-- af997fe6&#45;&gt;var_22cdead1 -->
<g id="edge18" class="edge">
<title>af997fe6&#45;&gt;var_22cdead1</title>
<path fill="none" stroke="black" stroke-dasharray="1,5" d="M671.85,-283.83C628.17,-272.99 571.84,-259 526.37,-247.71"/>
</g>
<!-- var_2dc513d1 -->
<g id="node30" class="node">
<title>var_2dc513d1</title>
<polygon fill="lightyellow" stroke="black" points="598.38,-398.25 377.62,-398.25 377.62,-357.25 598.38,-357.25 598.38,-398.25"/>
<text xml:space="preserve" text-anchor="middle" x="488" y="-380.95" font-family="Times,serif" font-size="14.00">Freedom_Opinion_Required</text>
<text xml:space="preserve" text-anchor="middle" x="488" y="-364.45" font-family="Times,serif" font-size="14.00">(claim: Freedom of opinion required)</text>
</g>
<!-- e81bf760&#45;&gt;var_2dc513d1 -->
<g id="edge19" class="edge">
<title>e81bf760&#45;&gt;var_2dc513d1</title>
<path fill="none" stroke="black" stroke-dasharray="1,5" d="M672.28,-493.93C633,-469.38 561.31,-424.57 519.87,-398.67"/>
</g>
<!-- fba63e9f&#45;&gt;var_3823cbad -->
<g id="edge20" class="edge">
<title>fba63e9f&#45;&gt;var_3823cbad</title>
<path fill="none" stroke="black" stroke-dasharray="1,5" d="M1282.11,-290.77C1321.97,-286.23 1369.3,-280.9 1412,-276.25 1532.92,-263.08 1671.69,-248.63 1765.52,-238.96"/>
</g>
<!-- 5cf8a70e_anchor -->
<!-- c3a3f618 -->
<g id="node12" class="node">
<title>c3a3f618</title>
<polygon fill="none" stroke="black" points="2691.88,-320.25 2480.12,-320.25 2480.12,-284.25 2691.88,-284.25 2691.88,-320.25"/>
<text xml:space="preserve" text-anchor="middle" x="2586" y="-297.2" font-family="Times,serif" font-size="14.00">Suppression_Harms_Understanding</text>
</g>
<!-- var_380257f7 -->
<g id="node32" class="node">
<title>var_380257f7</title>
<polygon fill="lightyellow" stroke="black" points="2693.5,-247.25 2446.5,-247.25 2446.5,-206.25 2693.5,-206.25 2693.5,-247.25"/>
<text xml:space="preserve" text-anchor="middle" x="2570" y="-229.95" font-family="Times,serif" font-size="14.00">Suppression_Harms_Understanding</text>
<text xml:space="preserve" text-anchor="middle" x="2570" y="-213.45" font-family="Times,serif" font-size="14.00">(claim: Suppression harms understanding)</text>
</g>
<!-- c3a3f618&#45;&gt;var_380257f7 -->
<g id="edge21" class="edge">
<title>c3a3f618&#45;&gt;var_380257f7</title>
<path fill="none" stroke="black" stroke-dasharray="1,5" d="M2582.21,-283.83C2579.84,-272.96 2576.79,-258.94 2574.33,-247.64"/>
</g>
<!-- ca6c2288 -->
<g id="node13" class="node">
<title>ca6c2288</title>
<polygon fill="none" stroke="black" points="2461.88,-320.25 2280.12,-320.25 2280.12,-284.25 2461.88,-284.25 2461.88,-320.25"/>
<text xml:space="preserve" text-anchor="middle" x="2371" y="-297.2" font-family="Times,serif" font-size="14.00">Suppression_Harms_Mankind</text>
</g>
<!-- ca6c2288&#45;&gt;var_3823cbad -->
<g id="edge22" class="edge">
<title>ca6c2288&#45;&gt;var_3823cbad</title>
<path fill="none" stroke="black" stroke-dasharray="1,5" d="M2303.92,-283.78C2292.01,-281.02 2279.68,-278.38 2268,-276.25 2164.03,-257.31 2136.88,-260.21 2032,-247.25 2016.6,-245.35 2000.35,-243.33 1984.37,-241.35"/>
</g>
<!-- d528b0c1 -->
<g id="node14" class="node">
<title>d528b0c1</title>
<polygon fill="none" stroke="black" points="2468,-395.75 2401.17,-377.75 2468,-359.75 2534.83,-377.75 2468,-395.75"/>
<text xml:space="preserve" text-anchor="middle" x="2468" y="-372.7" font-family="Times,serif" font-size="14.00">IMPLIES</text>
</g>
<!-- d528b0c1&#45;&gt;c3a3f618 -->
<g id="edge8" class="edge">
<title>d528b0c1&#45;&gt;c3a3f618</title>
<path fill="none" stroke="black" d="M2487.49,-364.61C2504.02,-354.31 2528.23,-339.23 2548.51,-326.6"/>
<polygon fill="black" stroke="black" points="2550.17,-329.69 2556.81,-321.43 2546.47,-323.75 2550.17,-329.69"/>
</g>
<!-- d528b0c1&#45;&gt;ca6c2288 -->
<g id="edge9" class="edge">
<title>d528b0c1&#45;&gt;ca6c2288</title>
<path fill="none" stroke="black" d="M2451.1,-363.95C2437.85,-353.91 2419.03,-339.65 2402.96,-327.47"/>
<polygon fill="black" stroke="black" points="2405.17,-324.75 2395.09,-321.5 2400.94,-330.33 2405.17,-324.75"/>
</g>
<!-- 5dc3a2b3_anchor -->
<!-- 1bc8b57b -->
<g id="node16" class="node">
<title>1bc8b57b</title>
<polygon fill="none" stroke="black" points="2948,-395.75 2881.17,-377.75 2948,-359.75 3014.83,-377.75 2948,-395.75"/>
<text xml:space="preserve" text-anchor="middle" x="2948" y="-372.7" font-family="Times,serif" font-size="14.00">IMPLIES</text>
</g>
<!-- 5855d904 -->
<g id="node17" class="node">
<title>5855d904</title>
<polygon fill="none" stroke="black" points="3161,-320.25 2965,-320.25 2965,-284.25 3161,-284.25 3161,-320.25"/>
<text xml:space="preserve" text-anchor="middle" x="3063" y="-297.2" font-family="Times,serif" font-size="14.00">Discussion_Needed_LivingTruth</text>
</g>
<!-- 1bc8b57b&#45;&gt;5855d904 -->
<g id="edge10" class="edge">
<title>1bc8b57b&#45;&gt;5855d904</title>
<path fill="none" stroke="black" d="M2967.25,-364.45C2983.33,-354.17 3006.72,-339.22 3026.35,-326.67"/>
<polygon fill="black" stroke="black" points="3028.11,-329.7 3034.65,-321.37 3024.34,-323.8 3028.11,-329.7"/>
</g>
<!-- fa5467bd -->
<g id="node18" class="node">
<title>fa5467bd</title>
<polygon fill="none" stroke="black" points="2946.88,-320.25 2765.12,-320.25 2765.12,-284.25 2946.88,-284.25 2946.88,-320.25"/>
<text xml:space="preserve" text-anchor="middle" x="2856" y="-297.2" font-family="Times,serif" font-size="14.00">Suppression_Harms_Mankind</text>
</g>
<!-- 1bc8b57b&#45;&gt;fa5467bd -->
<g id="edge11" class="edge">
<title>1bc8b57b&#45;&gt;fa5467bd</title>
<path fill="none" stroke="black" d="M2931.97,-363.95C2919.41,-353.91 2901.56,-339.65 2886.31,-327.47"/>
<polygon fill="black" stroke="black" points="2888.88,-325.04 2878.88,-321.53 2884.51,-330.51 2888.88,-325.04"/>
</g>
<!-- var_b34ee918 -->
<g id="node38" class="node">
<title>var_b34ee918</title>
<polygon fill="lightyellow" stroke="black" points="3132.25,-247.25 2931.75,-247.25 2931.75,-206.25 3132.25,-206.25 3132.25,-247.25"/>
<text xml:space="preserve" text-anchor="middle" x="3032" y="-229.95" font-family="Times,serif" font-size="14.00">Discussion_Needed_LivingTruth</text>
<text xml:space="preserve" text-anchor="middle" x="3032" y="-213.45" font-family="Times,serif" font-size="14.00">(claim: Discussion vitalizes truth)</text>
</g>
<!-- 5855d904&#45;&gt;var_b34ee918 -->
<g id="edge23" class="edge">
<title>5855d904&#45;&gt;var_b34ee918</title>
<path fill="none" stroke="black" stroke-dasharray="1,5" d="M3055.65,-283.83C3051.07,-272.96 3045.16,-258.94 3040.39,-247.64"/>
</g>
<!-- fa5467bd&#45;&gt;var_3823cbad -->
<g id="edge24" class="edge">
<title>fa5467bd&#45;&gt;var_3823cbad</title>
<path fill="none" stroke="black" stroke-dasharray="1,5" d="M2792.64,-283.79C2779.62,-280.79 2765.94,-278.06 2753,-276.25 2435.4,-231.77 2351.63,-273.48 2032,-247.25 2016.67,-245.99 2000.53,-244.35 1984.68,-242.56"/>
</g>
<!-- ae92cf27_anchor -->
<!-- 47b610f8 -->
<g id="node20" class="node">
<title>47b610f8</title>
<polygon fill="none" stroke="black" points="152.25,-320.25 47.75,-320.25 47.75,-284.25 152.25,-284.25 152.25,-320.25"/>
<text xml:space="preserve" text-anchor="middle" x="100" y="-297.2" font-family="Times,serif" font-size="14.00">Human_Fallible</text>
</g>
<!-- var_2b523865 -->
<g id="node29" class="node">
<title>var_2b523865</title>
<polygon fill="lightyellow" stroke="black" points="281.62,-247.25 110.38,-247.25 110.38,-206.25 281.62,-206.25 281.62,-247.25"/>
<text xml:space="preserve" text-anchor="middle" x="196" y="-229.95" font-family="Times,serif" font-size="14.00">Human_Fallible</text>
<text xml:space="preserve" text-anchor="middle" x="196" y="-213.45" font-family="Times,serif" font-size="14.00">(claim: Humans are fallible)</text>
</g>
<!-- 47b610f8&#45;&gt;var_2b523865 -->
<g id="edge25" class="edge">
<title>47b610f8&#45;&gt;var_2b523865</title>
<path fill="none" stroke="black" stroke-dasharray="1,5" d="M122.75,-283.83C136.94,-272.96 155.26,-258.94 170.02,-247.64"/>
</g>
<!-- 8ff95def -->
<g id="node21" class="node">
<title>8ff95def</title>
<polygon fill="none" stroke="black" points="146,-395.75 79.17,-377.75 146,-359.75 212.83,-377.75 146,-395.75"/>
<text xml:space="preserve" text-anchor="middle" x="146" y="-372.7" font-family="Times,serif" font-size="14.00">IMPLIES</text>
</g>
<!-- 8ff95def&#45;&gt;47b610f8 -->
<g id="edge12" class="edge">
<title>8ff95def&#45;&gt;47b610f8</title>
<path fill="none" stroke="black" d="M136.69,-361.88C131.04,-352.85 123.66,-341.05 117,-330.41"/>
<polygon fill="black" stroke="black" points="119.99,-328.59 111.72,-321.97 114.05,-332.3 119.99,-328.59"/>
</g>
<!-- aaa6157c -->
<g id="node22" class="node">
<title>aaa6157c</title>
<polygon fill="none" stroke="black" points="361.75,-320.25 170.25,-320.25 170.25,-284.25 361.75,-284.25 361.75,-320.25"/>
<text xml:space="preserve" text-anchor="middle" x="266" y="-297.2" font-family="Times,serif" font-size="14.00">Silencing_Assumes_Infallibility</text>
</g>
<!-- 8ff95def&#45;&gt;aaa6157c -->
<g id="edge13" class="edge">
<title>8ff95def&#45;&gt;aaa6157c</title>
<path fill="none" stroke="black" d="M165.82,-364.61C182.63,-354.31 207.25,-339.23 227.87,-326.6"/>
<polygon fill="black" stroke="black" points="229.63,-329.63 236.33,-321.42 225.98,-323.66 229.63,-329.63"/>
</g>
<!-- aaa6157c&#45;&gt;var_22cdead1 -->
<g id="edge26" class="edge">
<title>aaa6157c&#45;&gt;var_22cdead1</title>
<path fill="none" stroke="black" stroke-dasharray="1,5" d="M308.66,-283.83C335.27,-272.96 369.61,-258.94 397.29,-247.64"/>
</g>
<!-- dbecfef5_anchor -->
<!-- 67722694 -->
<g id="node24" class="node">
<title>67722694</title>
<polygon fill="none" stroke="black" points="1640,-395.75 1573.17,-377.75 1640,-359.75 1706.83,-377.75 1640,-395.75"/>
<text xml:space="preserve" text-anchor="middle" x="1640" y="-372.7" font-family="Times,serif" font-size="14.00">IMPLIES</text>
</g>
<!-- c7b0a9b3 -->
<g id="node25" class="node">
<title>c7b0a9b3</title>
<polygon fill="none" stroke="black" points="1624.75,-320.25 1445.25,-320.25 1445.25,-284.25 1624.75,-284.25 1624.75,-320.25"/>
<text xml:space="preserve" text-anchor="middle" x="1535" y="-297.2" font-family="Times,serif" font-size="14.00">SilencedOpinion_MayBeTrue</text>
</g>
<!-- 67722694&#45;&gt;c7b0a9b3 -->
<g id="edge14" class="edge">
<title>67722694&#45;&gt;c7b0a9b3</title>
<path fill="none" stroke="black" d="M1622.19,-364.28C1607.77,-354.19 1587.04,-339.68 1569.41,-327.34"/>
<polygon fill="black" stroke="black" points="1571.44,-324.48 1561.24,-321.62 1567.42,-330.22 1571.44,-324.48"/>
</g>
<!-- e723d162 -->
<g id="node26" class="node">
<title>e723d162</title>
<polygon fill="none" stroke="black" points="1835.88,-320.25 1654.12,-320.25 1654.12,-284.25 1835.88,-284.25 1835.88,-320.25"/>
<text xml:space="preserve" text-anchor="middle" x="1745" y="-297.2" font-family="Times,serif" font-size="14.00">Suppression_Harms_Mankind</text>
</g>
<!-- 67722694&#45;&gt;e723d162 -->
<g id="edge15" class="edge">
<title>67722694&#45;&gt;e723d162</title>
<path fill="none" stroke="black" d="M1657.81,-364.28C1672.23,-354.19 1692.96,-339.68 1710.59,-327.34"/>
<polygon fill="black" stroke="black" points="1712.58,-330.22 1718.76,-321.62 1708.56,-324.48 1712.58,-330.22"/>
</g>
<!-- var_342e91c6 -->
<g id="node31" class="node">
<title>var_342e91c6</title>
<polygon fill="lightyellow" stroke="black" points="1586.75,-247.25 1365.25,-247.25 1365.25,-206.25 1586.75,-206.25 1586.75,-247.25"/>
<text xml:space="preserve" text-anchor="middle" x="1476" y="-229.95" font-family="Times,serif" font-size="14.00">SilencedOpinion_MayBeTrue</text>
<text xml:space="preserve" text-anchor="middle" x="1476" y="-213.45" font-family="Times,serif" font-size="14.00">(claim: True dissent may be silenced)</text>
</g>
<!-- c7b0a9b3&#45;&gt;var_342e91c6 -->
<g id="edge27" class="edge">
<title>c7b0a9b3&#45;&gt;var_342e91c6</title>
<path fill="none" stroke="black" stroke-dasharray="1,5" d="M1521.02,-283.83C1512.29,-272.96 1501.04,-258.94 1491.97,-247.64"/>
</g>
<!-- e723d162&#45;&gt;var_3823cbad -->
<g id="edge28" class="edge">
<title>e723d162&#45;&gt;var_3823cbad</title>
<path fill="none" stroke="black" stroke-dasharray="1,5" d="M1775.81,-283.83C1795.03,-272.96 1819.83,-258.94 1839.82,-247.64"/>
</g>
<!-- ffe59cb8_anchor -->
<!-- claim_22cdead1 -->
<g id="node42" class="node">
<title>claim_22cdead1</title>
<polygon fill="lightyellow" stroke="none" points="564.62,-28.25 564.62,-132.25 867.38,-132.25 867.38,-28.25 564.62,-28.25"/>
<text xml:space="preserve" text-anchor="start" x="624.88" y="-112.95" font-family="Times,serif" font-weight="bold" font-size="14.00">Silencing_Assumes_Infallibility</text>
<text xml:space="preserve" text-anchor="start" x="634.62" y="-84.45" font-family="Times,serif" font-style="italic" font-size="14.00">Silencing assumes infallibility</text>
<text xml:space="preserve" text-anchor="start" x="571.62" y="-55.5" font-family="Times,serif" font-size="14.00">Silencing or suppressing an opinion assumes that the</text>
<text xml:space="preserve" text-anchor="start" x="571.62" y="-39" font-family="Times,serif" font-size="14.00">suppressor is infallible in judging it false or harmful.</text>
<polygon fill="none" stroke="black" points="564.62,-28.25 564.62,-132.25 867.38,-132.25 867.38,-28.25 564.62,-28.25"/>
</g>
<!-- var_22cdead1&#45;&gt;claim_22cdead1 -->
<!-- claim_2b523865 -->
<g id="node43" class="node">
<title>claim_2b523865</title>
<polygon fill="lightyellow" stroke="none" points="213.88,-28.25 213.88,-132.25 530.12,-132.25 530.12,-28.25 213.88,-28.25"/>
<text xml:space="preserve" text-anchor="start" x="324.38" y="-112.95" font-family="Times,serif" font-weight="bold" font-size="14.00">Human_Fallible</text>
<text xml:space="preserve" text-anchor="start" x="317.62" y="-84.45" font-family="Times,serif" font-style="italic" font-size="14.00">Humans are fallible</text>
<text xml:space="preserve" text-anchor="start" x="220.88" y="-55.5" font-family="Times,serif" font-size="14.00">Human beings are fallible and cannot be certain that an</text>
<text xml:space="preserve" text-anchor="start" x="220.88" y="-39" font-family="Times,serif" font-size="14.00">opinion they silence is false.</text>
<polygon fill="none" stroke="black" points="213.88,-28.25 213.88,-132.25 530.12,-132.25 530.12,-28.25 213.88,-28.25"/>
</g>
<!-- var_2b523865&#45;&gt;claim_2b523865 -->
<!-- claim_2dc513d1 -->
<g id="node44" class="node">
<title>claim_2dc513d1</title>
<polygon fill="lightyellow" stroke="none" points="901.88,-28.25 901.88,-132.25 1242.12,-132.25 1242.12,-28.25 901.88,-28.25"/>
<text xml:space="preserve" text-anchor="start" x="988" y="-112.95" font-family="Times,serif" font-weight="bold" font-size="14.00">Freedom_Opinion_Required</text>
<text xml:space="preserve" text-anchor="start" x="992.88" y="-84.45" font-family="Times,serif" font-style="italic" font-size="14.00">Freedom of opinion required</text>
<text xml:space="preserve" text-anchor="start" x="908.88" y="-55.5" font-family="Times,serif" font-size="14.00">Society ought to permit freedom of opinion and freedom of</text>
<text xml:space="preserve" text-anchor="start" x="908.88" y="-39" font-family="Times,serif" font-size="14.00">expression rather than suppress opinions.</text>
<polygon fill="none" stroke="black" points="901.88,-28.25 901.88,-132.25 1242.12,-132.25 1242.12,-28.25 901.88,-28.25"/>
</g>
<!-- var_2dc513d1&#45;&gt;claim_2dc513d1 -->
<!-- claim_342e91c6 -->
<g id="node45" class="node">
<title>claim_342e91c6</title>
<polygon fill="lightyellow" stroke="none" points="1276.62,-28.25 1276.62,-132.25 1621.38,-132.25 1621.38,-28.25 1276.62,-28.25"/>
<text xml:space="preserve" text-anchor="start" x="1362.38" y="-112.95" font-family="Times,serif" font-weight="bold" font-size="14.00">SilencedOpinion_MayBeTrue</text>
<text xml:space="preserve" text-anchor="start" x="1370.62" y="-84.45" font-family="Times,serif" font-style="italic" font-size="14.00">True dissent may be silenced</text>
<text xml:space="preserve" text-anchor="start" x="1283.62" y="-55.5" font-family="Times,serif" font-size="14.00">A silenced opinion may be true, so suppressing it may block</text>
<text xml:space="preserve" text-anchor="start" x="1283.62" y="-39" font-family="Times,serif" font-size="14.00">the replacement of error with truth.</text>
<polygon fill="none" stroke="black" points="1276.62,-28.25 1276.62,-132.25 1621.38,-132.25 1621.38,-28.25 1276.62,-28.25"/>
</g>
<!-- var_342e91c6&#45;&gt;claim_342e91c6 -->
<!-- claim_380257f7 -->
<g id="node46" class="node">
<title>claim_380257f7</title>
<polygon fill="lightyellow" stroke="none" points="2388.75,-28.25 2388.75,-132.25 2749.25,-132.25 2749.25,-28.25 2388.75,-28.25"/>
<text xml:space="preserve" text-anchor="start" x="2463.25" y="-112.95" font-family="Times,serif" font-weight="bold" font-size="14.00">Suppression_Harms_Understanding</text>
<text xml:space="preserve" text-anchor="start" x="2476.38" y="-84.45" font-family="Times,serif" font-style="italic" font-size="14.00">Suppression harms understanding</text>
<text xml:space="preserve" text-anchor="start" x="2395.75" y="-55.5" font-family="Times,serif" font-size="14.00">Suppressing discussion weakens understanding, moral courage,</text>
<text xml:space="preserve" text-anchor="start" x="2395.75" y="-39" font-family="Times,serif" font-size="14.00">and the capacity to correct error.</text>
<polygon fill="none" stroke="black" points="2388.75,-28.25 2388.75,-132.25 2749.25,-132.25 2749.25,-28.25 2388.75,-28.25"/>
</g>
<!-- var_380257f7&#45;&gt;claim_380257f7 -->
<!-- claim_3823cbad -->
<g id="node47" class="node">
<title>claim_3823cbad</title>
<polygon fill="lightyellow" stroke="none" points="1655.88,-28.25 1655.88,-132.25 1990.12,-132.25 1990.12,-28.25 1655.88,-28.25"/>
<text xml:space="preserve" text-anchor="start" x="1733.38" y="-112.95" font-family="Times,serif" font-weight="bold" font-size="14.00">Suppression_Harms_Mankind</text>
<text xml:space="preserve" text-anchor="start" x="1746.12" y="-84.45" font-family="Times,serif" font-style="italic" font-size="14.00">Suppression harms mankind</text>
<text xml:space="preserve" text-anchor="start" x="1662.88" y="-55.5" font-family="Times,serif" font-size="14.00">Suppressing opinions harms mankind by obstructing truth,</text>
<text xml:space="preserve" text-anchor="start" x="1662.88" y="-39" font-family="Times,serif" font-size="14.00">partial truth, and living understanding.</text>
<polygon fill="none" stroke="black" points="1655.88,-28.25 1655.88,-132.25 1990.12,-132.25 1990.12,-28.25 1655.88,-28.25"/>
</g>
<!-- var_3823cbad&#45;&gt;claim_3823cbad -->
<!-- var_6029a382 -->
<g id="node34" class="node">
<title>var_6029a382</title>
<polygon fill="lightblue" stroke="black" points="367.38,-532.75 260.62,-532.75 260.62,-491.75 367.38,-491.75 367.38,-532.75"/>
<text xml:space="preserve" text-anchor="middle" x="314" y="-515.45" font-family="Times,serif" font-size="14.00">P0</text>
<text xml:space="preserve" text-anchor="middle" x="314" y="-498.95" font-family="Times,serif" font-size="14.00">(premise&#45;bound)</text>
</g>
<!-- var_6029a382&#45;&gt;dbecfef5_anchor -->
<g id="edge29" class="edge">
<title>var_6029a382&#45;&gt;dbecfef5_anchor</title>
<path fill="none" stroke="blue" stroke-width="2" d="M314,-491.41C314,-482.72 314,-471.89 314,-460.41"/>
<polygon fill="blue" stroke="blue" stroke-width="2" points="317.5,-462.28 314,-452.28 310.5,-462.28 317.5,-462.28"/>
<text xml:space="preserve" text-anchor="middle" x="321.12" y="-460.45" font-family="Times,serif" font-size="14.00">P0</text>
</g>
<!-- claim_6e883b2f -->
<g id="node48" class="node">
<title>claim_6e883b2f</title>
<polygon fill="lightyellow" stroke="none" points="2023.75,-28.25 2023.75,-132.25 2354.25,-132.25 2354.25,-28.25 2023.75,-28.25"/>
<text xml:space="preserve" text-anchor="start" x="2116.62" y="-112.95" font-family="Times,serif" font-weight="bold" font-size="14.00">FalseOpinion_PartTruth</text>
<text xml:space="preserve" text-anchor="start" x="2103.12" y="-84.45" font-family="Times,serif" font-style="italic" font-size="14.00">False dissent may contain truth</text>
<text xml:space="preserve" text-anchor="start" x="2030.75" y="-55.5" font-family="Times,serif" font-size="14.00">Even when a silenced opinion is false, it may contain part</text>
<text xml:space="preserve" text-anchor="start" x="2030.75" y="-39" font-family="Times,serif" font-size="14.00">of the truth that prevailing opinion lacks.</text>
<polygon fill="none" stroke="black" points="2023.75,-28.25 2023.75,-132.25 2354.25,-132.25 2354.25,-28.25 2023.75,-28.25"/>
</g>
<!-- var_6e883b2f&#45;&gt;claim_6e883b2f -->
<!-- var_82549d1a -->
<g id="node36" class="node">
<title>var_82549d1a</title>
<polygon fill="lightblue" stroke="black" points="3219.38,-532.75 3112.62,-532.75 3112.62,-491.75 3219.38,-491.75 3219.38,-532.75"/>
<text xml:space="preserve" text-anchor="middle" x="3166" y="-515.45" font-family="Times,serif" font-size="14.00">P3</text>
<text xml:space="preserve" text-anchor="middle" x="3166" y="-498.95" font-family="Times,serif" font-size="14.00">(premise&#45;bound)</text>
</g>
<!-- var_82549d1a&#45;&gt;ae92cf27_anchor -->
<g id="edge30" class="edge">
<title>var_82549d1a&#45;&gt;ae92cf27_anchor</title>
<path fill="none" stroke="blue" stroke-width="2" d="M3166,-491.41C3166,-482.72 3166,-471.89 3166,-460.41"/>
<polygon fill="blue" stroke="blue" stroke-width="2" points="3169.5,-462.28 3166,-452.28 3162.5,-462.28 3169.5,-462.28"/>
<text xml:space="preserve" text-anchor="middle" x="3173.12" y="-460.45" font-family="Times,serif" font-size="14.00">P3</text>
</g>
<!-- var_9c37717e -->
<g id="node37" class="node">
<title>var_9c37717e</title>
<polygon fill="lightblue" stroke="black" points="1210.38,-747.25 1103.62,-747.25 1103.62,-706.25 1210.38,-706.25 1210.38,-747.25"/>
<text xml:space="preserve" text-anchor="middle" x="1157" y="-729.95" font-family="Times,serif" font-size="14.00">P5</text>
<text xml:space="preserve" text-anchor="middle" x="1157" y="-713.45" font-family="Times,serif" font-size="14.00">(premise&#45;bound)</text>
</g>
<!-- var_9c37717e&#45;&gt;5cf8a70e_anchor -->
<g id="edge31" class="edge">
<title>var_9c37717e&#45;&gt;5cf8a70e_anchor</title>
<path fill="none" stroke="blue" stroke-width="2" d="M1157,-705.83C1157,-697.18 1157,-686.41 1157,-674.93"/>
<polygon fill="blue" stroke="blue" stroke-width="2" points="1160.5,-676.77 1157,-666.77 1153.5,-676.77 1160.5,-676.77"/>
<text xml:space="preserve" text-anchor="middle" x="1164.12" y="-674.95" font-family="Times,serif" font-size="14.00">P5</text>
</g>
<!-- claim_b34ee918 -->
<g id="node49" class="node">
<title>claim_b34ee918</title>
<polygon fill="lightyellow" stroke="none" points="2783.12,-20 2783.12,-140.5 3094.88,-140.5 3094.88,-20 2783.12,-20"/>
<text xml:space="preserve" text-anchor="start" x="2844.5" y="-121.2" font-family="Times,serif" font-weight="bold" font-size="14.00">Discussion_Needed_LivingTruth</text>
<text xml:space="preserve" text-anchor="start" x="2870.38" y="-92.7" font-family="Times,serif" font-style="italic" font-size="14.00">Discussion vitalizes truth</text>
<text xml:space="preserve" text-anchor="start" x="2790.12" y="-63.75" font-family="Times,serif" font-size="14.00">Even if the received opinion is true, free and open</text>
<text xml:space="preserve" text-anchor="start" x="2790.12" y="-47.25" font-family="Times,serif" font-size="14.00">contestation is needed for people to grasp it as a living</text>
<text xml:space="preserve" text-anchor="start" x="2790.12" y="-30.75" font-family="Times,serif" font-size="14.00">truth rather than a dead dogma.</text>
<polygon fill="none" stroke="black" points="2783.12,-20 2783.12,-140.5 3094.88,-140.5 3094.88,-20 2783.12,-20"/>
</g>
<!-- var_b34ee918&#45;&gt;claim_b34ee918 -->
<!-- var_c649f96a -->
<g id="node39" class="node">
<title>var_c649f96a</title>
<polygon fill="lightblue" stroke="black" points="2208.38,-532.75 2101.62,-532.75 2101.62,-491.75 2208.38,-491.75 2208.38,-532.75"/>
<text xml:space="preserve" text-anchor="middle" x="2155" y="-515.45" font-family="Times,serif" font-size="14.00">P2</text>
<text xml:space="preserve" text-anchor="middle" x="2155" y="-498.95" font-family="Times,serif" font-size="14.00">(premise&#45;bound)</text>
</g>
<!-- var_c649f96a&#45;&gt;4662530a_anchor -->
<g id="edge32" class="edge">
<title>var_c649f96a&#45;&gt;4662530a_anchor</title>
<path fill="none" stroke="blue" stroke-width="2" d="M2155,-491.41C2155,-482.72 2155,-471.89 2155,-460.41"/>
<polygon fill="blue" stroke="blue" stroke-width="2" points="2158.5,-462.28 2155,-452.28 2151.5,-462.28 2158.5,-462.28"/>
<text xml:space="preserve" text-anchor="middle" x="2162.12" y="-460.45" font-family="Times,serif" font-size="14.00">P2</text>
</g>
<!-- var_d55fd143 -->
<g id="node40" class="node">
<title>var_d55fd143</title>
<polygon fill="lightblue" stroke="black" points="2652.38,-532.75 2545.62,-532.75 2545.62,-491.75 2652.38,-491.75 2652.38,-532.75"/>
<text xml:space="preserve" text-anchor="middle" x="2599" y="-515.45" font-family="Times,serif" font-size="14.00">P4</text>
<text xml:space="preserve" text-anchor="middle" x="2599" y="-498.95" font-family="Times,serif" font-size="14.00">(premise&#45;bound)</text>
</g>
<!-- var_d55fd143&#45;&gt;5dc3a2b3_anchor -->
<g id="edge33" class="edge">
<title>var_d55fd143&#45;&gt;5dc3a2b3_anchor</title>
<path fill="none" stroke="blue" stroke-width="2" d="M2599,-491.41C2599,-482.72 2599,-471.89 2599,-460.41"/>
<polygon fill="blue" stroke="blue" stroke-width="2" points="2602.5,-462.28 2599,-452.28 2595.5,-462.28 2602.5,-462.28"/>
<text xml:space="preserve" text-anchor="middle" x="2606.12" y="-460.45" font-family="Times,serif" font-size="14.00">P4</text>
</g>
<!-- var_f181a7c3 -->
<g id="node41" class="node">
<title>var_f181a7c3</title>
<polygon fill="lightblue" stroke="black" points="1781.38,-532.75 1674.62,-532.75 1674.62,-491.75 1781.38,-491.75 1781.38,-532.75"/>
<text xml:space="preserve" text-anchor="middle" x="1728" y="-515.45" font-family="Times,serif" font-size="14.00">P1</text>
<text xml:space="preserve" text-anchor="middle" x="1728" y="-498.95" font-family="Times,serif" font-size="14.00">(premise&#45;bound)</text>
</g>
<!-- var_f181a7c3&#45;&gt;ffe59cb8_anchor -->
<g id="edge34" class="edge">
<title>var_f181a7c3&#45;&gt;ffe59cb8_anchor</title>
<path fill="none" stroke="blue" stroke-width="2" d="M1728,-491.41C1728,-482.72 1728,-471.89 1728,-460.41"/>
<polygon fill="blue" stroke="blue" stroke-width="2" points="1731.5,-462.28 1728,-452.28 1724.5,-462.28 1731.5,-462.28"/>
<text xml:space="preserve" text-anchor="middle" x="1735.12" y="-460.45" font-family="Times,serif" font-size="14.00">P1</text>
</g>
</g>
</svg>
