<?xml version="1.0" encoding="UTF-8" standalone="no"?>
<!DOCTYPE svg PUBLIC "-//W3C//DTD SVG 1.1//EN"
 "http://www.w3.org/Graphics/SVG/1.1/DTD/svg11.dtd">
<!-- Generated by graphviz version 14.1.3 (20260303.0454)
 -->
<!-- Title: argument Pages: 1 -->
<svg width="2462pt" height="1187pt"
 viewBox="0.00 0.00 2462.00 1187.00" xmlns="http://www.w3.org/2000/svg" xmlns:xlink="http://www.w3.org/1999/xlink">
<g id="graph0" class="graph" transform="scale(1 1) rotate(0) translate(4 1182.65)">
<title>argument</title>
<polygon fill="white" stroke="none" points="-4,4 -4,-1182.65 2457.5,-1182.65 2457.5,4 -4,4"/>
<text xml:space="preserve" text-anchor="middle" x="1226.75" y="-1159.45" font-family="Times,serif" font-size="16.00">Obergefell majority constitutional holding</text>
<g id="clust1" class="cluster">
<title>cluster_55e04b2a</title>
<polygon fill="none" stroke="#00cd00" stroke-width="2" points="8,-325.75 8,-956.9 797,-956.9 797,-325.75 8,-325.75"/>
<text xml:space="preserve" text-anchor="middle" x="402.5" y="-937.7" font-family="Times,serif" font-size="16.00">Fundamental&#45;right reasoning extends to same&#45;sex co</text>
<text xml:space="preserve" text-anchor="middle" x="402.5" y="-918.95" font-family="Times,serif" font-size="16.00">(((((Marriage_Fundamental ∧ Reasons_Apply_Equally)) ∧ Exclusion_Burdens_Rights)) → SS_Couples_May_Marry)</text>
</g>
<g id="clust2" class="cluster">
<title>cluster_5c5a9c0d</title>
<polygon fill="none" stroke="#00cd00" stroke-width="2" points="1538,-325.75 1538,-734.11 2198,-734.11 2198,-325.75 1538,-325.75"/>
<text xml:space="preserve" text-anchor="middle" x="1868" y="-714.91" font-family="Times,serif" font-size="16.00">States must license and recognize same&#45;sex marriag</text>
<text xml:space="preserve" text-anchor="middle" x="1868" y="-696.16" font-family="Times,serif" font-size="16.00">(((SS_Couples_May_Marry ∧ No_Basis_Deny_Recognition)) → States_Must_License_Recognize)</text>
</g>
<g id="clust3" class="cluster">
<title>cluster_b2df5124</title>
<polygon fill="none" stroke="#00cd00" stroke-width="2" points="1125,-325.75 1125,-511.14 1530,-511.14 1530,-325.75 1125,-325.75"/>
<text xml:space="preserve" text-anchor="middle" x="1327.5" y="-491.94" font-family="Times,serif" font-size="16.00">Marriage right defeats recognition bans</text>
<text xml:space="preserve" text-anchor="middle" x="1327.5" y="-473.19" font-family="Times,serif" font-size="16.00">(SS_Couples_May_Marry → No_Basis_Deny_Recognition)</text>
</g>
<g id="clust4" class="cluster">
<title>cluster_claims</title>
</g>
<!-- eval_summary -->
<g id="node1" class="node">
<title>eval_summary</title>
<polygon fill="white" stroke="none" points="557.75,-1003.4 557.75,-1147.9 696.25,-1147.9 696.25,-1003.4 557.75,-1003.4"/>
<text xml:space="preserve" text-anchor="start" x="608.62" y="-1128.6" font-family="Times,serif" font-weight="bold" font-size="14.00" fill="#28a745">Sound</text>
<text xml:space="preserve" text-anchor="start" x="564.75" y="-1099.65" font-family="Times,serif" font-size="14.00">admissible</text>
<text xml:space="preserve" text-anchor="start" x="668.25" y="-1099.65" font-family="Times,serif" font-size="14.00">true</text>
<text xml:space="preserve" text-anchor="start" x="564.75" y="-1071.15" font-family="Times,serif" font-size="14.00">all supporting</text>
<text xml:space="preserve" text-anchor="start" x="668.25" y="-1071.15" font-family="Times,serif" font-size="14.00">true</text>
<text xml:space="preserve" text-anchor="start" x="564.75" y="-1042.65" font-family="Times,serif" font-size="14.00">conclusion true</text>
<text xml:space="preserve" text-anchor="start" x="668.25" y="-1042.65" font-family="Times,serif" font-size="14.00">true</text>
<text xml:space="preserve" text-anchor="start" x="564.75" y="-1014.15" font-family="Times,serif" font-size="14.00">counterexample</text>
<text xml:space="preserve" text-anchor="start" x="663.75" y="-1014.15" font-family="Times,serif" font-size="14.00">false</text>
<polygon fill="none" stroke="black" points="557.75,-1003.4 557.75,-1147.9 696.25,-1147.9 696.25,-1003.4 557.75,-1003.4"/>
</g>
<!-- 1492ed96 -->
<g id="node2" class="node">
<title>1492ed96</title>
<polygon fill="#d4edda" stroke="green" points="567,-453.5 523.33,-435.5 567,-417.5 610.67,-435.5 567,-453.5"/>
<polygon fill="none" stroke="green" points="567,-457.83 512.83,-435.5 567,-413.17 621.17,-435.5 567,-457.83"/>
<text xml:space="preserve" text-anchor="middle" x="567" y="-430.45" font-family="Times,serif" font-size="14.00">AND</text>
</g>
<!-- 711407c3 -->
<g id="node6" class="node">
<title>711407c3</title>
<polygon fill="#d4edda" stroke="black" points="642.12,-369.75 491.88,-369.75 491.88,-333.75 642.12,-333.75 642.12,-369.75"/>
<text xml:space="preserve" text-anchor="middle" x="567" y="-346.7" font-family="Times,serif" font-size="14.00">Reasons_Apply_Equally</text>
</g>
<!-- 1492ed96&#45;&gt;711407c3 -->
<g id="edge8" class="edge">
<title>1492ed96&#45;&gt;711407c3</title>
<path fill="none" stroke="black" d="M567,-413.02C567,-403.43 567,-391.99 567,-381.66"/>
<polygon fill="black" stroke="black" points="570.5,-381.75 567,-371.75 563.5,-381.75 570.5,-381.75"/>
</g>
<!-- eae25b34 -->
<g id="node10" class="node">
<title>eae25b34</title>
<polygon fill="#d4edda" stroke="black" points="452.12,-369.75 307.88,-369.75 307.88,-333.75 452.12,-333.75 452.12,-369.75"/>
<text xml:space="preserve" text-anchor="middle" x="380" y="-346.7" font-family="Times,serif" font-size="14.00">Marriage_Fundamental</text>
</g>
<!-- 1492ed96&#45;&gt;eae25b34 -->
<g id="edge5" class="edge">
<title>1492ed96&#45;&gt;eae25b34</title>
<path fill="none" stroke="black" d="M541.39,-423.3C512.89,-410.85 466.14,-390.41 430.28,-374.73"/>
<polygon fill="black" stroke="black" points="431.95,-371.64 421.39,-370.84 429.15,-378.06 431.95,-371.64"/>
</g>
<!-- 2e9a346b -->
<g id="node3" class="node">
<title>2e9a346b</title>
<polygon fill="#d4edda" stroke="black" points="788.75,-815.11 633.25,-815.11 633.25,-779.11 788.75,-779.11 788.75,-815.11"/>
<text xml:space="preserve" text-anchor="middle" x="711" y="-792.06" font-family="Times,serif" font-size="14.00">SS_Couples_May_Marry</text>
</g>
<!-- var_67ca1f55 -->
<g id="node25" class="node">
<title>var_67ca1f55</title>
<polygon fill="#d4edda" stroke="black" points="1405.25,-296.75 1132.75,-296.75 1132.75,-239.25 1405.25,-239.25 1405.25,-296.75"/>
<text xml:space="preserve" text-anchor="middle" x="1269" y="-279.45" font-family="Times,serif" font-size="14.00">SS_Couples_May_Marry</text>
<text xml:space="preserve" text-anchor="middle" x="1269" y="-262.95" font-family="Times,serif" font-size="14.00">(claim: Same&#45;sex couples have marriage right)</text>
<text xml:space="preserve" text-anchor="middle" x="1269" y="-246.45" font-family="Times,serif" font-size="14.00">= true</text>
</g>
<!-- 2e9a346b&#45;&gt;var_67ca1f55 -->
<g id="edge16" class="edge">
<title>2e9a346b&#45;&gt;var_67ca1f55</title>
<path fill="none" stroke="black" stroke-dasharray="1,5" d="M789.24,-784.52C904.64,-765.18 1107,-721.75 1107,-654.97 1107,-654.97 1107,-654.97 1107,-350.75 1107,-326.34 1121.85,-309.21 1142.55,-297.2"/>
</g>
<!-- 4814698b -->
<g id="node4" class="node">
<title>4814698b</title>
<polygon fill="#d4edda" stroke="green" points="625,-894.75 558.17,-876.75 625,-858.75 691.83,-876.75 625,-894.75"/>
<polygon fill="none" stroke="green" points="625,-898.9 542.79,-876.75 625,-854.61 707.21,-876.75 625,-898.9"/>
<text xml:space="preserve" text-anchor="middle" x="625" y="-871.7" font-family="Times,serif" font-size="14.00">IMPLIES</text>
</g>
<!-- 4814698b&#45;&gt;2e9a346b -->
<g id="edge6" class="edge">
<title>4814698b&#45;&gt;2e9a346b</title>
<path fill="none" stroke="black" d="M643.24,-859.29C654.97,-848.7 670.43,-834.74 683.62,-822.83"/>
<polygon fill="black" stroke="black" points="685.69,-825.67 690.77,-816.38 681,-820.48 685.69,-825.67"/>
</g>
<!-- 9744468f -->
<g id="node8" class="node">
<title>9744468f</title>
<ellipse fill="#d4edda" stroke="black" cx="588" cy="-797.11" rx="27" ry="18"/>
<text xml:space="preserve" text-anchor="middle" x="588" y="-791.31" font-family="Times,serif" font-size="14.00">ⓕ</text>
</g>
<!-- 4814698b&#45;&gt;9744468f -->
<g id="edge3" class="edge">
<title>4814698b&#45;&gt;9744468f</title>
<path fill="none" stroke="black" d="M615.85,-856.56C611.31,-847.03 605.75,-835.35 600.79,-824.95"/>
<polygon fill="black" stroke="black" points="604.03,-823.6 596.56,-816.08 597.71,-826.62 604.03,-823.6"/>
</g>
<!-- 5ac4e976 -->
<g id="node5" class="node">
<title>5ac4e976</title>
<polygon fill="#d4edda" stroke="black" points="781.88,-592.14 618.12,-592.14 618.12,-556.14 781.88,-556.14 781.88,-592.14"/>
<text xml:space="preserve" text-anchor="middle" x="700" y="-569.09" font-family="Times,serif" font-size="14.00">Exclusion_Burdens_Rights</text>
</g>
<!-- var_ab418381 -->
<g id="node29" class="node">
<title>var_ab418381</title>
<polygon fill="#d4edda" stroke="black" points="1078.62,-464.25 805.38,-464.25 805.38,-406.75 1078.62,-406.75 1078.62,-464.25"/>
<text xml:space="preserve" text-anchor="middle" x="942" y="-446.95" font-family="Times,serif" font-size="14.00">Exclusion_Burdens_Rights</text>
<text xml:space="preserve" text-anchor="middle" x="942" y="-430.45" font-family="Times,serif" font-size="14.00">(claim: Exclusion burdens liberty and equality)</text>
<text xml:space="preserve" text-anchor="middle" x="942" y="-413.95" font-family="Times,serif" font-size="14.00">= true</text>
</g>
<!-- 5ac4e976&#45;&gt;var_ab418381 -->
<g id="edge17" class="edge">
<title>5ac4e976&#45;&gt;var_ab418381</title>
<path fill="none" stroke="black" stroke-dasharray="1,5" d="M730.65,-555.84C771.35,-532.86 843.73,-491.99 892.3,-464.56"/>
</g>
<!-- var_d9520490 -->
<g id="node30" class="node">
<title>var_d9520490</title>
<polygon fill="#d4edda" stroke="black" points="659.75,-296.75 474.25,-296.75 474.25,-239.25 659.75,-239.25 659.75,-296.75"/>
<text xml:space="preserve" text-anchor="middle" x="567" y="-279.45" font-family="Times,serif" font-size="14.00">Reasons_Apply_Equally</text>
<text xml:space="preserve" text-anchor="middle" x="567" y="-262.95" font-family="Times,serif" font-size="14.00">(claim: Reasons apply equally)</text>
<text xml:space="preserve" text-anchor="middle" x="567" y="-246.45" font-family="Times,serif" font-size="14.00">= true</text>
</g>
<!-- 711407c3&#45;&gt;var_d9520490 -->
<g id="edge18" class="edge">
<title>711407c3&#45;&gt;var_d9520490</title>
<path fill="none" stroke="black" stroke-dasharray="1,5" d="M567,-333.41C567,-322.91 567,-309.27 567,-297.25"/>
</g>
<!-- 8197dfd2 -->
<g id="node7" class="node">
<title>8197dfd2</title>
<polygon fill="#d4edda" stroke="green" points="588,-671.97 544.33,-653.97 588,-635.97 631.67,-653.97 588,-671.97"/>
<polygon fill="none" stroke="green" points="588,-676.3 533.83,-653.97 588,-631.64 642.17,-653.97 588,-676.3"/>
<text xml:space="preserve" text-anchor="middle" x="588" y="-648.92" font-family="Times,serif" font-size="14.00">AND</text>
</g>
<!-- 8197dfd2&#45;&gt;5ac4e976 -->
<g id="edge7" class="edge">
<title>8197dfd2&#45;&gt;5ac4e976</title>
<path fill="none" stroke="black" d="M607.51,-639.41C623.49,-628.31 646.48,-612.33 665.55,-599.08"/>
<polygon fill="black" stroke="black" points="667.36,-602.08 673.58,-593.5 663.37,-596.33 667.36,-602.08"/>
</g>
<!-- bd5889da -->
<g id="node9" class="node">
<title>bd5889da</title>
<ellipse fill="#d4edda" stroke="black" cx="569" cy="-574.14" rx="27" ry="18"/>
<text xml:space="preserve" text-anchor="middle" x="569" y="-568.34" font-family="Times,serif" font-size="14.00">ⓕ</text>
</g>
<!-- 8197dfd2&#45;&gt;bd5889da -->
<g id="edge4" class="edge">
<title>8197dfd2&#45;&gt;bd5889da</title>
<path fill="none" stroke="black" d="M583.21,-633.33C580.99,-624.27 578.33,-613.34 575.9,-603.41"/>
<polygon fill="black" stroke="black" points="579.34,-602.75 573.57,-593.86 572.54,-604.41 579.34,-602.75"/>
</g>
<!-- 9744468f&#45;&gt;8197dfd2 -->
<g id="edge2" class="edge">
<title>9744468f&#45;&gt;8197dfd2</title>
<path fill="none" stroke="black" d="M588,-778.8C588,-756.26 588,-716.38 588,-687.97"/>
<polygon fill="black" stroke="black" points="591.5,-688.09 588,-678.09 584.5,-688.09 591.5,-688.09"/>
</g>
<!-- bd5889da&#45;&gt;1492ed96 -->
<g id="edge1" class="edge">
<title>bd5889da&#45;&gt;1492ed96</title>
<path fill="none" stroke="black" d="M568.75,-555.84C568.43,-534.19 567.88,-496.68 567.48,-469.48"/>
<polygon fill="black" stroke="black" points="570.99,-469.62 567.34,-459.68 563.99,-469.73 570.99,-469.62"/>
</g>
<!-- var_9e33915f -->
<g id="node28" class="node">
<title>var_9e33915f</title>
<polygon fill="#d4edda" stroke="black" points="415.12,-296.75 216.88,-296.75 216.88,-239.25 415.12,-239.25 415.12,-296.75"/>
<text xml:space="preserve" text-anchor="middle" x="316" y="-279.45" font-family="Times,serif" font-size="14.00">Marriage_Fundamental</text>
<text xml:space="preserve" text-anchor="middle" x="316" y="-262.95" font-family="Times,serif" font-size="14.00">(claim: Marriage is fundamental)</text>
<text xml:space="preserve" text-anchor="middle" x="316" y="-246.45" font-family="Times,serif" font-size="14.00">= true</text>
</g>
<!-- eae25b34&#45;&gt;var_9e33915f -->
<g id="edge19" class="edge">
<title>eae25b34&#45;&gt;var_9e33915f</title>
<path fill="none" stroke="black" stroke-dasharray="1,5" d="M366.43,-333.41C358.21,-322.91 347.53,-309.27 338.11,-297.25"/>
</g>
<!-- 55e04b2a_anchor -->
<!-- 01f553c9 -->
<g id="node12" class="node">
<title>01f553c9</title>
<ellipse fill="#d4edda" stroke="black" cx="1861" cy="-574.14" rx="27" ry="18"/>
<text xml:space="preserve" text-anchor="middle" x="1861" y="-568.34" font-family="Times,serif" font-size="14.00">ⓕ</text>
</g>
<!-- 2fece549 -->
<g id="node13" class="node">
<title>2fece549</title>
<polygon fill="#d4edda" stroke="green" points="1808,-453.5 1764.33,-435.5 1808,-417.5 1851.67,-435.5 1808,-453.5"/>
<polygon fill="none" stroke="green" points="1808,-457.83 1753.83,-435.5 1808,-413.17 1862.17,-435.5 1808,-457.83"/>
<text xml:space="preserve" text-anchor="middle" x="1808" y="-430.45" font-family="Times,serif" font-size="14.00">AND</text>
</g>
<!-- 01f553c9&#45;&gt;2fece549 -->
<g id="edge10" class="edge">
<title>01f553c9&#45;&gt;2fece549</title>
<path fill="none" stroke="black" d="M1854.5,-556.39C1845.76,-533.84 1830.06,-493.37 1819.34,-465.75"/>
<polygon fill="black" stroke="black" points="1822.66,-464.61 1815.78,-456.55 1816.13,-467.14 1822.66,-464.61"/>
</g>
<!-- 35d1774b -->
<g id="node14" class="node">
<title>35d1774b</title>
<polygon fill="#d4edda" stroke="black" points="1896.62,-369.75 1719.38,-369.75 1719.38,-333.75 1896.62,-333.75 1896.62,-369.75"/>
<text xml:space="preserve" text-anchor="middle" x="1808" y="-346.7" font-family="Times,serif" font-size="14.00">No_Basis_Deny_Recognition</text>
</g>
<!-- 2fece549&#45;&gt;35d1774b -->
<g id="edge12" class="edge">
<title>2fece549&#45;&gt;35d1774b</title>
<path fill="none" stroke="black" d="M1808,-413.02C1808,-403.43 1808,-391.99 1808,-381.66"/>
<polygon fill="black" stroke="black" points="1811.5,-381.75 1808,-371.75 1804.5,-381.75 1811.5,-381.75"/>
</g>
<!-- 6a458c37 -->
<g id="node16" class="node">
<title>6a458c37</title>
<polygon fill="#d4edda" stroke="black" points="1701.75,-369.75 1546.25,-369.75 1546.25,-333.75 1701.75,-333.75 1701.75,-369.75"/>
<text xml:space="preserve" text-anchor="middle" x="1624" y="-346.7" font-family="Times,serif" font-size="14.00">SS_Couples_May_Marry</text>
</g>
<!-- 2fece549&#45;&gt;6a458c37 -->
<g id="edge11" class="edge">
<title>2fece549&#45;&gt;6a458c37</title>
<path fill="none" stroke="black" d="M1782.8,-423.3C1754.76,-410.85 1708.76,-390.41 1673.47,-374.73"/>
<polygon fill="black" stroke="black" points="1675.3,-371.71 1664.74,-370.85 1672.46,-378.11 1675.3,-371.71"/>
</g>
<!-- var_ebc3249b -->
<g id="node31" class="node">
<title>var_ebc3249b</title>
<polygon fill="#d4edda" stroke="black" points="1822.88,-296.75 1593.12,-296.75 1593.12,-239.25 1822.88,-239.25 1822.88,-296.75"/>
<text xml:space="preserve" text-anchor="middle" x="1708" y="-279.45" font-family="Times,serif" font-size="14.00">No_Basis_Deny_Recognition</text>
<text xml:space="preserve" text-anchor="middle" x="1708" y="-262.95" font-family="Times,serif" font-size="14.00">(claim: Recognition lacks lawful basis)</text>
<text xml:space="preserve" text-anchor="middle" x="1708" y="-246.45" font-family="Times,serif" font-size="14.00">= true</text>
</g>
<!-- 35d1774b&#45;&gt;var_ebc3249b -->
<g id="edge20" class="edge">
<title>35d1774b&#45;&gt;var_ebc3249b</title>
<path fill="none" stroke="black" stroke-dasharray="1,5" d="M1786.79,-333.41C1773.95,-322.91 1757.26,-309.27 1742.55,-297.25"/>
</g>
<!-- 4c2a15fe -->
<g id="node15" class="node">
<title>4c2a15fe</title>
<polygon fill="#d4edda" stroke="green" points="1927,-671.97 1860.17,-653.97 1927,-635.97 1993.83,-653.97 1927,-671.97"/>
<polygon fill="none" stroke="green" points="1927,-676.11 1844.79,-653.97 1927,-631.83 2009.21,-653.97 1927,-676.11"/>
<text xml:space="preserve" text-anchor="middle" x="1927" y="-648.92" font-family="Times,serif" font-size="14.00">IMPLIES</text>
</g>
<!-- 4c2a15fe&#45;&gt;01f553c9 -->
<g id="edge9" class="edge">
<title>4c2a15fe&#45;&gt;01f553c9</title>
<path fill="none" stroke="black" d="M1912.35,-635.7C1903.15,-624.85 1891.16,-610.71 1881.08,-598.82"/>
<polygon fill="black" stroke="black" points="1883.94,-596.78 1874.8,-591.42 1878.6,-601.31 1883.94,-596.78"/>
</g>
<!-- b28fad68 -->
<g id="node17" class="node">
<title>b28fad68</title>
<polygon fill="#d4edda" stroke="black" points="2172,-592.14 1976,-592.14 1976,-556.14 2172,-556.14 2172,-592.14"/>
<text xml:space="preserve" text-anchor="middle" x="2074" y="-569.09" font-family="Times,serif" font-size="14.00">States_Must_License_Recognize</text>
</g>
<!-- 4c2a15fe&#45;&gt;b28fad68 -->
<g id="edge13" class="edge">
<title>4c2a15fe&#45;&gt;b28fad68</title>
<path fill="none" stroke="black" d="M1953.96,-638.69C1975.53,-627.28 2006.17,-611.06 2031.09,-597.86"/>
<polygon fill="black" stroke="black" points="2032.5,-601.08 2039.7,-593.3 2029.22,-594.89 2032.5,-601.08"/>
</g>
<!-- 6a458c37&#45;&gt;var_67ca1f55 -->
<g id="edge21" class="edge">
<title>6a458c37&#45;&gt;var_67ca1f55</title>
<path fill="none" stroke="black" stroke-dasharray="1,5" d="M1563.13,-333.31C1553.41,-330.68 1543.45,-328.07 1534,-325.75 1492.42,-315.53 1446.92,-305.41 1405.53,-296.6"/>
</g>
<!-- var_9138c85e -->
<g id="node27" class="node">
<title>var_9138c85e</title>
<polygon fill="#d4edda" stroke="black" points="2453.5,-464.25 2206.5,-464.25 2206.5,-406.75 2453.5,-406.75 2453.5,-464.25"/>
<text xml:space="preserve" text-anchor="middle" x="2330" y="-446.95" font-family="Times,serif" font-size="14.00">States_Must_License_Recognize</text>
<text xml:space="preserve" text-anchor="middle" x="2330" y="-430.45" font-family="Times,serif" font-size="14.00">(claim: States must license and recognize)</text>
<text xml:space="preserve" text-anchor="middle" x="2330" y="-413.95" font-family="Times,serif" font-size="14.00">= true</text>
</g>
<!-- b28fad68&#45;&gt;var_9138c85e -->
<g id="edge22" class="edge">
<title>b28fad68&#45;&gt;var_9138c85e</title>
<path fill="none" stroke="black" stroke-dasharray="1,5" d="M2111.91,-555.72C2137.59,-543.69 2172.14,-527.05 2202,-511.14 2229.47,-496.51 2259.57,-479.03 2283.67,-464.67"/>
</g>
<!-- 5c5a9c0d_anchor -->
<!-- 0dd0baa8 -->
<g id="node19" class="node">
<title>0dd0baa8</title>
<polygon fill="#d4edda" stroke="black" points="1521.62,-369.75 1344.38,-369.75 1344.38,-333.75 1521.62,-333.75 1521.62,-369.75"/>
<text xml:space="preserve" text-anchor="middle" x="1433" y="-346.7" font-family="Times,serif" font-size="14.00">No_Basis_Deny_Recognition</text>
</g>
<!-- 0dd0baa8&#45;&gt;var_ebc3249b -->
<g id="edge23" class="edge">
<title>0dd0baa8&#45;&gt;var_ebc3249b</title>
<path fill="none" stroke="black" stroke-dasharray="1,5" d="M1491.66,-333.31C1526.99,-322.81 1572.82,-309.19 1613.19,-297.18"/>
</g>
<!-- 657c46af -->
<g id="node20" class="node">
<title>657c46af</title>
<polygon fill="#d4edda" stroke="black" points="1326.75,-369.75 1171.25,-369.75 1171.25,-333.75 1326.75,-333.75 1326.75,-369.75"/>
<text xml:space="preserve" text-anchor="middle" x="1249" y="-346.7" font-family="Times,serif" font-size="14.00">SS_Couples_May_Marry</text>
</g>
<!-- 657c46af&#45;&gt;var_67ca1f55 -->
<g id="edge24" class="edge">
<title>657c46af&#45;&gt;var_67ca1f55</title>
<path fill="none" stroke="black" stroke-dasharray="1,5" d="M1253.24,-333.41C1255.81,-322.91 1259.15,-309.27 1262.09,-297.25"/>
</g>
<!-- 720e4235 -->
<g id="node21" class="node">
<title>720e4235</title>
<polygon fill="#d4edda" stroke="green" points="1297,-453.5 1230.17,-435.5 1297,-417.5 1363.83,-435.5 1297,-453.5"/>
<polygon fill="none" stroke="green" points="1297,-457.64 1214.79,-435.5 1297,-413.36 1379.21,-435.5 1297,-457.64"/>
<text xml:space="preserve" text-anchor="middle" x="1297" y="-430.45" font-family="Times,serif" font-size="14.00">IMPLIES</text>
</g>
<!-- 720e4235&#45;&gt;0dd0baa8 -->
<g id="edge15" class="edge">
<title>720e4235&#45;&gt;0dd0baa8</title>
<path fill="none" stroke="black" d="M1321.63,-419.7C1341.99,-407.46 1371.25,-389.87 1394.68,-375.79"/>
<polygon fill="black" stroke="black" points="1396.25,-378.92 1403.02,-370.77 1392.64,-372.93 1396.25,-378.92"/>
</g>
<!-- 720e4235&#45;&gt;657c46af -->
<g id="edge14" class="edge">
<title>720e4235&#45;&gt;657c46af</title>
<path fill="none" stroke="black" d="M1286.11,-415.95C1279.86,-405.31 1271.91,-391.76 1264.96,-379.94"/>
<polygon fill="black" stroke="black" points="1268.04,-378.27 1259.96,-371.41 1262,-381.81 1268.04,-378.27"/>
</g>
<!-- b2df5124_anchor -->
<!-- var_21c0740d -->
<g id="node23" class="node">
<title>var_21c0740d</title>
<polygon fill="lightblue" stroke="black" points="2221.38,-817.61 2114.62,-817.61 2114.62,-776.61 2221.38,-776.61 2221.38,-817.61"/>
<text xml:space="preserve" text-anchor="middle" x="2168" y="-800.31" font-family="Times,serif" font-size="14.00">P2</text>
<text xml:space="preserve" text-anchor="middle" x="2168" y="-783.81" font-family="Times,serif" font-size="14.00">(premise&#45;bound)</text>
</g>
<!-- var_21c0740d&#45;&gt;5c5a9c0d_anchor -->
<g id="edge25" class="edge">
<title>var_21c0740d&#45;&gt;5c5a9c0d_anchor</title>
<path fill="none" stroke="blue" stroke-width="2" d="M2168,-776.19C2168,-767.58 2168,-756.83 2168,-745.33"/>
<polygon fill="blue" stroke="blue" stroke-width="2" points="2171.5,-747.14 2168,-737.14 2164.5,-747.14 2171.5,-747.14"/>
<text xml:space="preserve" text-anchor="middle" x="2175.12" y="-745.31" font-family="Times,serif" font-size="14.00">P2</text>
</g>
<!-- var_65be93c1 -->
<g id="node24" class="node">
<title>var_65be93c1</title>
<polygon fill="lightblue" stroke="black" points="1514.38,-594.64 1407.62,-594.64 1407.62,-553.64 1514.38,-553.64 1514.38,-594.64"/>
<text xml:space="preserve" text-anchor="middle" x="1461" y="-577.34" font-family="Times,serif" font-size="14.00">P1</text>
<text xml:space="preserve" text-anchor="middle" x="1461" y="-560.84" font-family="Times,serif" font-size="14.00">(premise&#45;bound)</text>
</g>
<!-- var_65be93c1&#45;&gt;b2df5124_anchor -->
<g id="edge26" class="edge">
<title>var_65be93c1&#45;&gt;b2df5124_anchor</title>
<path fill="none" stroke="blue" stroke-width="2" d="M1461,-553.27C1461,-544.62 1461,-533.83 1461,-522.33"/>
<polygon fill="blue" stroke="blue" stroke-width="2" points="1464.5,-524.17 1461,-514.17 1457.5,-524.17 1464.5,-524.17"/>
<text xml:space="preserve" text-anchor="middle" x="1468.12" y="-522.34" font-family="Times,serif" font-size="14.00">P1</text>
</g>
<!-- claim_67ca1f55 -->
<g id="node32" class="node">
<title>claim_67ca1f55</title>
<polygon fill="lightyellow" stroke="none" points="1146.75,-44.75 1146.75,-148.75 1507.25,-148.75 1507.25,-44.75 1146.75,-44.75"/>
<text xml:space="preserve" text-anchor="start" x="1253.12" y="-129.45" font-family="Times,serif" font-weight="bold" font-size="14.00">SS_Couples_May_Marry</text>
<text xml:space="preserve" text-anchor="start" x="1222.38" y="-100.95" font-family="Times,serif" font-style="italic" font-size="14.00">Same&#45;sex couples have marriage right</text>
<text xml:space="preserve" text-anchor="start" x="1153.75" y="-72" font-family="Times,serif" font-size="14.00">Same&#45;sex couples may exercise the fundamental right to marry</text>
<text xml:space="preserve" text-anchor="start" x="1153.75" y="-55.5" font-family="Times,serif" font-size="14.00">under the Fourteenth Amendment.</text>
<polygon fill="none" stroke="black" points="1146.75,-44.75 1146.75,-148.75 1507.25,-148.75 1507.25,-44.75 1146.75,-44.75"/>
</g>
<!-- var_67ca1f55&#45;&gt;claim_67ca1f55 -->
<!-- var_773f95c3 -->
<g id="node26" class="node">
<title>var_773f95c3</title>
<polygon fill="lightblue" stroke="black" points="829.38,-1096.15 722.62,-1096.15 722.62,-1055.15 829.38,-1055.15 829.38,-1096.15"/>
<text xml:space="preserve" text-anchor="middle" x="776" y="-1078.85" font-family="Times,serif" font-size="14.00">P0</text>
<text xml:space="preserve" text-anchor="middle" x="776" y="-1062.35" font-family="Times,serif" font-size="14.00">(premise&#45;bound)</text>
</g>
<!-- var_773f95c3&#45;&gt;55e04b2a_anchor -->
<g id="edge27" class="edge">
<title>var_773f95c3&#45;&gt;55e04b2a_anchor</title>
<path fill="none" stroke="blue" stroke-width="2" d="M776,-1054.68C776,-1034.13 776,-1000.62 776,-968.27"/>
<polygon fill="blue" stroke="blue" stroke-width="2" points="779.5,-969.92 776,-959.92 772.5,-969.92 779.5,-969.92"/>
<text xml:space="preserve" text-anchor="middle" x="783.12" y="-968.1" font-family="Times,serif" font-size="14.00">P0</text>
</g>
<!-- claim_9138c85e -->
<g id="node33" class="node">
<title>claim_9138c85e</title>
<polygon fill="lightyellow" stroke="none" points="1909,-36.5 1909,-157 2265,-157 2265,-36.5 1909,-36.5"/>
<text xml:space="preserve" text-anchor="start" x="1993.25" y="-137.7" font-family="Times,serif" font-weight="bold" font-size="14.00">States_Must_License_Recognize</text>
<text xml:space="preserve" text-anchor="start" x="1995.5" y="-109.2" font-family="Times,serif" font-style="italic" font-size="14.00">States must license and recognize</text>
<text xml:space="preserve" text-anchor="start" x="1916" y="-80.25" font-family="Times,serif" font-size="14.00">States must license marriages between two people of the same</text>
<text xml:space="preserve" text-anchor="start" x="1916" y="-63.75" font-family="Times,serif" font-size="14.00">sex and must recognize lawful same&#45;sex marriages performed</text>
<text xml:space="preserve" text-anchor="start" x="1916" y="-47.25" font-family="Times,serif" font-size="14.00">in another State.</text>
<polygon fill="none" stroke="black" points="1909,-36.5 1909,-157 2265,-157 2265,-36.5 1909,-36.5"/>
</g>
<!-- var_9138c85e&#45;&gt;claim_9138c85e -->
<!-- claim_9e33915f -->
<g id="node34" class="node">
<title>claim_9e33915f</title>
<polygon fill="lightyellow" stroke="none" points="27.75,-44.75 27.75,-148.75 358.25,-148.75 358.25,-44.75 27.75,-44.75"/>
<text xml:space="preserve" text-anchor="start" x="122.88" y="-129.45" font-family="Times,serif" font-weight="bold" font-size="14.00">Marriage_Fundamental</text>
<text xml:space="preserve" text-anchor="start" x="124.75" y="-100.95" font-family="Times,serif" font-style="italic" font-size="14.00">Marriage is fundamental</text>
<text xml:space="preserve" text-anchor="start" x="34.75" y="-72" font-family="Times,serif" font-size="14.00">The right to marry is a fundamental right protected by the</text>
<text xml:space="preserve" text-anchor="start" x="34.75" y="-55.5" font-family="Times,serif" font-size="14.00">Constitution under the Fourteenth Amendment.</text>
<polygon fill="none" stroke="black" points="27.75,-44.75 27.75,-148.75 358.25,-148.75 358.25,-44.75 27.75,-44.75"/>
</g>
<!-- var_9e33915f&#45;&gt;claim_9e33915f -->
<!-- claim_ab418381 -->
<g id="node35" class="node">
<title>claim_ab418381</title>
<polygon fill="lightyellow" stroke="none" points="775.38,-36.5 775.38,-157 1112.62,-157 1112.62,-36.5 775.38,-36.5"/>
<text xml:space="preserve" text-anchor="start" x="866" y="-137.7" font-family="Times,serif" font-weight="bold" font-size="14.00">Exclusion_Burdens_Rights</text>
<text xml:space="preserve" text-anchor="start" x="838.62" y="-109.2" font-family="Times,serif" font-style="italic" font-size="14.00">Exclusion burdens liberty and equality</text>
<text xml:space="preserve" text-anchor="start" x="782.38" y="-80.25" font-family="Times,serif" font-size="14.00">State laws excluding same&#45;sex couples from civil marriage</text>
<text xml:space="preserve" text-anchor="start" x="782.38" y="-63.75" font-family="Times,serif" font-size="14.00">burden their liberty and abridge central precepts of</text>
<text xml:space="preserve" text-anchor="start" x="782.38" y="-47.25" font-family="Times,serif" font-size="14.00">equality.</text>
<polygon fill="none" stroke="black" points="775.38,-36.5 775.38,-157 1112.62,-157 1112.62,-36.5 775.38,-36.5"/>
</g>
<!-- var_ab418381&#45;&gt;claim_ab418381 -->
<!-- claim_d9520490 -->
<g id="node36" class="node">
<title>claim_d9520490</title>
<polygon fill="lightyellow" stroke="none" points="392.75,-44.75 392.75,-148.75 741.25,-148.75 741.25,-44.75 392.75,-44.75"/>
<text xml:space="preserve" text-anchor="start" x="496.5" y="-129.45" font-family="Times,serif" font-weight="bold" font-size="14.00">Reasons_Apply_Equally</text>
<text xml:space="preserve" text-anchor="start" x="505.88" y="-100.95" font-family="Times,serif" font-style="italic" font-size="14.00">Reasons apply equally</text>
<text xml:space="preserve" text-anchor="start" x="399.75" y="-72" font-family="Times,serif" font-size="14.00">The constitutional reasons that make marriage a fundamental</text>
<text xml:space="preserve" text-anchor="start" x="399.75" y="-55.5" font-family="Times,serif" font-size="14.00">right apply with equal force to same&#45;sex couples.</text>
<polygon fill="none" stroke="black" points="392.75,-44.75 392.75,-148.75 741.25,-148.75 741.25,-44.75 392.75,-44.75"/>
</g>
<!-- var_d9520490&#45;&gt;claim_d9520490 -->
<!-- claim_ebc3249b -->
<g id="node37" class="node">
<title>claim_ebc3249b</title>
<polygon fill="lightyellow" stroke="none" points="1540.88,-20 1540.88,-173.5 1875.12,-173.5 1875.12,-20 1540.88,-20"/>
<text xml:space="preserve" text-anchor="start" x="1625.12" y="-154.2" font-family="Times,serif" font-weight="bold" font-size="14.00">No_Basis_Deny_Recognition</text>
<text xml:space="preserve" text-anchor="start" x="1625.12" y="-125.7" font-family="Times,serif" font-style="italic" font-size="14.00">Recognition lacks lawful basis</text>
<text xml:space="preserve" text-anchor="start" x="1547.88" y="-96.75" font-family="Times,serif" font-size="14.00">If same&#45;sex couples may exercise the fundamental right to</text>
<text xml:space="preserve" text-anchor="start" x="1547.88" y="-80.25" font-family="Times,serif" font-size="14.00">marry in all States, then no lawful basis exists for a State</text>
<text xml:space="preserve" text-anchor="start" x="1547.88" y="-63.75" font-family="Times,serif" font-size="14.00">to refuse recognition to a lawful same&#45;sex marriage</text>
<text xml:space="preserve" text-anchor="start" x="1547.88" y="-47.25" font-family="Times,serif" font-size="14.00">performed in another State because of its same&#45;sex</text>
<text xml:space="preserve" text-anchor="start" x="1547.88" y="-30.75" font-family="Times,serif" font-size="14.00">character.</text>
<polygon fill="none" stroke="black" points="1540.88,-20 1540.88,-173.5 1875.12,-173.5 1875.12,-20 1540.88,-20"/>
</g>
<!-- var_ebc3249b&#45;&gt;claim_ebc3249b -->
</g>
</svg>
