<?xml version="1.0" encoding="UTF-8" standalone="no"?>
<!DOCTYPE svg PUBLIC "-//W3C//DTD SVG 1.1//EN"
 "http://www.w3.org/Graphics/SVG/1.1/DTD/svg11.dtd">
<!-- Generated by graphviz version 14.1.3 (20260303.0454)
 -->
<!-- Title: argument Pages: 1 -->
<svg width="2808pt" height="841pt"
 viewBox="0.00 0.00 2808.00 841.00" xmlns="http://www.w3.org/2000/svg" xmlns:xlink="http://www.w3.org/1999/xlink">
<g id="graph0" class="graph" transform="scale(1 1) rotate(0) translate(4 837)">
<title>argument</title>
<polygon fill="white" stroke="none" points="-4,4 -4,-837 2804,-837 2804,4 -4,4"/>
<text xml:space="preserve" text-anchor="middle" x="1400" y="-813.8" font-family="Times,serif" font-size="16.00">Federalist 10 on Union and faction</text>
<g id="clust1" class="cluster">
<title>cluster_349e4fd5</title>
<polygon fill="none" stroke="#666666" stroke-dasharray="5,2" points="1442,-276.25 1442,-508.25 1785,-508.25 1785,-276.25 1442,-276.25"/>
<text xml:space="preserve" text-anchor="middle" x="1613.5" y="-489.05" font-family="Times,serif" font-size="16.00">Majority faction makes pure democracy inadequate</text>
<text xml:space="preserve" text-anchor="middle" x="1613.5" y="-470.3" font-family="Times,serif" font-size="16.00">(MajFaction_Threat → Democracy_No_Cure)</text>
</g>
<g id="clust2" class="cluster">
<title>cluster_34e5a924</title>
<polygon fill="none" stroke="red" stroke-width="2" points="541,-276.25 541,-722.75 1081,-722.75 1081,-276.25 541,-276.25"/>
<text xml:space="preserve" text-anchor="middle" x="811" y="-703.55" font-family="Times,serif" font-size="16.00">A large republic makes the Union the remedy</text>
<text xml:space="preserve" text-anchor="middle" x="811" y="-684.8" font-family="Times,serif" font-size="16.00">(((Republic_Better ∧ LargeRep_Hinders)) → Union_Remedy) &#160;[CONCLUSION]</text>
</g>
<g id="clust3" class="cluster">
<title>cluster_389396bc</title>
<polygon fill="none" stroke="#666666" stroke-dasharray="5,2" points="2478,-276.25 2478,-373.75 2792,-373.75 2792,-276.25 2478,-276.25"/>
<text xml:space="preserve" text-anchor="middle" x="2635" y="-354.55" font-family="Times,serif" font-size="16.00">Factions arise unavoidably from human nature</text>
<text xml:space="preserve" text-anchor="middle" x="2635" y="-335.8" font-family="Times,serif" font-size="16.00">Faction_Inevitable</text>
</g>
<g id="clust4" class="cluster">
<title>cluster_6cf26583</title>
<polygon fill="none" stroke="#666666" stroke-dasharray="5,2" points="2137,-276.25 2137,-508.25 2470,-508.25 2470,-276.25 2137,-276.25"/>
<text xml:space="preserve" text-anchor="middle" x="2303.5" y="-489.05" font-family="Times,serif" font-size="16.00">If causes cannot be removed, only effects can be c</text>
<text xml:space="preserve" text-anchor="middle" x="2303.5" y="-470.3" font-family="Times,serif" font-size="16.00">(Faction_Inevitable → Control_Effects_Only)</text>
</g>
<g id="clust5" class="cluster">
<title>cluster_7f85133c</title>
<polygon fill="none" stroke="#666666" stroke-dasharray="5,2" points="1089,-276.25 1089,-373.75 1434,-373.75 1434,-276.25 1089,-276.25"/>
<text xml:space="preserve" text-anchor="middle" x="1261.5" y="-354.55" font-family="Times,serif" font-size="16.00">Large republics obstruct oppressive majority combi</text>
<text xml:space="preserve" text-anchor="middle" x="1261.5" y="-335.8" font-family="Times,serif" font-size="16.00">LargeRep_Hinders</text>
</g>
<g id="clust6" class="cluster">
<title>cluster_9bfe3003</title>
<polygon fill="none" stroke="#666666" stroke-dasharray="5,2" points="1793,-276.25 1793,-373.75 2129,-373.75 2129,-276.25 1793,-276.25"/>
<text xml:space="preserve" text-anchor="middle" x="1961" y="-354.55" font-family="Times,serif" font-size="16.00">Majority factions endanger rights and the public g</text>
<text xml:space="preserve" text-anchor="middle" x="1961" y="-335.8" font-family="Times,serif" font-size="16.00">MajFaction_Threat</text>
</g>
<g id="clust7" class="cluster">
<title>cluster_d56fa29f</title>
<polygon fill="none" stroke="#666666" stroke-dasharray="5,2" points="204,-276.25 204,-508.25 533,-508.25 533,-276.25 204,-276.25"/>
<text xml:space="preserve" text-anchor="middle" x="368.5" y="-489.05" font-family="Times,serif" font-size="16.00">If democracy cannot cure faction, republic is pref</text>
<text xml:space="preserve" text-anchor="middle" x="368.5" y="-470.3" font-family="Times,serif" font-size="16.00">(Democracy_No_Cure → Republic_Better)</text>
</g>
<g id="clust8" class="cluster">
<title>cluster_claims</title>
</g>
<!-- 202c1916 -->
<g id="node1" class="node">
<title>202c1916</title>
<polygon fill="none" stroke="black" points="1591.62,-320.25 1456.38,-320.25 1456.38,-284.25 1591.62,-284.25 1591.62,-320.25"/>
<text xml:space="preserve" text-anchor="middle" x="1524" y="-297.2" font-family="Times,serif" font-size="14.00">Democracy_No_Cure</text>
</g>
<!-- var_0e5b4aa9 -->
<g id="node26" class="node">
<title>var_0e5b4aa9</title>
<polygon fill="lightyellow" stroke="black" points="1059.88,-247.25 800.12,-247.25 800.12,-206.25 1059.88,-206.25 1059.88,-247.25"/>
<text xml:space="preserve" text-anchor="middle" x="930" y="-229.95" font-family="Times,serif" font-size="14.00">Democracy_No_Cure</text>
<text xml:space="preserve" text-anchor="middle" x="930" y="-213.45" font-family="Times,serif" font-size="14.00">(claim: Pure democracy cannot cure faction)</text>
</g>
<!-- 202c1916&#45;&gt;var_0e5b4aa9 -->
<g id="edge12" class="edge">
<title>202c1916&#45;&gt;var_0e5b4aa9</title>
<path fill="none" stroke="black" stroke-dasharray="1,5" d="M1469.79,-283.75C1459.33,-280.87 1448.39,-278.2 1438,-276.25 1292.85,-249.06 1253.96,-261.78 1107,-247.25 1091.77,-245.74 1075.81,-244.09 1059.98,-242.41"/>
</g>
<!-- 47138273 -->
<g id="node2" class="node">
<title>47138273</title>
<polygon fill="none" stroke="black" points="1733.5,-320.25 1612.5,-320.25 1612.5,-284.25 1733.5,-284.25 1733.5,-320.25"/>
<text xml:space="preserve" text-anchor="middle" x="1673" y="-297.2" font-family="Times,serif" font-size="14.00">MajFaction_Threat</text>
</g>
<!-- var_b47c122c -->
<g id="node36" class="node">
<title>var_b47c122c</title>
<polygon fill="lightyellow" stroke="black" points="1807.75,-247.25 1568.25,-247.25 1568.25,-206.25 1807.75,-206.25 1807.75,-247.25"/>
<text xml:space="preserve" text-anchor="middle" x="1688" y="-229.95" font-family="Times,serif" font-size="14.00">MajFaction_Threat</text>
<text xml:space="preserve" text-anchor="middle" x="1688" y="-213.45" font-family="Times,serif" font-size="14.00">(claim: Majority factions threaten rights)</text>
</g>
<!-- 47138273&#45;&gt;var_b47c122c -->
<g id="edge13" class="edge">
<title>47138273&#45;&gt;var_b47c122c</title>
<path fill="none" stroke="black" stroke-dasharray="1,5" d="M1676.55,-283.83C1678.77,-272.96 1681.63,-258.94 1683.94,-247.64"/>
</g>
<!-- f9ddeb66 -->
<g id="node3" class="node">
<title>f9ddeb66</title>
<polygon fill="none" stroke="black" points="1567,-454.75 1500.17,-436.75 1567,-418.75 1633.83,-436.75 1567,-454.75"/>
<text xml:space="preserve" text-anchor="middle" x="1567" y="-431.7" font-family="Times,serif" font-size="14.00">IMPLIES</text>
</g>
<!-- f9ddeb66&#45;&gt;202c1916 -->
<g id="edge2" class="edge">
<title>f9ddeb66&#45;&gt;202c1916</title>
<path fill="none" stroke="black" d="M1561.81,-419.77C1554.7,-397.85 1541.8,-358.11 1533.07,-331.2"/>
<polygon fill="black" stroke="black" points="1536.5,-330.42 1530.08,-321.99 1529.84,-332.58 1536.5,-330.42"/>
</g>
<!-- f9ddeb66&#45;&gt;47138273 -->
<g id="edge1" class="edge">
<title>f9ddeb66&#45;&gt;47138273</title>
<path fill="none" stroke="black" d="M1578.34,-421.57C1595.91,-399.62 1629.95,-357.06 1652.07,-329.42"/>
<polygon fill="black" stroke="black" points="1654.61,-331.84 1658.12,-321.85 1649.14,-327.47 1654.61,-331.84"/>
</g>
<!-- 349e4fd5_anchor -->
<!-- 3ff0336a -->
<g id="node5" class="node">
<title>3ff0336a</title>
<ellipse fill="none" stroke="black" cx="696" cy="-571.25" rx="27" ry="18"/>
<text xml:space="preserve" text-anchor="middle" x="696" y="-565.45" font-family="Times,serif" font-size="14.00">ⓕ</text>
</g>
<!-- f8af0b63 -->
<g id="node10" class="node">
<title>f8af0b63</title>
<polygon fill="none" stroke="black" points="696,-454.75 652.33,-436.75 696,-418.75 739.67,-436.75 696,-454.75"/>
<text xml:space="preserve" text-anchor="middle" x="696" y="-431.7" font-family="Times,serif" font-size="14.00">AND</text>
</g>
<!-- 3ff0336a&#45;&gt;f8af0b63 -->
<g id="edge5" class="edge">
<title>3ff0336a&#45;&gt;f8af0b63</title>
<path fill="none" stroke="black" d="M696,-552.93C696,-530.91 696,-492.59 696,-466.24"/>
<polygon fill="black" stroke="black" points="699.5,-466.59 696,-456.59 692.5,-466.59 699.5,-466.59"/>
</g>
<!-- a1d02388 -->
<g id="node6" class="node">
<title>a1d02388</title>
<polygon fill="none" stroke="black" points="656,-664.75 589.17,-646.75 656,-628.75 722.83,-646.75 656,-664.75"/>
<text xml:space="preserve" text-anchor="middle" x="656" y="-641.7" font-family="Times,serif" font-size="14.00">IMPLIES</text>
</g>
<!-- a1d02388&#45;&gt;3ff0336a -->
<g id="edge3" class="edge">
<title>a1d02388&#45;&gt;3ff0336a</title>
<path fill="none" stroke="black" d="M664.29,-630.52C669.35,-621.22 675.96,-609.07 681.84,-598.28"/>
<polygon fill="black" stroke="black" points="684.74,-600.27 686.44,-589.81 678.59,-596.92 684.74,-600.27"/>
</g>
<!-- ab769752 -->
<g id="node7" class="node">
<title>ab769752</title>
<polygon fill="none" stroke="black" points="651.12,-589.25 548.88,-589.25 548.88,-553.25 651.12,-553.25 651.12,-589.25"/>
<text xml:space="preserve" text-anchor="middle" x="600" y="-566.2" font-family="Times,serif" font-size="14.00">Union_Remedy</text>
</g>
<!-- a1d02388&#45;&gt;ab769752 -->
<g id="edge6" class="edge">
<title>a1d02388&#45;&gt;ab769752</title>
<path fill="none" stroke="black" d="M644.94,-631.23C637.81,-621.88 628.35,-609.46 619.94,-598.43"/>
<polygon fill="black" stroke="black" points="622.97,-596.62 614.13,-590.79 617.4,-600.86 622.97,-596.62"/>
</g>
<!-- var_2a26a834 -->
<g id="node29" class="node">
<title>var_2a26a834</title>
<polygon fill="lightyellow" stroke="black" points="273.5,-247.25 98.5,-247.25 98.5,-206.25 273.5,-206.25 273.5,-247.25"/>
<text xml:space="preserve" text-anchor="middle" x="186" y="-229.95" font-family="Times,serif" font-size="14.00">Union_Remedy</text>
<text xml:space="preserve" text-anchor="middle" x="186" y="-213.45" font-family="Times,serif" font-size="14.00">(claim: Union is the remedy)</text>
</g>
<!-- ab769752&#45;&gt;var_2a26a834 -->
<g id="edge14" class="edge">
<title>ab769752&#45;&gt;var_2a26a834</title>
<path fill="none" stroke="black" stroke-dasharray="1,5" d="M548.63,-570.01C451.28,-568.36 245.57,-558.82 200,-508.25 132.92,-433.82 164.51,-298.13 179.59,-247.5"/>
</g>
<!-- bdcc86d9 -->
<g id="node8" class="node">
<title>bdcc86d9</title>
<polygon fill="none" stroke="black" points="976.38,-320.25 857.62,-320.25 857.62,-284.25 976.38,-284.25 976.38,-320.25"/>
<text xml:space="preserve" text-anchor="middle" x="917" y="-297.2" font-family="Times,serif" font-size="14.00">LargeRep_Hinders</text>
</g>
<!-- var_16dbfe9d -->
<g id="node28" class="node">
<title>var_16dbfe9d</title>
<polygon fill="lightyellow" stroke="black" points="1414.38,-247.25 1115.62,-247.25 1115.62,-206.25 1414.38,-206.25 1414.38,-247.25"/>
<text xml:space="preserve" text-anchor="middle" x="1265" y="-229.95" font-family="Times,serif" font-size="14.00">LargeRep_Hinders</text>
<text xml:space="preserve" text-anchor="middle" x="1265" y="-213.45" font-family="Times,serif" font-size="14.00">(claim: Large republics hinder majority oppression)</text>
</g>
<!-- bdcc86d9&#45;&gt;var_16dbfe9d -->
<g id="edge15" class="edge">
<title>bdcc86d9&#45;&gt;var_16dbfe9d</title>
<path fill="none" stroke="black" stroke-dasharray="1,5" d="M976.82,-288.61C1030.07,-277.37 1108.86,-260.73 1170.6,-247.69"/>
</g>
<!-- ede997b1 -->
<g id="node9" class="node">
<title>ede997b1</title>
<polygon fill="none" stroke="black" points="700.25,-320.25 595.75,-320.25 595.75,-284.25 700.25,-284.25 700.25,-320.25"/>
<text xml:space="preserve" text-anchor="middle" x="648" y="-297.2" font-family="Times,serif" font-size="14.00">Republic_Better</text>
</g>
<!-- var_75baaa6a -->
<g id="node33" class="node">
<title>var_75baaa6a</title>
<polygon fill="lightyellow" stroke="black" points="656.38,-247.25 447.62,-247.25 447.62,-206.25 656.38,-206.25 656.38,-247.25"/>
<text xml:space="preserve" text-anchor="middle" x="552" y="-229.95" font-family="Times,serif" font-size="14.00">Republic_Better</text>
<text xml:space="preserve" text-anchor="middle" x="552" y="-213.45" font-family="Times,serif" font-size="14.00">(claim: Republics improve control)</text>
</g>
<!-- ede997b1&#45;&gt;var_75baaa6a -->
<g id="edge16" class="edge">
<title>ede997b1&#45;&gt;var_75baaa6a</title>
<path fill="none" stroke="black" stroke-dasharray="1,5" d="M625.25,-283.83C611.06,-272.96 592.74,-258.94 577.98,-247.64"/>
</g>
<!-- f8af0b63&#45;&gt;bdcc86d9 -->
<g id="edge7" class="edge">
<title>f8af0b63&#45;&gt;bdcc86d9</title>
<path fill="none" stroke="black" d="M712.97,-425.57C748.08,-404.53 829.43,-355.75 878.14,-326.55"/>
<polygon fill="black" stroke="black" points="879.94,-329.55 886.71,-321.41 876.34,-323.55 879.94,-329.55"/>
</g>
<!-- f8af0b63&#45;&gt;ede997b1 -->
<g id="edge4" class="edge">
<title>f8af0b63&#45;&gt;ede997b1</title>
<path fill="none" stroke="black" d="M690.49,-420.55C682.61,-398.78 667.96,-358.35 658.1,-331.12"/>
<polygon fill="black" stroke="black" points="661.41,-329.99 654.71,-321.78 654.83,-332.37 661.41,-329.99"/>
</g>
<!-- 34e5a924_anchor -->
<!-- fbace7a1 -->
<g id="node12" class="node">
<title>fbace7a1</title>
<polygon fill="none" stroke="black" points="2603.62,-320.25 2486.38,-320.25 2486.38,-284.25 2603.62,-284.25 2603.62,-320.25"/>
<text xml:space="preserve" text-anchor="middle" x="2545" y="-297.2" font-family="Times,serif" font-size="14.00">Faction_Inevitable</text>
</g>
<!-- var_c53c3f32 -->
<g id="node38" class="node">
<title>var_c53c3f32</title>
<polygon fill="lightyellow" stroke="black" points="2523.12,-247.25 2336.88,-247.25 2336.88,-206.25 2523.12,-206.25 2523.12,-247.25"/>
<text xml:space="preserve" text-anchor="middle" x="2430" y="-229.95" font-family="Times,serif" font-size="14.00">Faction_Inevitable</text>
<text xml:space="preserve" text-anchor="middle" x="2430" y="-213.45" font-family="Times,serif" font-size="14.00">(claim: Factions are inevitable)</text>
</g>
<!-- fbace7a1&#45;&gt;var_c53c3f32 -->
<g id="edge17" class="edge">
<title>fbace7a1&#45;&gt;var_c53c3f32</title>
<path fill="none" stroke="black" stroke-dasharray="1,5" d="M2517.75,-283.83C2500.74,-272.96 2478.81,-258.94 2461.12,-247.64"/>
</g>
<!-- 389396bc_anchor -->
<!-- 289276a7 -->
<g id="node14" class="node">
<title>289276a7</title>
<polygon fill="none" stroke="black" points="2280,-454.75 2213.17,-436.75 2280,-418.75 2346.83,-436.75 2280,-454.75"/>
<text xml:space="preserve" text-anchor="middle" x="2280" y="-431.7" font-family="Times,serif" font-size="14.00">IMPLIES</text>
</g>
<!-- 3ccbc7e3 -->
<g id="node15" class="node">
<title>3ccbc7e3</title>
<polygon fill="none" stroke="black" points="2303,-320.25 2167,-320.25 2167,-284.25 2303,-284.25 2303,-320.25"/>
<text xml:space="preserve" text-anchor="middle" x="2235" y="-297.2" font-family="Times,serif" font-size="14.00">Control_Effects_Only</text>
</g>
<!-- 289276a7&#45;&gt;3ccbc7e3 -->
<g id="edge9" class="edge">
<title>289276a7&#45;&gt;3ccbc7e3</title>
<path fill="none" stroke="black" d="M2274.57,-419.77C2267.13,-397.85 2253.63,-358.11 2244.49,-331.2"/>
<polygon fill="black" stroke="black" points="2247.89,-330.33 2241.36,-321.98 2241.26,-332.58 2247.89,-330.33"/>
</g>
<!-- 82615468 -->
<g id="node16" class="node">
<title>82615468</title>
<polygon fill="none" stroke="black" points="2449.62,-320.25 2332.38,-320.25 2332.38,-284.25 2449.62,-284.25 2449.62,-320.25"/>
<text xml:space="preserve" text-anchor="middle" x="2391" y="-297.2" font-family="Times,serif" font-size="14.00">Faction_Inevitable</text>
</g>
<!-- 289276a7&#45;&gt;82615468 -->
<g id="edge8" class="edge">
<title>289276a7&#45;&gt;82615468</title>
<path fill="none" stroke="black" d="M2291.88,-421.57C2310.27,-399.62 2345.92,-357.06 2369.08,-329.42"/>
<polygon fill="black" stroke="black" points="2371.7,-331.74 2375.44,-321.83 2366.33,-327.24 2371.7,-331.74"/>
</g>
<!-- var_6aec36f6 -->
<g id="node32" class="node">
<title>var_6aec36f6</title>
<polygon fill="lightyellow" stroke="black" points="2244.75,-247.25 2017.25,-247.25 2017.25,-206.25 2244.75,-206.25 2244.75,-247.25"/>
<text xml:space="preserve" text-anchor="middle" x="2131" y="-229.95" font-family="Times,serif" font-size="14.00">Control_Effects_Only</text>
<text xml:space="preserve" text-anchor="middle" x="2131" y="-213.45" font-family="Times,serif" font-size="14.00">(claim: Only effects can be controlled)</text>
</g>
<!-- 3ccbc7e3&#45;&gt;var_6aec36f6 -->
<g id="edge18" class="edge">
<title>3ccbc7e3&#45;&gt;var_6aec36f6</title>
<path fill="none" stroke="black" stroke-dasharray="1,5" d="M2210.35,-283.83C2194.98,-272.96 2175.14,-258.94 2159.14,-247.64"/>
</g>
<!-- 82615468&#45;&gt;var_c53c3f32 -->
<g id="edge19" class="edge">
<title>82615468&#45;&gt;var_c53c3f32</title>
<path fill="none" stroke="black" stroke-dasharray="1,5" d="M2400.24,-283.83C2406.01,-272.96 2413.45,-258.94 2419.45,-247.64"/>
</g>
<!-- 6cf26583_anchor -->
<!-- a7992a61 -->
<g id="node18" class="node">
<title>a7992a61</title>
<polygon fill="none" stroke="black" points="1324.38,-320.25 1205.62,-320.25 1205.62,-284.25 1324.38,-284.25 1324.38,-320.25"/>
<text xml:space="preserve" text-anchor="middle" x="1265" y="-297.2" font-family="Times,serif" font-size="14.00">LargeRep_Hinders</text>
</g>
<!-- a7992a61&#45;&gt;var_16dbfe9d -->
<g id="edge20" class="edge">
<title>a7992a61&#45;&gt;var_16dbfe9d</title>
<path fill="none" stroke="black" stroke-dasharray="1,5" d="M1265,-283.83C1265,-272.96 1265,-258.94 1265,-247.64"/>
</g>
<!-- 7f85133c_anchor -->
<!-- 8882cdd5 -->
<g id="node20" class="node">
<title>8882cdd5</title>
<polygon fill="none" stroke="black" points="1922.5,-320.25 1801.5,-320.25 1801.5,-284.25 1922.5,-284.25 1922.5,-320.25"/>
<text xml:space="preserve" text-anchor="middle" x="1862" y="-297.2" font-family="Times,serif" font-size="14.00">MajFaction_Threat</text>
</g>
<!-- 8882cdd5&#45;&gt;var_b47c122c -->
<g id="edge21" class="edge">
<title>8882cdd5&#45;&gt;var_b47c122c</title>
<path fill="none" stroke="black" stroke-dasharray="1,5" d="M1820.76,-283.83C1795.04,-272.96 1761.85,-258.94 1735.09,-247.64"/>
</g>
<!-- 9bfe3003_anchor -->
<!-- 1bdd8be4 -->
<g id="node22" class="node">
<title>1bdd8be4</title>
<polygon fill="none" stroke="black" points="319,-454.75 252.17,-436.75 319,-418.75 385.83,-436.75 319,-454.75"/>
<text xml:space="preserve" text-anchor="middle" x="319" y="-431.7" font-family="Times,serif" font-size="14.00">IMPLIES</text>
</g>
<!-- 6ddf41ab -->
<g id="node23" class="node">
<title>6ddf41ab</title>
<polygon fill="none" stroke="black" points="371.25,-320.25 266.75,-320.25 266.75,-284.25 371.25,-284.25 371.25,-320.25"/>
<text xml:space="preserve" text-anchor="middle" x="319" y="-297.2" font-family="Times,serif" font-size="14.00">Republic_Better</text>
</g>
<!-- 1bdd8be4&#45;&gt;6ddf41ab -->
<g id="edge11" class="edge">
<title>1bdd8be4&#45;&gt;6ddf41ab</title>
<path fill="none" stroke="black" d="M319,-418.43C319,-396.41 319,-358.09 319,-331.74"/>
<polygon fill="black" stroke="black" points="322.5,-332.09 319,-322.09 315.5,-332.09 322.5,-332.09"/>
</g>
<!-- bb9c0017 -->
<g id="node24" class="node">
<title>bb9c0017</title>
<polygon fill="none" stroke="black" points="524.62,-320.25 389.38,-320.25 389.38,-284.25 524.62,-284.25 524.62,-320.25"/>
<text xml:space="preserve" text-anchor="middle" x="457" y="-297.2" font-family="Times,serif" font-size="14.00">Democracy_No_Cure</text>
</g>
<!-- 1bdd8be4&#45;&gt;bb9c0017 -->
<g id="edge10" class="edge">
<title>1bdd8be4&#45;&gt;bb9c0017</title>
<path fill="none" stroke="black" d="M332.99,-422.32C355.94,-400.28 401.93,-356.12 431,-328.21"/>
<polygon fill="black" stroke="black" points="433.19,-330.96 437.98,-321.51 428.34,-325.91 433.19,-330.96"/>
</g>
<!-- 6ddf41ab&#45;&gt;var_75baaa6a -->
<g id="edge22" class="edge">
<title>6ddf41ab&#45;&gt;var_75baaa6a</title>
<path fill="none" stroke="black" stroke-dasharray="1,5" d="M359.77,-283.79C366.48,-281.14 373.4,-278.52 380,-276.25 410.36,-265.79 444.28,-255.86 473.93,-247.74"/>
</g>
<!-- bb9c0017&#45;&gt;var_0e5b4aa9 -->
<g id="edge23" class="edge">
<title>bb9c0017&#45;&gt;var_0e5b4aa9</title>
<path fill="none" stroke="black" stroke-dasharray="1,5" d="M507.85,-283.86C517.45,-281 527.47,-278.31 537,-276.25 623.68,-257.52 722.8,-245.35 799.8,-237.88"/>
</g>
<!-- d56fa29f_anchor -->
<!-- claim_0e5b4aa9 -->
<g id="node40" class="node">
<title>claim_0e5b4aa9</title>
<polygon fill="lightyellow" stroke="none" points="756.5,-20 756.5,-140.5 1103.5,-140.5 1103.5,-20 756.5,-20"/>
<text xml:space="preserve" text-anchor="start" x="867.38" y="-121.2" font-family="Times,serif" font-weight="bold" font-size="14.00">Democracy_No_Cure</text>
<text xml:space="preserve" text-anchor="start" x="830.62" y="-92.7" font-family="Times,serif" font-style="italic" font-size="14.00">Pure democracy cannot cure faction</text>
<text xml:space="preserve" text-anchor="start" x="763.5" y="-63.75" font-family="Times,serif" font-size="14.00">A pure democracy cannot provide a cure for the mischiefs of</text>
<text xml:space="preserve" text-anchor="start" x="763.5" y="-47.25" font-family="Times,serif" font-size="14.00">faction because majorities can easily form, coordinate, and</text>
<text xml:space="preserve" text-anchor="start" x="763.5" y="-30.75" font-family="Times,serif" font-size="14.00">oppress weaker parties.</text>
<polygon fill="none" stroke="black" points="756.5,-20 756.5,-140.5 1103.5,-140.5 1103.5,-20 756.5,-20"/>
</g>
<!-- var_0e5b4aa9&#45;&gt;claim_0e5b4aa9 -->
<!-- var_0ef92daf -->
<g id="node27" class="node">
<title>var_0ef92daf</title>
<polygon fill="lightblue" stroke="black" points="1788.38,-591.75 1681.62,-591.75 1681.62,-550.75 1788.38,-550.75 1788.38,-591.75"/>
<text xml:space="preserve" text-anchor="middle" x="1735" y="-574.45" font-family="Times,serif" font-size="14.00">P1</text>
<text xml:space="preserve" text-anchor="middle" x="1735" y="-557.95" font-family="Times,serif" font-size="14.00">(premise&#45;bound)</text>
</g>
<!-- var_0ef92daf&#45;&gt;349e4fd5_anchor -->
<g id="edge24" class="edge">
<title>var_0ef92daf&#45;&gt;349e4fd5_anchor</title>
<path fill="none" stroke="blue" stroke-width="2" d="M1735,-550.41C1735,-541.72 1735,-530.89 1735,-519.41"/>
<polygon fill="blue" stroke="blue" stroke-width="2" points="1738.5,-521.28 1735,-511.28 1731.5,-521.28 1738.5,-521.28"/>
<text xml:space="preserve" text-anchor="middle" x="1742.12" y="-519.45" font-family="Times,serif" font-size="14.00">P1</text>
</g>
<!-- claim_16dbfe9d -->
<g id="node41" class="node">
<title>claim_16dbfe9d</title>
<polygon fill="lightyellow" stroke="none" points="1137.38,-20 1137.38,-140.5 1480.62,-140.5 1480.62,-20 1137.38,-20"/>
<text xml:space="preserve" text-anchor="start" x="1253.12" y="-121.2" font-family="Times,serif" font-weight="bold" font-size="14.00">LargeRep_Hinders</text>
<text xml:space="preserve" text-anchor="start" x="1190.12" y="-92.7" font-family="Times,serif" font-style="italic" font-size="14.00">Large republics hinder majority oppression</text>
<text xml:space="preserve" text-anchor="start" x="1144.38" y="-63.75" font-family="Times,serif" font-size="14.00">A large republic contains a greater variety of parties and</text>
<text xml:space="preserve" text-anchor="start" x="1144.38" y="-47.25" font-family="Times,serif" font-size="14.00">interests and makes it less likely and less feasible for a</text>
<text xml:space="preserve" text-anchor="start" x="1144.38" y="-30.75" font-family="Times,serif" font-size="14.00">majority faction to concert and execute oppressive schemes.</text>
<polygon fill="none" stroke="black" points="1137.38,-20 1137.38,-140.5 1480.62,-140.5 1480.62,-20 1137.38,-20"/>
</g>
<!-- var_16dbfe9d&#45;&gt;claim_16dbfe9d -->
<!-- claim_2a26a834 -->
<g id="node42" class="node">
<title>claim_2a26a834</title>
<polygon fill="lightyellow" stroke="none" points="24.5,-28.25 24.5,-132.25 347.5,-132.25 347.5,-28.25 24.5,-28.25"/>
<text xml:space="preserve" text-anchor="start" x="141" y="-112.95" font-family="Times,serif" font-weight="bold" font-size="14.00">Union_Remedy</text>
<text xml:space="preserve" text-anchor="start" x="130.88" y="-84.45" font-family="Times,serif" font-style="italic" font-size="14.00">Union is the remedy</text>
<text xml:space="preserve" text-anchor="start" x="31.5" y="-55.5" font-family="Times,serif" font-size="14.00">The extent and proper structure of the Union provide the</text>
<text xml:space="preserve" text-anchor="start" x="31.5" y="-39" font-family="Times,serif" font-size="14.00">best republican remedy for the diseases of faction.</text>
<polygon fill="none" stroke="black" points="24.5,-28.25 24.5,-132.25 347.5,-132.25 347.5,-28.25 24.5,-28.25"/>
</g>
<!-- var_2a26a834&#45;&gt;claim_2a26a834 -->
<!-- var_4393918c -->
<g id="node30" class="node">
<title>var_4393918c</title>
<polygon fill="lightblue" stroke="black" points="1415.38,-457.25 1308.62,-457.25 1308.62,-416.25 1415.38,-416.25 1415.38,-457.25"/>
<text xml:space="preserve" text-anchor="middle" x="1362" y="-439.95" font-family="Times,serif" font-size="14.00">P6</text>
<text xml:space="preserve" text-anchor="middle" x="1362" y="-423.45" font-family="Times,serif" font-size="14.00">(premise&#45;bound)</text>
</g>
<!-- var_4393918c&#45;&gt;7f85133c_anchor -->
<g id="edge25" class="edge">
<title>var_4393918c&#45;&gt;7f85133c_anchor</title>
<path fill="none" stroke="blue" stroke-width="2" d="M1362,-415.91C1362,-407.22 1362,-396.39 1362,-384.91"/>
<polygon fill="blue" stroke="blue" stroke-width="2" points="1365.5,-386.78 1362,-376.78 1358.5,-386.78 1365.5,-386.78"/>
<text xml:space="preserve" text-anchor="middle" x="1369.12" y="-384.95" font-family="Times,serif" font-size="14.00">P6</text>
</g>
<!-- var_5281da16 -->
<g id="node31" class="node">
<title>var_5281da16</title>
<polygon fill="lightblue" stroke="black" points="210.38,-591.75 103.62,-591.75 103.62,-550.75 210.38,-550.75 210.38,-591.75"/>
<text xml:space="preserve" text-anchor="middle" x="157" y="-574.45" font-family="Times,serif" font-size="14.00">P2</text>
<text xml:space="preserve" text-anchor="middle" x="157" y="-557.95" font-family="Times,serif" font-size="14.00">(premise&#45;bound)</text>
</g>
<!-- var_5281da16&#45;&gt;d56fa29f_anchor -->
<g id="edge26" class="edge">
<title>var_5281da16&#45;&gt;d56fa29f_anchor</title>
<path fill="none" stroke="blue" stroke-width="2" d="M210.87,-563.27C267.51,-554.88 352.97,-538.96 386.39,-515.7"/>
<polygon fill="blue" stroke="blue" stroke-width="2" points="387.44,-519.42 392.71,-510.23 382.86,-514.13 387.44,-519.42"/>
<text xml:space="preserve" text-anchor="middle" x="390.47" y="-519.45" font-family="Times,serif" font-size="14.00">P2</text>
</g>
<!-- claim_6aec36f6 -->
<g id="node43" class="node">
<title>claim_6aec36f6</title>
<polygon fill="lightyellow" stroke="none" points="1895.88,-28.25 1895.88,-132.25 2218.12,-132.25 2218.12,-28.25 1895.88,-28.25"/>
<text xml:space="preserve" text-anchor="start" x="1993.25" y="-112.95" font-family="Times,serif" font-weight="bold" font-size="14.00">Control_Effects_Only</text>
<text xml:space="preserve" text-anchor="start" x="1975.25" y="-84.45" font-family="Times,serif" font-style="italic" font-size="14.00">Only effects can be controlled</text>
<text xml:space="preserve" text-anchor="start" x="1902.88" y="-55.5" font-family="Times,serif" font-size="14.00">Relief from faction can be sought only by controlling its</text>
<text xml:space="preserve" text-anchor="start" x="1902.88" y="-39" font-family="Times,serif" font-size="14.00">effects rather than by removing its causes.</text>
<polygon fill="none" stroke="black" points="1895.88,-28.25 1895.88,-132.25 2218.12,-132.25 2218.12,-28.25 1895.88,-28.25"/>
</g>
<!-- var_6aec36f6&#45;&gt;claim_6aec36f6 -->
<!-- claim_75baaa6a -->
<g id="node44" class="node">
<title>claim_75baaa6a</title>
<polygon fill="lightyellow" stroke="none" points="381.12,-20 381.12,-140.5 722.88,-140.5 722.88,-20 381.12,-20"/>
<text xml:space="preserve" text-anchor="start" x="504.75" y="-121.2" font-family="Times,serif" font-weight="bold" font-size="14.00">Republic_Better</text>
<text xml:space="preserve" text-anchor="start" x="480" y="-92.7" font-family="Times,serif" font-style="italic" font-size="14.00">Republics improve control</text>
<text xml:space="preserve" text-anchor="start" x="388.12" y="-63.75" font-family="Times,serif" font-size="14.00">A republic controls the effects of faction better than a</text>
<text xml:space="preserve" text-anchor="start" x="388.12" y="-47.25" font-family="Times,serif" font-size="14.00">pure democracy because representation refines public views</text>
<text xml:space="preserve" text-anchor="start" x="388.12" y="-30.75" font-family="Times,serif" font-size="14.00">and offers a cure unavailable in pure democracy.</text>
<polygon fill="none" stroke="black" points="381.12,-20 381.12,-140.5 722.88,-140.5 722.88,-20 381.12,-20"/>
</g>
<!-- var_75baaa6a&#45;&gt;claim_75baaa6a -->
<!-- var_785751b1 -->
<g id="node34" class="node">
<title>var_785751b1</title>
<polygon fill="lightblue" stroke="black" points="2756.38,-457.25 2649.62,-457.25 2649.62,-416.25 2756.38,-416.25 2756.38,-457.25"/>
<text xml:space="preserve" text-anchor="middle" x="2703" y="-439.95" font-family="Times,serif" font-size="14.00">P4</text>
<text xml:space="preserve" text-anchor="middle" x="2703" y="-423.45" font-family="Times,serif" font-size="14.00">(premise&#45;bound)</text>
</g>
<!-- var_785751b1&#45;&gt;389396bc_anchor -->
<g id="edge27" class="edge">
<title>var_785751b1&#45;&gt;389396bc_anchor</title>
<path fill="none" stroke="blue" stroke-width="2" d="M2703,-415.91C2703,-407.22 2703,-396.39 2703,-384.91"/>
<polygon fill="blue" stroke="blue" stroke-width="2" points="2706.5,-386.78 2703,-376.78 2699.5,-386.78 2706.5,-386.78"/>
<text xml:space="preserve" text-anchor="middle" x="2710.12" y="-384.95" font-family="Times,serif" font-size="14.00">P4</text>
</g>
<!-- var_857a2b92 -->
<g id="node35" class="node">
<title>var_857a2b92</title>
<polygon fill="lightblue" stroke="black" points="2061.38,-457.25 1954.62,-457.25 1954.62,-416.25 2061.38,-416.25 2061.38,-457.25"/>
<text xml:space="preserve" text-anchor="middle" x="2008" y="-439.95" font-family="Times,serif" font-size="14.00">P5</text>
<text xml:space="preserve" text-anchor="middle" x="2008" y="-423.45" font-family="Times,serif" font-size="14.00">(premise&#45;bound)</text>
</g>
<!-- var_857a2b92&#45;&gt;9bfe3003_anchor -->
<g id="edge28" class="edge">
<title>var_857a2b92&#45;&gt;9bfe3003_anchor</title>
<path fill="none" stroke="blue" stroke-width="2" d="M2008,-415.91C2008,-407.22 2008,-396.39 2008,-384.91"/>
<polygon fill="blue" stroke="blue" stroke-width="2" points="2011.5,-386.78 2008,-376.78 2004.5,-386.78 2011.5,-386.78"/>
<text xml:space="preserve" text-anchor="middle" x="2015.12" y="-384.95" font-family="Times,serif" font-size="14.00">P5</text>
</g>
<!-- claim_b47c122c -->
<g id="node45" class="node">
<title>claim_b47c122c</title>
<polygon fill="lightyellow" stroke="none" points="1514.5,-20 1514.5,-140.5 1861.5,-140.5 1861.5,-20 1514.5,-20"/>
<text xml:space="preserve" text-anchor="start" x="1630.62" y="-121.2" font-family="Times,serif" font-weight="bold" font-size="14.00">MajFaction_Threat</text>
<text xml:space="preserve" text-anchor="start" x="1598.75" y="-92.7" font-family="Times,serif" font-style="italic" font-size="14.00">Majority factions threaten rights</text>
<text xml:space="preserve" text-anchor="start" x="1521.5" y="-63.75" font-family="Times,serif" font-size="14.00">When a majority forms a faction in a popular government, it</text>
<text xml:space="preserve" text-anchor="start" x="1521.5" y="-47.25" font-family="Times,serif" font-size="14.00">can sacrifice the public good and the rights of other</text>
<text xml:space="preserve" text-anchor="start" x="1521.5" y="-30.75" font-family="Times,serif" font-size="14.00">citizens.</text>
<polygon fill="none" stroke="black" points="1514.5,-20 1514.5,-140.5 1861.5,-140.5 1861.5,-20 1514.5,-20"/>
</g>
<!-- var_b47c122c&#45;&gt;claim_b47c122c -->
<!-- var_b697af83 -->
<g id="node37" class="node">
<title>var_b697af83</title>
<polygon fill="lightblue" stroke="black" points="960.38,-806.25 853.62,-806.25 853.62,-765.25 960.38,-765.25 960.38,-806.25"/>
<text xml:space="preserve" text-anchor="middle" x="907" y="-788.95" font-family="Times,serif" font-size="14.00">P3</text>
<text xml:space="preserve" text-anchor="middle" x="907" y="-772.45" font-family="Times,serif" font-size="14.00">(premise&#45;bound)</text>
</g>
<!-- var_b697af83&#45;&gt;34e5a924_anchor -->
<g id="edge29" class="edge">
<title>var_b697af83&#45;&gt;34e5a924_anchor</title>
<path fill="none" stroke="blue" stroke-width="2" d="M907,-764.83C907,-756.18 907,-745.41 907,-733.93"/>
<polygon fill="blue" stroke="blue" stroke-width="2" points="910.5,-735.77 907,-725.77 903.5,-735.77 910.5,-735.77"/>
<text xml:space="preserve" text-anchor="middle" x="914.12" y="-733.95" font-family="Times,serif" font-size="14.00">P3</text>
</g>
<!-- claim_c53c3f32 -->
<g id="node46" class="node">
<title>claim_c53c3f32</title>
<polygon fill="lightyellow" stroke="none" points="2252.38,-28.25 2252.38,-132.25 2607.62,-132.25 2607.62,-28.25 2252.38,-28.25"/>
<text xml:space="preserve" text-anchor="start" x="2376" y="-112.95" font-family="Times,serif" font-weight="bold" font-size="14.00">Faction_Inevitable</text>
<text xml:space="preserve" text-anchor="start" x="2367" y="-84.45" font-family="Times,serif" font-style="italic" font-size="14.00">Factions are inevitable</text>
<text xml:space="preserve" text-anchor="start" x="2259.38" y="-55.5" font-family="Times,serif" font-size="14.00">The causes of faction are sown in human nature and cannot be</text>
<text xml:space="preserve" text-anchor="start" x="2259.38" y="-39" font-family="Times,serif" font-size="14.00">removed without unacceptable or impracticable measures.</text>
<polygon fill="none" stroke="black" points="2252.38,-28.25 2252.38,-132.25 2607.62,-132.25 2607.62,-28.25 2252.38,-28.25"/>
</g>
<!-- var_c53c3f32&#45;&gt;claim_c53c3f32 -->
<!-- var_ef18729b -->
<g id="node39" class="node">
<title>var_ef18729b</title>
<polygon fill="lightblue" stroke="black" points="2500.38,-591.75 2393.62,-591.75 2393.62,-550.75 2500.38,-550.75 2500.38,-591.75"/>
<text xml:space="preserve" text-anchor="middle" x="2447" y="-574.45" font-family="Times,serif" font-size="14.00">P0</text>
<text xml:space="preserve" text-anchor="middle" x="2447" y="-557.95" font-family="Times,serif" font-size="14.00">(premise&#45;bound)</text>
</g>
<!-- var_ef18729b&#45;&gt;6cf26583_anchor -->
<g id="edge30" class="edge">
<title>var_ef18729b&#45;&gt;6cf26583_anchor</title>
<path fill="none" stroke="blue" stroke-width="2" d="M2447,-550.41C2447,-541.72 2447,-530.89 2447,-519.41"/>
<polygon fill="blue" stroke="blue" stroke-width="2" points="2450.5,-521.28 2447,-511.28 2443.5,-521.28 2450.5,-521.28"/>
<text xml:space="preserve" text-anchor="middle" x="2454.12" y="-519.45" font-family="Times,serif" font-size="14.00">P0</text>
</g>
</g>
</svg>
