<?xml version="1.0" encoding="UTF-8" standalone="no"?>
<!DOCTYPE svg PUBLIC "-//W3C//DTD SVG 1.1//EN"
 "http://www.w3.org/Graphics/SVG/1.1/DTD/svg11.dtd">
<!-- Generated by graphviz version 14.1.3 (20260303.0454)
 -->
<!-- Title: argument Pages: 1 -->
<svg width="2645pt" height="509pt"
 viewBox="0.00 0.00 2645.00 509.00" xmlns="http://www.w3.org/2000/svg" xmlns:xlink="http://www.w3.org/1999/xlink">
<g id="graph0" class="graph" transform="scale(1 1) rotate(0) translate(4 504.5)">
<title>argument</title>
<polygon fill="white" stroke="none" points="-4,4 -4,-504.5 2641,-504.5 2641,4 -4,4"/>
<text xml:space="preserve" text-anchor="middle" x="1318.5" y="-481.3" font-family="Times,serif" font-size="16.00">Singer&#39;s duty to give surplus wealth</text>
<g id="clust1" class="cluster">
<title>cluster_2014c680</title>
<polygon fill="none" stroke="red" stroke-width="2" points="2302,-292.75 2302,-390.25 2629,-390.25 2629,-292.75 2302,-292.75"/>
<text xml:space="preserve" text-anchor="middle" x="2465.5" y="-371.05" font-family="Times,serif" font-size="16.00">Affluent people should give most surplus wealth</text>
<text xml:space="preserve" text-anchor="middle" x="2465.5" y="-352.3" font-family="Times,serif" font-size="16.00">Give_Most_Surplus &#160;[CONCLUSION]</text>
</g>
<g id="clust2" class="cluster">
<title>cluster_claims</title>
</g>
<!-- 86dfc021 -->
<g id="node1" class="node">
<title>86dfc021</title>
<polygon fill="none" stroke="black" points="2475.75,-336.75 2350.25,-336.75 2350.25,-300.75 2475.75,-300.75 2475.75,-336.75"/>
<text xml:space="preserve" text-anchor="middle" x="2413" y="-313.7" font-family="Times,serif" font-size="14.00">Give_Most_Surplus</text>
</g>
<!-- var_a4e52324 -->
<g id="node8" class="node">
<title>var_a4e52324</title>
<polygon fill="lightyellow" stroke="black" points="2566.88,-263.75 2259.12,-263.75 2259.12,-222.75 2566.88,-222.75 2566.88,-263.75"/>
<text xml:space="preserve" text-anchor="middle" x="2413" y="-246.45" font-family="Times,serif" font-size="14.00">Give_Most_Surplus</text>
<text xml:space="preserve" text-anchor="middle" x="2413" y="-229.95" font-family="Times,serif" font-size="14.00">(claim: Surplus wealth should mostly be given away)</text>
</g>
<!-- 86dfc021&#45;&gt;var_a4e52324 -->
<g id="edge1" class="edge">
<title>86dfc021&#45;&gt;var_a4e52324</title>
<path fill="none" stroke="black" stroke-dasharray="1,5" d="M2413,-300.33C2413,-289.46 2413,-275.44 2413,-264.14"/>
</g>
<!-- 2014c680_anchor -->
<!-- var_0562b6db -->
<g id="node3" class="node">
<title>var_0562b6db</title>
<polygon fill="lightblue" stroke="black" points="2610.38,-473.75 2503.62,-473.75 2503.62,-432.75 2610.38,-432.75 2610.38,-473.75"/>
<text xml:space="preserve" text-anchor="middle" x="2557" y="-456.45" font-family="Times,serif" font-size="14.00">P0</text>
<text xml:space="preserve" text-anchor="middle" x="2557" y="-439.95" font-family="Times,serif" font-size="14.00">(premise&#45;bound)</text>
</g>
<!-- var_0562b6db&#45;&gt;2014c680_anchor -->
<g id="edge2" class="edge">
<title>var_0562b6db&#45;&gt;2014c680_anchor</title>
<path fill="none" stroke="blue" stroke-width="2" d="M2557,-432.41C2557,-423.72 2557,-412.89 2557,-401.41"/>
<polygon fill="blue" stroke="blue" stroke-width="2" points="2560.5,-403.28 2557,-393.28 2553.5,-403.28 2560.5,-403.28"/>
<text xml:space="preserve" text-anchor="middle" x="2564.12" y="-401.45" font-family="Times,serif" font-size="14.00">P0</text>
</g>
<!-- var_34db3971 -->
<g id="node4" class="node">
<title>var_34db3971</title>
<polygon fill="lightyellow" stroke="black" points="314,-263.75 58,-263.75 58,-222.75 314,-222.75 314,-263.75"/>
<text xml:space="preserve" text-anchor="middle" x="186" y="-246.45" font-family="Times,serif" font-size="14.00">No_Moral_Diff</text>
<text xml:space="preserve" text-anchor="middle" x="186" y="-229.95" font-family="Times,serif" font-size="14.00">(claim: No relevant moral difference exists)</text>
</g>
<!-- claim_34db3971 -->
<g id="node11" class="node">
<title>claim_34db3971</title>
<polygon fill="lightyellow" stroke="none" points="24.12,-20 24.12,-157 347.88,-157 347.88,-20 24.12,-20"/>
<text xml:space="preserve" text-anchor="start" x="141.38" y="-137.7" font-family="Times,serif" font-weight="bold" font-size="14.00">No_Moral_Diff</text>
<text xml:space="preserve" text-anchor="start" x="90.38" y="-109.2" font-family="Times,serif" font-style="italic" font-size="14.00">No relevant moral difference exists</text>
<text xml:space="preserve" text-anchor="start" x="31.12" y="-80.25" font-family="Times,serif" font-size="14.00">There is no morally important difference between Bob&#39;s</text>
<text xml:space="preserve" text-anchor="start" x="31.12" y="-63.75" font-family="Times,serif" font-size="14.00">refusal to sacrifice his Bugatti to save a child and an</text>
<text xml:space="preserve" text-anchor="start" x="31.12" y="-47.25" font-family="Times,serif" font-size="14.00">affluent person&#39;s refusal to donate surplus money to save</text>
<text xml:space="preserve" text-anchor="start" x="31.12" y="-30.75" font-family="Times,serif" font-size="14.00">children overseas.</text>
<polygon fill="none" stroke="black" points="24.12,-20 24.12,-157 347.88,-157 347.88,-20 24.12,-20"/>
</g>
<!-- var_34db3971&#45;&gt;claim_34db3971 -->
<!-- var_3fd2fada -->
<g id="node5" class="node">
<title>var_3fd2fada</title>
<polygon fill="lightyellow" stroke="black" points="675.5,-263.75 440.5,-263.75 440.5,-222.75 675.5,-222.75 675.5,-263.75"/>
<text xml:space="preserve" text-anchor="middle" x="558" y="-246.45" font-family="Times,serif" font-size="14.00">Luxury_Can_Save</text>
<text xml:space="preserve" text-anchor="middle" x="558" y="-229.95" font-family="Times,serif" font-size="14.00">(claim: Luxury spending can save lives)</text>
</g>
<!-- claim_3fd2fada -->
<g id="node12" class="node">
<title>claim_3fd2fada</title>
<polygon fill="lightyellow" stroke="none" points="382.25,-20 382.25,-157 733.75,-157 733.75,-20 382.25,-20"/>
<text xml:space="preserve" text-anchor="start" x="504" y="-137.7" font-family="Times,serif" font-weight="bold" font-size="14.00">Luxury_Can_Save</text>
<text xml:space="preserve" text-anchor="start" x="472.88" y="-109.2" font-family="Times,serif" font-style="italic" font-size="14.00">Luxury spending can save lives</text>
<text xml:space="preserve" text-anchor="start" x="389.25" y="-80.25" font-family="Times,serif" font-size="14.00">Money that affluent people spend on nonessential luxuries</text>
<text xml:space="preserve" text-anchor="start" x="389.25" y="-63.75" font-family="Times,serif" font-size="14.00">could instead be donated to effective aid organizations that</text>
<text xml:space="preserve" text-anchor="start" x="389.25" y="-47.25" font-family="Times,serif" font-size="14.00">would save children facing preventable death from poverty or</text>
<text xml:space="preserve" text-anchor="start" x="389.25" y="-30.75" font-family="Times,serif" font-size="14.00">disease.</text>
<polygon fill="none" stroke="black" points="382.25,-20 382.25,-157 733.75,-157 733.75,-20 382.25,-20"/>
</g>
<!-- var_3fd2fada&#45;&gt;claim_3fd2fada -->
<!-- var_7b6aea7d -->
<g id="node6" class="node">
<title>var_7b6aea7d</title>
<polygon fill="lightyellow" stroke="black" points="1081.38,-263.75 812.62,-263.75 812.62,-222.75 1081.38,-222.75 1081.38,-263.75"/>
<text xml:space="preserve" text-anchor="middle" x="947" y="-246.45" font-family="Times,serif" font-size="14.00">FairShare_Fails</text>
<text xml:space="preserve" text-anchor="middle" x="947" y="-229.95" font-family="Times,serif" font-size="14.00">(claim: Fair&#45;share limits fail in the real world)</text>
</g>
<!-- claim_7b6aea7d -->
<g id="node13" class="node">
<title>claim_7b6aea7d</title>
<polygon fill="lightyellow" stroke="none" points="767.88,-28.25 767.88,-148.75 1126.12,-148.75 1126.12,-28.25 767.88,-28.25"/>
<text xml:space="preserve" text-anchor="start" x="900.5" y="-129.45" font-family="Times,serif" font-weight="bold" font-size="14.00">FairShare_Fails</text>
<text xml:space="preserve" text-anchor="start" x="842.38" y="-100.95" font-family="Times,serif" font-style="italic" font-size="14.00">Fair&#45;share limits fail in the real world</text>
<text xml:space="preserve" text-anchor="start" x="774.88" y="-72" font-family="Times,serif" font-size="14.00">Because others and governments are not giving enough, giving</text>
<text xml:space="preserve" text-anchor="start" x="774.88" y="-55.5" font-family="Times,serif" font-size="14.00">only one&#39;s theoretical fair share still leaves preventable</text>
<text xml:space="preserve" text-anchor="start" x="774.88" y="-39" font-family="Times,serif" font-size="14.00">deaths that one&#39;s additional donations could avert.</text>
<polygon fill="none" stroke="black" points="767.88,-28.25 767.88,-148.75 1126.12,-148.75 1126.12,-28.25 767.88,-28.25"/>
</g>
<!-- var_7b6aea7d&#45;&gt;claim_7b6aea7d -->
<!-- var_82be8aab -->
<g id="node7" class="node">
<title>var_82be8aab</title>
<polygon fill="lightyellow" stroke="black" points="1467,-263.75 1181,-263.75 1181,-222.75 1467,-222.75 1467,-263.75"/>
<text xml:space="preserve" text-anchor="middle" x="1324" y="-246.45" font-family="Times,serif" font-size="14.00">Others_Not_Excuse</text>
<text xml:space="preserve" text-anchor="middle" x="1324" y="-229.95" font-family="Times,serif" font-size="14.00">(claim: Others&#39; inaction does not excuse inaction)</text>
</g>
<!-- claim_82be8aab -->
<g id="node14" class="node">
<title>claim_82be8aab</title>
<polygon fill="lightyellow" stroke="none" points="1160.62,-36.5 1160.62,-140.5 1487.38,-140.5 1487.38,-36.5 1160.62,-36.5"/>
<text xml:space="preserve" text-anchor="start" x="1266.25" y="-121.2" font-family="Times,serif" font-weight="bold" font-size="14.00">Others_Not_Excuse</text>
<text xml:space="preserve" text-anchor="start" x="1211.5" y="-92.7" font-family="Times,serif" font-style="italic" font-size="14.00">Others&#39; inaction does not excuse inaction</text>
<text xml:space="preserve" text-anchor="start" x="1167.62" y="-63.75" font-family="Times,serif" font-size="14.00">The fact that many other people also fail to help does not</text>
<text xml:space="preserve" text-anchor="start" x="1167.62" y="-47.25" font-family="Times,serif" font-size="14.00">make one&#39;s own failure to help morally acceptable.</text>
<polygon fill="none" stroke="black" points="1160.62,-36.5 1160.62,-140.5 1487.38,-140.5 1487.38,-36.5 1160.62,-36.5"/>
</g>
<!-- var_82be8aab&#45;&gt;claim_82be8aab -->
<!-- claim_a4e52324 -->
<g id="node15" class="node">
<title>claim_a4e52324</title>
<polygon fill="lightyellow" stroke="none" points="2253.38,-28.25 2253.38,-148.75 2572.62,-148.75 2572.62,-28.25 2253.38,-28.25"/>
<text xml:space="preserve" text-anchor="start" x="2354.88" y="-129.45" font-family="Times,serif" font-weight="bold" font-size="14.00">Give_Most_Surplus</text>
<text xml:space="preserve" text-anchor="start" x="2292.25" y="-100.95" font-family="Times,serif" font-style="italic" font-size="14.00">Surplus wealth should mostly be given away</text>
<text xml:space="preserve" text-anchor="start" x="2260.38" y="-72" font-family="Times,serif" font-size="14.00">Each affluent person should give most wealth beyond</text>
<text xml:space="preserve" text-anchor="start" x="2260.38" y="-55.5" font-family="Times,serif" font-size="14.00">essential needs to effective aid for people in</text>
<text xml:space="preserve" text-anchor="start" x="2260.38" y="-39" font-family="Times,serif" font-size="14.00">life&#45;threatening poverty rather than spend it on luxuries.</text>
<polygon fill="none" stroke="black" points="2253.38,-28.25 2253.38,-148.75 2572.62,-148.75 2572.62,-28.25 2253.38,-28.25"/>
</g>
<!-- var_a4e52324&#45;&gt;claim_a4e52324 -->
<!-- var_aea9e6da -->
<g id="node9" class="node">
<title>var_aea9e6da</title>
<polygon fill="lightyellow" stroke="black" points="1825.25,-263.75 1552.75,-263.75 1552.75,-222.75 1825.25,-222.75 1825.25,-263.75"/>
<text xml:space="preserve" text-anchor="middle" x="1689" y="-246.45" font-family="Times,serif" font-size="14.00">Not_Donating_Wrong</text>
<text xml:space="preserve" text-anchor="middle" x="1689" y="-229.95" font-family="Times,serif" font-size="14.00">(claim: Not donating surplus is gravely wrong)</text>
</g>
<!-- claim_aea9e6da -->
<g id="node16" class="node">
<title>claim_aea9e6da</title>
<polygon fill="lightyellow" stroke="none" points="1521.5,-28.25 1521.5,-148.75 1856.5,-148.75 1856.5,-28.25 1521.5,-28.25"/>
<text xml:space="preserve" text-anchor="start" x="1624.88" y="-129.45" font-family="Times,serif" font-weight="bold" font-size="14.00">Not_Donating_Wrong</text>
<text xml:space="preserve" text-anchor="start" x="1584" y="-100.95" font-family="Times,serif" font-style="italic" font-size="14.00">Not donating surplus is gravely wrong</text>
<text xml:space="preserve" text-anchor="start" x="1528.5" y="-72" font-family="Times,serif" font-size="14.00">It is gravely wrong for an affluent person with surplus</text>
<text xml:space="preserve" text-anchor="start" x="1528.5" y="-55.5" font-family="Times,serif" font-size="14.00">money not to donate it to effective overseas aid that would</text>
<text xml:space="preserve" text-anchor="start" x="1528.5" y="-39" font-family="Times,serif" font-size="14.00">save children&#39;s lives.</text>
<polygon fill="none" stroke="black" points="1521.5,-28.25 1521.5,-148.75 1856.5,-148.75 1856.5,-28.25 1521.5,-28.25"/>
</g>
<!-- var_aea9e6da&#45;&gt;claim_aea9e6da -->
<!-- var_f1facb43 -->
<g id="node10" class="node">
<title>var_f1facb43</title>
<polygon fill="lightyellow" stroke="black" points="2217.5,-263.75 1892.5,-263.75 1892.5,-222.75 2217.5,-222.75 2217.5,-263.75"/>
<text xml:space="preserve" text-anchor="middle" x="2055" y="-246.45" font-family="Times,serif" font-size="14.00">Letting_Die_Wrong</text>
<text xml:space="preserve" text-anchor="middle" x="2055" y="-229.95" font-family="Times,serif" font-size="14.00">(claim: Letting a child die for comfort is gravely wrong)</text>
</g>
<!-- claim_f1facb43 -->
<g id="node17" class="node">
<title>claim_f1facb43</title>
<polygon fill="lightyellow" stroke="none" points="1890.5,-28.25 1890.5,-148.75 2219.5,-148.75 2219.5,-28.25 1890.5,-28.25"/>
<text xml:space="preserve" text-anchor="start" x="1997.25" y="-129.45" font-family="Times,serif" font-weight="bold" font-size="14.00">Letting_Die_Wrong</text>
<text xml:space="preserve" text-anchor="start" x="1924.88" y="-100.95" font-family="Times,serif" font-style="italic" font-size="14.00">Letting a child die for comfort is gravely wrong</text>
<text xml:space="preserve" text-anchor="start" x="1897.5" y="-72" font-family="Times,serif" font-size="14.00">It is gravely wrong to allow a child to die in order to</text>
<text xml:space="preserve" text-anchor="start" x="1897.5" y="-55.5" font-family="Times,serif" font-size="14.00">preserve one&#39;s own material comfort or financial security,</text>
<text xml:space="preserve" text-anchor="start" x="1897.5" y="-39" font-family="Times,serif" font-size="14.00">as in Bob&#39;s refusal to sacrifice his Bugatti.</text>
<polygon fill="none" stroke="black" points="1890.5,-28.25 1890.5,-148.75 2219.5,-148.75 2219.5,-28.25 1890.5,-28.25"/>
</g>
<!-- var_f1facb43&#45;&gt;claim_f1facb43 -->
</g>
</svg>
