<?xml version="1.0" encoding="UTF-8" standalone="no"?>
<!DOCTYPE svg PUBLIC "-//W3C//DTD SVG 1.1//EN"
 "http://www.w3.org/Graphics/SVG/1.1/DTD/svg11.dtd">
<!-- Generated by graphviz version 14.1.3 (20260303.0454)
 -->
<!-- Title: argument Pages: 1 -->
<svg width="2328pt" height="780pt"
 viewBox="0.00 0.00 2328.00 780.00" xmlns="http://www.w3.org/2000/svg" xmlns:xlink="http://www.w3.org/1999/xlink">
<g id="graph0" class="graph" transform="scale(1 1) rotate(0) translate(4 775.5)">
<title>argument</title>
<polygon fill="white" stroke="none" points="-4,4 -4,-775.5 2324,-775.5 2324,4 -4,4"/>
<text xml:space="preserve" text-anchor="middle" x="1160" y="-752.3" font-family="Times,serif" font-size="16.00">Paine argues for American independence</text>
<g id="clust1" class="cluster">
<title>cluster_1e4f6306</title>
<polygon fill="none" stroke="#666666" stroke-dasharray="5,2" points="1863,-276.25 1863,-373.75 2098,-373.75 2098,-276.25 1863,-276.25"/>
<text xml:space="preserve" text-anchor="middle" x="1980.5" y="-354.55" font-family="Times,serif" font-size="16.00">American self&#45;government is safer</text>
<text xml:space="preserve" text-anchor="middle" x="1980.5" y="-335.8" font-family="Times,serif" font-size="16.00">SelfGov_Safer</text>
</g>
<g id="clust2" class="cluster">
<title>cluster_61e7d1dd</title>
<polygon fill="none" stroke="#666666" stroke-dasharray="5,2" points="1639,-276.25 1639,-373.75 1855,-373.75 1855,-276.25 1639,-276.25"/>
<text xml:space="preserve" text-anchor="middle" x="1747" y="-354.55" font-family="Times,serif" font-size="16.00">Dependence entangles America</text>
<text xml:space="preserve" text-anchor="middle" x="1747" y="-335.8" font-family="Times,serif" font-size="16.00">Dependence_Wars</text>
</g>
<g id="clust3" class="cluster">
<title>cluster_8437cba8</title>
<polygon fill="none" stroke="#666666" stroke-dasharray="5,2" points="207,-276.25 207,-373.75 449,-373.75 449,-276.25 207,-276.25"/>
<text xml:space="preserve" text-anchor="middle" x="328" y="-354.55" font-family="Times,serif" font-size="16.00">Reconciliation would be dangerous</text>
<text xml:space="preserve" text-anchor="middle" x="328" y="-335.8" font-family="Times,serif" font-size="16.00">Recon_Ruins</text>
</g>
<g id="clust4" class="cluster">
<title>cluster_cbbd7f6e</title>
<polygon fill="none" stroke="#666666" stroke-dasharray="5,2" points="8,-276.25 8,-373.75 199,-373.75 199,-276.25 8,-276.25"/>
<text xml:space="preserve" text-anchor="middle" x="103.5" y="-354.55" font-family="Times,serif" font-size="16.00">Reconciliation is not viable</text>
<text xml:space="preserve" text-anchor="middle" x="103.5" y="-335.8" font-family="Times,serif" font-size="16.00">Recon_Fails</text>
</g>
<g id="clust5" class="cluster">
<title>cluster_d7a687c2</title>
<polygon fill="none" stroke="#666666" stroke-dasharray="5,2" points="457,-276.25 457,-373.75 681,-373.75 681,-276.25 457,-276.25"/>
<text xml:space="preserve" text-anchor="middle" x="569" y="-354.55" font-family="Times,serif" font-size="16.00">Britain cannot rule America well</text>
<text xml:space="preserve" text-anchor="middle" x="569" y="-335.8" font-family="Times,serif" font-size="16.00">Britain_Cant_Govern</text>
</g>
<g id="clust6" class="cluster">
<title>cluster_e7c7ad4b</title>
<polygon fill="none" stroke="red" stroke-width="2" points="689,-276.25 689,-661.25 1631,-661.25 1631,-276.25 689,-276.25"/>
<text xml:space="preserve" text-anchor="middle" x="1160" y="-642.05" font-family="Times,serif" font-size="16.00">These considerations support independence</text>
<text xml:space="preserve" text-anchor="middle" x="1160" y="-623.3" font-family="Times,serif" font-size="16.00">(((Recon_Fails ∧ Dependence_Wars ∧ Britain_Cant_Govern ∧ Recon_Ruins ∧ SelfGov_Safer)) → America_Independent) &#160;[CONCLUSION]</text>
</g>
<g id="clust7" class="cluster">
<title>cluster_claims</title>
</g>
<!-- 936ee25d -->
<g id="node1" class="node">
<title>936ee25d</title>
<polygon fill="none" stroke="black" points="1967.12,-320.25 1870.88,-320.25 1870.88,-284.25 1967.12,-284.25 1967.12,-320.25"/>
<text xml:space="preserve" text-anchor="middle" x="1919" y="-297.2" font-family="Times,serif" font-size="14.00">SelfGov_Safer</text>
</g>
<!-- var_bc484fd4 -->
<g id="node29" class="node">
<title>var_bc484fd4</title>
<polygon fill="lightyellow" stroke="black" points="1828.75,-247.25 1631.25,-247.25 1631.25,-206.25 1828.75,-206.25 1828.75,-247.25"/>
<text xml:space="preserve" text-anchor="middle" x="1730" y="-229.95" font-family="Times,serif" font-size="14.00">SelfGov_Safer</text>
<text xml:space="preserve" text-anchor="middle" x="1730" y="-213.45" font-family="Times,serif" font-size="14.00">(claim: Self&#45;government is safer)</text>
</g>
<!-- 936ee25d&#45;&gt;var_bc484fd4 -->
<g id="edge9" class="edge">
<title>936ee25d&#45;&gt;var_bc484fd4</title>
<path fill="none" stroke="black" stroke-dasharray="1,5" d="M1877.76,-283.84C1871.49,-281.26 1865.08,-278.66 1859,-276.25 1834.64,-266.6 1807.52,-256.33 1784.46,-247.74"/>
</g>
<!-- 1e4f6306_anchor -->
<!-- 39dd1507 -->
<g id="node3" class="node">
<title>39dd1507</title>
<polygon fill="none" stroke="black" points="1765,-320.25 1647,-320.25 1647,-284.25 1765,-284.25 1765,-320.25"/>
<text xml:space="preserve" text-anchor="middle" x="1706" y="-297.2" font-family="Times,serif" font-size="14.00">Dependence_Wars</text>
</g>
<!-- var_2ebb7a60 -->
<g id="node22" class="node">
<title>var_2ebb7a60</title>
<polygon fill="lightyellow" stroke="black" points="1436.12,-247.25 1237.88,-247.25 1237.88,-206.25 1436.12,-206.25 1436.12,-247.25"/>
<text xml:space="preserve" text-anchor="middle" x="1337" y="-229.95" font-family="Times,serif" font-size="14.00">Dependence_Wars</text>
<text xml:space="preserve" text-anchor="middle" x="1337" y="-213.45" font-family="Times,serif" font-size="14.00">(claim: Dependence causes wars)</text>
</g>
<!-- 39dd1507&#45;&gt;var_2ebb7a60 -->
<g id="edge10" class="edge">
<title>39dd1507&#45;&gt;var_2ebb7a60</title>
<path fill="none" stroke="black" stroke-dasharray="1,5" d="M1660.15,-283.78C1651.86,-281 1643.23,-278.35 1635,-276.25 1569.74,-259.59 1494.91,-247.43 1436.56,-239.46"/>
</g>
<!-- 61e7d1dd_anchor -->
<!-- 38fe3688 -->
<g id="node5" class="node">
<title>38fe3688</title>
<polygon fill="none" stroke="black" points="422.38,-320.25 333.62,-320.25 333.62,-284.25 422.38,-284.25 422.38,-320.25"/>
<text xml:space="preserve" text-anchor="middle" x="378" y="-297.2" font-family="Times,serif" font-size="14.00">Recon_Ruins</text>
</g>
<!-- var_2f26687f -->
<g id="node23" class="node">
<title>var_2f26687f</title>
<polygon fill="lightyellow" stroke="black" points="679.38,-247.25 482.62,-247.25 482.62,-206.25 679.38,-206.25 679.38,-247.25"/>
<text xml:space="preserve" text-anchor="middle" x="581" y="-229.95" font-family="Times,serif" font-size="14.00">Recon_Ruins</text>
<text xml:space="preserve" text-anchor="middle" x="581" y="-213.45" font-family="Times,serif" font-size="14.00">(claim: Reconciliation risks ruin)</text>
</g>
<!-- 38fe3688&#45;&gt;var_2f26687f -->
<g id="edge11" class="edge">
<title>38fe3688&#45;&gt;var_2f26687f</title>
<path fill="none" stroke="black" stroke-dasharray="1,5" d="M414.05,-283.84C420,-281.18 426.13,-278.55 432,-276.25 458.46,-265.86 488.15,-255.87 514.02,-247.69"/>
</g>
<!-- 8437cba8_anchor -->
<!-- dfe14abd -->
<g id="node7" class="node">
<title>dfe14abd</title>
<polygon fill="none" stroke="black" points="172.75,-320.25 89.25,-320.25 89.25,-284.25 172.75,-284.25 172.75,-320.25"/>
<text xml:space="preserve" text-anchor="middle" x="131" y="-297.2" font-family="Times,serif" font-size="14.00">Recon_Fails</text>
</g>
<!-- var_8fd4f779 -->
<g id="node27" class="node">
<title>var_8fd4f779</title>
<polygon fill="lightyellow" stroke="black" points="304.5,-247.25 135.5,-247.25 135.5,-206.25 304.5,-206.25 304.5,-247.25"/>
<text xml:space="preserve" text-anchor="middle" x="220" y="-229.95" font-family="Times,serif" font-size="14.00">Recon_Fails</text>
<text xml:space="preserve" text-anchor="middle" x="220" y="-213.45" font-family="Times,serif" font-size="14.00">(claim: Reconciliation fails)</text>
</g>
<!-- dfe14abd&#45;&gt;var_8fd4f779 -->
<g id="edge12" class="edge">
<title>dfe14abd&#45;&gt;var_8fd4f779</title>
<path fill="none" stroke="black" stroke-dasharray="1,5" d="M152.09,-283.83C165.25,-272.96 182.23,-258.94 195.92,-247.64"/>
</g>
<!-- cbbd7f6e_anchor -->
<!-- b95d3bf3 -->
<g id="node9" class="node">
<title>b95d3bf3</title>
<polygon fill="none" stroke="black" points="632.5,-320.25 499.5,-320.25 499.5,-284.25 632.5,-284.25 632.5,-320.25"/>
<text xml:space="preserve" text-anchor="middle" x="566" y="-297.2" font-family="Times,serif" font-size="14.00">Britain_Cant_Govern</text>
</g>
<!-- var_0fbd4a8e -->
<g id="node21" class="node">
<title>var_0fbd4a8e</title>
<polygon fill="lightyellow" stroke="black" points="1060.75,-247.25 845.25,-247.25 845.25,-206.25 1060.75,-206.25 1060.75,-247.25"/>
<text xml:space="preserve" text-anchor="middle" x="953" y="-229.95" font-family="Times,serif" font-size="14.00">Britain_Cant_Govern</text>
<text xml:space="preserve" text-anchor="middle" x="953" y="-213.45" font-family="Times,serif" font-size="14.00">(claim: Britain cannot govern justly)</text>
</g>
<!-- b95d3bf3&#45;&gt;var_0fbd4a8e -->
<g id="edge13" class="edge">
<title>b95d3bf3&#45;&gt;var_0fbd4a8e</title>
<path fill="none" stroke="black" stroke-dasharray="1,5" d="M615.13,-283.8C624,-281.01 633.22,-278.36 642,-276.25 708.68,-260.2 784.72,-248.23 844.92,-240.2"/>
</g>
<!-- d7a687c2_anchor -->
<!-- 0b56b17e -->
<g id="node11" class="node">
<title>0b56b17e</title>
<polygon fill="none" stroke="black" points="1141.5,-320.25 1008.5,-320.25 1008.5,-284.25 1141.5,-284.25 1141.5,-320.25"/>
<text xml:space="preserve" text-anchor="middle" x="1075" y="-297.2" font-family="Times,serif" font-size="14.00">Britain_Cant_Govern</text>
</g>
<!-- 0b56b17e&#45;&gt;var_0fbd4a8e -->
<g id="edge14" class="edge">
<title>0b56b17e&#45;&gt;var_0fbd4a8e</title>
<path fill="none" stroke="black" stroke-dasharray="1,5" d="M1046.09,-283.83C1028.05,-272.96 1004.78,-258.94 986.01,-247.64"/>
</g>
<!-- 7e6a0f55 -->
<g id="node12" class="node">
<title>7e6a0f55</title>
<polygon fill="none" stroke="black" points="1337,-320.25 1219,-320.25 1219,-284.25 1337,-284.25 1337,-320.25"/>
<text xml:space="preserve" text-anchor="middle" x="1278" y="-297.2" font-family="Times,serif" font-size="14.00">Dependence_Wars</text>
</g>
<!-- 7e6a0f55&#45;&gt;var_2ebb7a60 -->
<g id="edge15" class="edge">
<title>7e6a0f55&#45;&gt;var_2ebb7a60</title>
<path fill="none" stroke="black" stroke-dasharray="1,5" d="M1291.98,-283.83C1300.71,-272.96 1311.96,-258.94 1321.03,-247.64"/>
</g>
<!-- 83351d2b -->
<g id="node13" class="node">
<title>83351d2b</title>
<polygon fill="none" stroke="black" points="1537.12,-320.25 1440.88,-320.25 1440.88,-284.25 1537.12,-284.25 1537.12,-320.25"/>
<text xml:space="preserve" text-anchor="middle" x="1489" y="-297.2" font-family="Times,serif" font-size="14.00">SelfGov_Safer</text>
</g>
<!-- 83351d2b&#45;&gt;var_bc484fd4 -->
<g id="edge16" class="edge">
<title>83351d2b&#45;&gt;var_bc484fd4</title>
<path fill="none" stroke="black" stroke-dasharray="1,5" d="M1537.48,-286.46C1574.04,-275.31 1624.58,-259.9 1664.7,-247.67"/>
</g>
<!-- 903a17b0 -->
<g id="node14" class="node">
<title>903a17b0</title>
<polygon fill="none" stroke="black" points="1242,-603.25 1175.17,-585.25 1242,-567.25 1308.83,-585.25 1242,-603.25"/>
<text xml:space="preserve" text-anchor="middle" x="1242" y="-580.2" font-family="Times,serif" font-size="14.00">IMPLIES</text>
</g>
<!-- c818dc63 -->
<g id="node18" class="node">
<title>c818dc63</title>
<ellipse fill="none" stroke="black" cx="1205" cy="-512.25" rx="27" ry="18"/>
<text xml:space="preserve" text-anchor="middle" x="1205" y="-506.45" font-family="Times,serif" font-size="14.00">ⓕ</text>
</g>
<!-- 903a17b0&#45;&gt;c818dc63 -->
<g id="edge3" class="edge">
<title>903a17b0&#45;&gt;c818dc63</title>
<path fill="none" stroke="black" d="M1234.15,-569.19C1229.73,-560.7 1224.07,-549.85 1218.92,-539.96"/>
<polygon fill="black" stroke="black" points="1222.04,-538.37 1214.31,-531.12 1215.83,-541.6 1222.04,-538.37"/>
</g>
<!-- f503ac23 -->
<g id="node19" class="node">
<title>f503ac23</title>
<polygon fill="none" stroke="black" points="1621.38,-530.25 1484.62,-530.25 1484.62,-494.25 1621.38,-494.25 1621.38,-530.25"/>
<text xml:space="preserve" text-anchor="middle" x="1553" y="-507.2" font-family="Times,serif" font-size="14.00">America_Independent</text>
</g>
<!-- 903a17b0&#45;&gt;f503ac23 -->
<g id="edge5" class="edge">
<title>903a17b0&#45;&gt;f503ac23</title>
<path fill="none" stroke="black" d="M1277.07,-576.24C1324.35,-565.45 1409.9,-545.92 1473.26,-531.45"/>
<polygon fill="black" stroke="black" points="1473.97,-534.88 1482.94,-529.24 1472.41,-528.06 1473.97,-534.88"/>
</g>
<!-- 91ae596a -->
<g id="node15" class="node">
<title>91ae596a</title>
<polygon fill="none" stroke="black" points="839.75,-320.25 756.25,-320.25 756.25,-284.25 839.75,-284.25 839.75,-320.25"/>
<text xml:space="preserve" text-anchor="middle" x="798" y="-297.2" font-family="Times,serif" font-size="14.00">Recon_Fails</text>
</g>
<!-- 91ae596a&#45;&gt;var_8fd4f779 -->
<g id="edge17" class="edge">
<title>91ae596a&#45;&gt;var_8fd4f779</title>
<path fill="none" stroke="black" stroke-dasharray="1,5" d="M755.83,-290.72C734.68,-285.75 708.6,-280.08 685,-276.25 553,-254.84 398.31,-240.9 304.81,-233.68"/>
</g>
<!-- 9458920b -->
<g id="node16" class="node">
<title>9458920b</title>
<polygon fill="none" stroke="black" points="975.38,-320.25 886.62,-320.25 886.62,-284.25 975.38,-284.25 975.38,-320.25"/>
<text xml:space="preserve" text-anchor="middle" x="931" y="-297.2" font-family="Times,serif" font-size="14.00">Recon_Ruins</text>
</g>
<!-- 9458920b&#45;&gt;var_2f26687f -->
<g id="edge18" class="edge">
<title>9458920b&#45;&gt;var_2f26687f</title>
<path fill="none" stroke="black" stroke-dasharray="1,5" d="M886.15,-286.54C874.16,-282.89 861.15,-279.19 849,-276.25 793.39,-262.79 730.48,-251.22 679.59,-242.76"/>
</g>
<!-- c797f6c9 -->
<g id="node17" class="node">
<title>c797f6c9</title>
<polygon fill="none" stroke="black" points="1086,-454.75 1042.33,-436.75 1086,-418.75 1129.67,-436.75 1086,-454.75"/>
<text xml:space="preserve" text-anchor="middle" x="1086" y="-431.7" font-family="Times,serif" font-size="14.00">AND</text>
</g>
<!-- c797f6c9&#45;&gt;0b56b17e -->
<g id="edge6" class="edge">
<title>c797f6c9&#45;&gt;0b56b17e</title>
<path fill="none" stroke="black" d="M1084.61,-418.97C1082.79,-397.11 1079.59,-358.55 1077.39,-331.99"/>
<polygon fill="black" stroke="black" points="1080.89,-331.92 1076.58,-322.24 1073.92,-332.5 1080.89,-331.92"/>
</g>
<!-- c797f6c9&#45;&gt;7e6a0f55 -->
<g id="edge4" class="edge">
<title>c797f6c9&#45;&gt;7e6a0f55</title>
<path fill="none" stroke="black" d="M1101.71,-424.91C1132.54,-403.63 1201.59,-355.98 1243.54,-327.03"/>
<polygon fill="black" stroke="black" points="1245.33,-330.05 1251.57,-321.49 1241.35,-324.29 1245.33,-330.05"/>
</g>
<!-- c797f6c9&#45;&gt;83351d2b -->
<g id="edge8" class="edge">
<title>c797f6c9&#45;&gt;83351d2b</title>
<path fill="none" stroke="black" d="M1116.27,-430.81C1165.42,-422.28 1265.24,-402.87 1346,-373.75 1381.95,-360.79 1420.71,-341.31 1448.79,-326.1"/>
<polygon fill="black" stroke="black" points="1450.22,-329.32 1457.31,-321.44 1446.85,-323.18 1450.22,-329.32"/>
</g>
<!-- c797f6c9&#45;&gt;91ae596a -->
<g id="edge1" class="edge">
<title>c797f6c9&#45;&gt;91ae596a</title>
<path fill="none" stroke="black" d="M1055.47,-430.92C1013.44,-423.34 936.34,-406.08 878,-373.75 856.69,-361.94 836.14,-343.64 821.21,-328.64"/>
<polygon fill="black" stroke="black" points="824.05,-326.54 814.57,-321.8 819.02,-331.41 824.05,-326.54"/>
</g>
<!-- c797f6c9&#45;&gt;9458920b -->
<g id="edge7" class="edge">
<title>c797f6c9&#45;&gt;9458920b</title>
<path fill="none" stroke="black" d="M1069.53,-425.11C1051.74,-413.34 1022.88,-393.44 1000,-373.75 983.76,-359.78 966.93,-342.64 953.95,-328.76"/>
<polygon fill="black" stroke="black" points="956.79,-326.67 947.43,-321.7 951.65,-331.42 956.79,-326.67"/>
</g>
<!-- c818dc63&#45;&gt;c797f6c9 -->
<g id="edge2" class="edge">
<title>c818dc63&#45;&gt;c797f6c9</title>
<path fill="none" stroke="black" d="M1185.62,-499.28C1165.72,-486.99 1134.61,-467.77 1112.46,-454.09"/>
<polygon fill="black" stroke="black" points="1114.32,-451.13 1103.97,-448.85 1110.64,-457.08 1114.32,-451.13"/>
</g>
<!-- var_7db151f7 -->
<g id="node26" class="node">
<title>var_7db151f7</title>
<polygon fill="lightyellow" stroke="black" points="2234.88,-457.25 1999.12,-457.25 1999.12,-416.25 2234.88,-416.25 2234.88,-457.25"/>
<text xml:space="preserve" text-anchor="middle" x="2117" y="-439.95" font-family="Times,serif" font-size="14.00">America_Independent</text>
<text xml:space="preserve" text-anchor="middle" x="2117" y="-423.45" font-family="Times,serif" font-size="14.00">(claim: America should be independent)</text>
</g>
<!-- f503ac23&#45;&gt;var_7db151f7 -->
<g id="edge19" class="edge">
<title>f503ac23&#45;&gt;var_7db151f7</title>
<path fill="none" stroke="black" stroke-dasharray="1,5" d="M1621.58,-503.41C1707.7,-493.41 1859.95,-475.27 1990,-457.25 1992.87,-456.85 1995.78,-456.44 1998.71,-456.03"/>
</g>
<!-- e7c7ad4b_anchor -->
<!-- claim_0fbd4a8e -->
<g id="node33" class="node">
<title>claim_0fbd4a8e</title>
<polygon fill="lightyellow" stroke="none" points="787,-20 787,-140.5 1119,-140.5 1119,-20 787,-20"/>
<text xml:space="preserve" text-anchor="start" x="889.25" y="-121.2" font-family="Times,serif" font-weight="bold" font-size="14.00">Britain_Cant_Govern</text>
<text xml:space="preserve" text-anchor="start" x="876.5" y="-92.7" font-family="Times,serif" font-style="italic" font-size="14.00">Britain cannot govern justly</text>
<text xml:space="preserve" text-anchor="start" x="794" y="-63.75" font-family="Times,serif" font-size="14.00">Great Britain cannot govern the continent justly or</text>
<text xml:space="preserve" text-anchor="start" x="794" y="-47.25" font-family="Times,serif" font-size="14.00">conveniently because it is distant, ignorant of American</text>
<text xml:space="preserve" text-anchor="start" x="794" y="-30.75" font-family="Times,serif" font-size="14.00">conditions, and hostile to American liberty and prosperity.</text>
<polygon fill="none" stroke="black" points="787,-20 787,-140.5 1119,-140.5 1119,-20 787,-20"/>
</g>
<!-- var_0fbd4a8e&#45;&gt;claim_0fbd4a8e -->
<!-- claim_2ebb7a60 -->
<g id="node34" class="node">
<title>claim_2ebb7a60</title>
<polygon fill="lightyellow" stroke="none" points="1152.62,-28.25 1152.62,-132.25 1521.38,-132.25 1521.38,-28.25 1152.62,-28.25"/>
<text xml:space="preserve" text-anchor="start" x="1283" y="-112.95" font-family="Times,serif" font-weight="bold" font-size="14.00">Dependence_Wars</text>
<text xml:space="preserve" text-anchor="start" x="1268.75" y="-84.45" font-family="Times,serif" font-style="italic" font-size="14.00">Dependence causes wars</text>
<text xml:space="preserve" text-anchor="start" x="1159.62" y="-55.5" font-family="Times,serif" font-size="14.00">Dependence on Great Britain draws America into European wars</text>
<text xml:space="preserve" text-anchor="start" x="1159.62" y="-39" font-family="Times,serif" font-size="14.00">and quarrels and harms its peace and trade.</text>
<polygon fill="none" stroke="black" points="1152.62,-28.25 1152.62,-132.25 1521.38,-132.25 1521.38,-28.25 1152.62,-28.25"/>
</g>
<!-- var_2ebb7a60&#45;&gt;claim_2ebb7a60 -->
<!-- claim_2f26687f -->
<g id="node35" class="node">
<title>claim_2f26687f</title>
<polygon fill="lightyellow" stroke="none" points="409,-28.25 409,-132.25 753,-132.25 753,-28.25 409,-28.25"/>
<text xml:space="preserve" text-anchor="start" x="542.75" y="-112.95" font-family="Times,serif" font-weight="bold" font-size="14.00">Recon_Ruins</text>
<text xml:space="preserve" text-anchor="start" x="513.88" y="-84.45" font-family="Times,serif" font-style="italic" font-size="14.00">Reconciliation risks ruin</text>
<text xml:space="preserve" text-anchor="start" x="416" y="-55.5" font-family="Times,serif" font-size="14.00">Reconciliation with Great Britain would likely produce ruin,</text>
<text xml:space="preserve" text-anchor="start" x="416" y="-39" font-family="Times,serif" font-size="14.00">instability, or civil conflict in the continent.</text>
<polygon fill="none" stroke="black" points="409,-28.25 409,-132.25 753,-132.25 753,-28.25 409,-28.25"/>
</g>
<!-- var_2f26687f&#45;&gt;claim_2f26687f -->
<!-- var_35b080eb -->
<g id="node24" class="node">
<title>var_35b080eb</title>
<polygon fill="lightblue" stroke="black" points="1663.38,-744.75 1556.62,-744.75 1556.62,-703.75 1663.38,-703.75 1663.38,-744.75"/>
<text xml:space="preserve" text-anchor="middle" x="1610" y="-727.45" font-family="Times,serif" font-size="14.00">P5</text>
<text xml:space="preserve" text-anchor="middle" x="1610" y="-710.95" font-family="Times,serif" font-size="14.00">(premise&#45;bound)</text>
</g>
<!-- var_35b080eb&#45;&gt;e7c7ad4b_anchor -->
<g id="edge20" class="edge">
<title>var_35b080eb&#45;&gt;e7c7ad4b_anchor</title>
<path fill="none" stroke="blue" stroke-width="2" d="M1610,-703.33C1610,-694.68 1610,-683.91 1610,-672.43"/>
<polygon fill="blue" stroke="blue" stroke-width="2" points="1613.5,-674.27 1610,-664.27 1606.5,-674.27 1613.5,-674.27"/>
<text xml:space="preserve" text-anchor="middle" x="1617.12" y="-672.45" font-family="Times,serif" font-size="14.00">P5</text>
</g>
<!-- var_71fd1bf6 -->
<g id="node25" class="node">
<title>var_71fd1bf6</title>
<polygon fill="lightblue" stroke="black" points="1846.38,-457.25 1739.62,-457.25 1739.62,-416.25 1846.38,-416.25 1846.38,-457.25"/>
<text xml:space="preserve" text-anchor="middle" x="1793" y="-439.95" font-family="Times,serif" font-size="14.00">P1</text>
<text xml:space="preserve" text-anchor="middle" x="1793" y="-423.45" font-family="Times,serif" font-size="14.00">(premise&#45;bound)</text>
</g>
<!-- var_71fd1bf6&#45;&gt;61e7d1dd_anchor -->
<g id="edge21" class="edge">
<title>var_71fd1bf6&#45;&gt;61e7d1dd_anchor</title>
<path fill="none" stroke="blue" stroke-width="2" d="M1793,-415.91C1793,-407.22 1793,-396.39 1793,-384.91"/>
<polygon fill="blue" stroke="blue" stroke-width="2" points="1796.5,-386.78 1793,-376.78 1789.5,-386.78 1796.5,-386.78"/>
<text xml:space="preserve" text-anchor="middle" x="1800.12" y="-384.95" font-family="Times,serif" font-size="14.00">P1</text>
</g>
<!-- claim_7db151f7 -->
<g id="node36" class="node">
<title>claim_7db151f7</title>
<polygon fill="lightyellow" stroke="none" points="1938.25,-28.25 1938.25,-132.25 2295.75,-132.25 2295.75,-28.25 1938.25,-28.25"/>
<text xml:space="preserve" text-anchor="start" x="2052.12" y="-112.95" font-family="Times,serif" font-weight="bold" font-size="14.00">America_Independent</text>
<text xml:space="preserve" text-anchor="start" x="2031.12" y="-84.45" font-family="Times,serif" font-style="italic" font-size="14.00">America should be independent</text>
<text xml:space="preserve" text-anchor="start" x="1945.25" y="-55.5" font-family="Times,serif" font-size="14.00">The American colonies should separate from Great Britain and</text>
<text xml:space="preserve" text-anchor="start" x="1945.25" y="-39" font-family="Times,serif" font-size="14.00">establish an independent continental government.</text>
<polygon fill="none" stroke="black" points="1938.25,-28.25 1938.25,-132.25 2295.75,-132.25 2295.75,-28.25 1938.25,-28.25"/>
</g>
<!-- var_7db151f7&#45;&gt;claim_7db151f7 -->
<!-- claim_8fd4f779 -->
<g id="node37" class="node">
<title>claim_8fd4f779</title>
<polygon fill="lightyellow" stroke="none" points="64.88,-28.25 64.88,-132.25 375.12,-132.25 375.12,-28.25 64.88,-28.25"/>
<text xml:space="preserve" text-anchor="start" x="184.75" y="-112.95" font-family="Times,serif" font-weight="bold" font-size="14.00">Recon_Fails</text>
<text xml:space="preserve" text-anchor="start" x="167.12" y="-84.45" font-family="Times,serif" font-style="italic" font-size="14.00">Reconciliation fails</text>
<text xml:space="preserve" text-anchor="start" x="71.88" y="-55.5" font-family="Times,serif" font-size="14.00">Reconciliation with Great Britain no longer offers real</text>
<text xml:space="preserve" text-anchor="start" x="71.88" y="-39" font-family="Times,serif" font-size="14.00">security or a viable settlement for the continent.</text>
<polygon fill="none" stroke="black" points="64.88,-28.25 64.88,-132.25 375.12,-132.25 375.12,-28.25 64.88,-28.25"/>
</g>
<!-- var_8fd4f779&#45;&gt;claim_8fd4f779 -->
<!-- var_92c2dbe4 -->
<g id="node28" class="node">
<title>var_92c2dbe4</title>
<polygon fill="lightblue" stroke="black" points="1981.38,-457.25 1874.62,-457.25 1874.62,-416.25 1981.38,-416.25 1981.38,-457.25"/>
<text xml:space="preserve" text-anchor="middle" x="1928" y="-439.95" font-family="Times,serif" font-size="14.00">P4</text>
<text xml:space="preserve" text-anchor="middle" x="1928" y="-423.45" font-family="Times,serif" font-size="14.00">(premise&#45;bound)</text>
</g>
<!-- var_92c2dbe4&#45;&gt;1e4f6306_anchor -->
<g id="edge22" class="edge">
<title>var_92c2dbe4&#45;&gt;1e4f6306_anchor</title>
<path fill="none" stroke="blue" stroke-width="2" d="M1947.73,-416.01C1955.67,-407.11 1964.48,-395.92 1971.06,-383.95"/>
<polygon fill="blue" stroke="blue" stroke-width="2" points="1973.48,-387 1974.68,-376.47 1967.17,-383.95 1973.48,-387"/>
<text xml:space="preserve" text-anchor="middle" x="1978.54" y="-384.95" font-family="Times,serif" font-size="14.00">P4</text>
</g>
<!-- claim_bc484fd4 -->
<g id="node38" class="node">
<title>claim_bc484fd4</title>
<polygon fill="lightyellow" stroke="none" points="1555.75,-20 1555.75,-140.5 1904.25,-140.5 1904.25,-20 1555.75,-20"/>
<text xml:space="preserve" text-anchor="start" x="1688" y="-121.2" font-family="Times,serif" font-weight="bold" font-size="14.00">SelfGov_Safer</text>
<text xml:space="preserve" text-anchor="start" x="1664" y="-92.7" font-family="Times,serif" font-style="italic" font-size="14.00">Self&#45;government is safer</text>
<text xml:space="preserve" text-anchor="start" x="1562.75" y="-63.75" font-family="Times,serif" font-size="14.00">Forming an American government of its own is wiser, safer,</text>
<text xml:space="preserve" text-anchor="start" x="1562.75" y="-47.25" font-family="Times,serif" font-size="14.00">and more durable than leaving the seat of government vacant</text>
<text xml:space="preserve" text-anchor="start" x="1562.75" y="-30.75" font-family="Times,serif" font-size="14.00">or dependent on Britain.</text>
<polygon fill="none" stroke="black" points="1555.75,-20 1555.75,-140.5 1904.25,-140.5 1904.25,-20 1555.75,-20"/>
</g>
<!-- var_bc484fd4&#45;&gt;claim_bc484fd4 -->
<!-- var_c021166c -->
<g id="node30" class="node">
<title>var_c021166c</title>
<polygon fill="lightblue" stroke="black" points="244.38,-457.25 137.62,-457.25 137.62,-416.25 244.38,-416.25 244.38,-457.25"/>
<text xml:space="preserve" text-anchor="middle" x="191" y="-439.95" font-family="Times,serif" font-size="14.00">P0</text>
<text xml:space="preserve" text-anchor="middle" x="191" y="-423.45" font-family="Times,serif" font-size="14.00">(premise&#45;bound)</text>
</g>
<!-- var_c021166c&#45;&gt;cbbd7f6e_anchor -->
<g id="edge23" class="edge">
<title>var_c021166c&#45;&gt;cbbd7f6e_anchor</title>
<path fill="none" stroke="blue" stroke-width="2" d="M191,-415.91C191,-407.22 191,-396.39 191,-384.91"/>
<polygon fill="blue" stroke="blue" stroke-width="2" points="194.5,-386.78 191,-376.78 187.5,-386.78 194.5,-386.78"/>
<text xml:space="preserve" text-anchor="middle" x="198.12" y="-384.95" font-family="Times,serif" font-size="14.00">P0</text>
</g>
<!-- var_e7514af9 -->
<g id="node31" class="node">
<title>var_e7514af9</title>
<polygon fill="lightblue" stroke="black" points="494.38,-457.25 387.62,-457.25 387.62,-416.25 494.38,-416.25 494.38,-457.25"/>
<text xml:space="preserve" text-anchor="middle" x="441" y="-439.95" font-family="Times,serif" font-size="14.00">P3</text>
<text xml:space="preserve" text-anchor="middle" x="441" y="-423.45" font-family="Times,serif" font-size="14.00">(premise&#45;bound)</text>
</g>
<!-- var_e7514af9&#45;&gt;8437cba8_anchor -->
<g id="edge24" class="edge">
<title>var_e7514af9&#45;&gt;8437cba8_anchor</title>
<path fill="none" stroke="blue" stroke-width="2" d="M441,-415.91C441,-407.22 441,-396.39 441,-384.91"/>
<polygon fill="blue" stroke="blue" stroke-width="2" points="444.5,-386.78 441,-376.78 437.5,-386.78 444.5,-386.78"/>
<text xml:space="preserve" text-anchor="middle" x="448.12" y="-384.95" font-family="Times,serif" font-size="14.00">P3</text>
</g>
<!-- var_e7818480 -->
<g id="node32" class="node">
<title>var_e7818480</title>
<polygon fill="lightblue" stroke="black" points="681.38,-457.25 574.62,-457.25 574.62,-416.25 681.38,-416.25 681.38,-457.25"/>
<text xml:space="preserve" text-anchor="middle" x="628" y="-439.95" font-family="Times,serif" font-size="14.00">P2</text>
<text xml:space="preserve" text-anchor="middle" x="628" y="-423.45" font-family="Times,serif" font-size="14.00">(premise&#45;bound)</text>
</g>
<!-- var_e7818480&#45;&gt;d7a687c2_anchor -->
<g id="edge25" class="edge">
<title>var_e7818480&#45;&gt;d7a687c2_anchor</title>
<path fill="none" stroke="blue" stroke-width="2" d="M632.96,-416.02C635.13,-407.02 637.68,-395.93 639.87,-385"/>
<polygon fill="blue" stroke="blue" stroke-width="2" points="643.02,-387.2 641.44,-376.72 636.14,-385.9 643.02,-387.2"/>
<text xml:space="preserve" text-anchor="middle" x="647.54" y="-384.95" font-family="Times,serif" font-size="14.00">P2</text>
</g>
</g>
</svg>
